<?xml version="1.0" encoding="UTF-8" standalone="no"?><svg xmlns="http://www.w3.org/2000/svg" xmlns:xlink="http://www.w3.org/1999/xlink" contentScriptType="application/ecmascript" contentStyleType="text/css" height="267px" preserveAspectRatio="none" style="width:372px;height:267px;" version="1.1" viewBox="0 0 372 267" width="372px" zoomAndPan="magnify"><defs><filter height="300%" id="fmxq68j4rnt4g" width="300%" x="-1" y="-1"><feGaussianBlur result="blurOut" stdDeviation="2.0"/><feColorMatrix in="blurOut" result="blurOut2" type="matrix" values="0 0 0 0 0 0 0 0 0 0 0 0 0 0 0 0 0 0 .4 0"/><feOffset dx="4.0" dy="4.0" in="blurOut2" result="blurOut3"/><feBlend in="SourceGraphic" in2="blurOut3" mode="normal"/></filter></defs><g><!--MD5=[0c8f81674d0e9026104f104b6fbe6eff]
class SelfDesc--><rect codeLine="7" fill="#FEFECE" filter="url(#fmxq68j4rnt4g)" height="38.2656" id="SelfDesc" style="stroke:#A80036;stroke-width:1.5;" width="155" x="83.5" y="106"/><ellipse cx="98.5" cy="125.1328" fill="#EB937F" rx="11" ry="11" style="stroke:#A80036;stroke-width:1.0;"/><path d="M97.7334,126.1958 Q95.8823,125.4902 95.2266,124.7141 Q94.5708,123.938 94.5708,122.6265 Q94.5708,120.9414 95.6499,119.9785 Q96.729,119.0156 98.6133,119.0156 Q99.4683,119.0156 100.3232,119.2107 Q101.1782,119.4058 102.0166,119.7876 L102.0166,122.1782 Q101.228,121.6221 100.4146,121.3315 Q99.6011,121.041 98.8042,121.041 Q97.916,121.041 97.4429,121.3979 Q96.9697,121.7549 96.9697,122.4189 Q96.9697,122.9336 97.3142,123.2698 Q97.6587,123.606 98.7544,124.0127 L99.8086,124.4111 Q101.3027,124.959 102.0083,125.8638 Q102.7139,126.7686 102.7139,128.1465 Q102.7139,130.0225 101.6057,130.948 Q100.4976,131.8735 98.2563,131.8735 Q97.335,131.8735 96.4094,131.6536 Q95.4839,131.4336 94.6206,131.002 L94.6206,128.4702 Q95.6001,129.1675 96.5173,129.5078 Q97.4346,129.8481 98.3311,129.8481 Q99.2358,129.8481 99.7339,129.4373 Q100.2319,129.0264 100.2319,128.2876 Q100.2319,127.7314 99.8999,127.3123 Q99.5679,126.8931 98.937,126.6523 Z " fill="#000000"/><text fill="#000000" font-family="sans-serif" font-size="12" font-style="italic" lengthAdjust="spacing" textLength="52" x="148" y="122.6016">«service»</text><text fill="#000000" font-family="sans-serif" font-size="12" lengthAdjust="spacing" textLength="123" x="112.5" y="136.7344">Self-describing Thing</text><!--MD5=[9bd2b2bc45261200a440e1ecb7c43192]
class Directory--><rect codeLine="8" fill="#FEFECE" filter="url(#fmxq68j4rnt4g)" height="38.2656" id="Directory" style="stroke:#A80036;stroke-width:1.5;" width="84" x="274" y="106"/><ellipse cx="289" cy="125.1328" fill="#EB937F" rx="11" ry="11" style="stroke:#A80036;stroke-width:1.0;"/><path d="M288.2334,126.1958 Q286.3823,125.4902 285.7266,124.7141 Q285.0708,123.938 285.0708,122.6265 Q285.0708,120.9414 286.1499,119.9785 Q287.229,119.0156 289.1133,119.0156 Q289.9683,119.0156 290.8232,119.2107 Q291.6782,119.4058 292.5166,119.7876 L292.5166,122.1782 Q291.728,121.6221 290.9146,121.3315 Q290.1011,121.041 289.3042,121.041 Q288.416,121.041 287.9429,121.3979 Q287.4697,121.7549 287.4697,122.4189 Q287.4697,122.9336 287.8142,123.2698 Q288.1587,123.606 289.2544,124.0127 L290.3086,124.4111 Q291.8027,124.959 292.5083,125.8638 Q293.2139,126.7686 293.2139,128.1465 Q293.2139,130.0225 292.1057,130.948 Q290.9976,131.8735 288.7563,131.8735 Q287.835,131.8735 286.9094,131.6536 Q285.9839,131.4336 285.1206,131.002 L285.1206,128.4702 Q286.1001,129.1675 287.0173,129.5078 Q287.9346,129.8481 288.8311,129.8481 Q289.7358,129.8481 290.2339,129.4373 Q290.7319,129.0264 290.7319,128.2876 Q290.7319,127.7314 290.3999,127.3123 Q290.0679,126.8931 289.437,126.6523 Z " fill="#000000"/><text fill="#000000" font-family="sans-serif" font-size="12" font-style="italic" lengthAdjust="spacing" textLength="52" x="303" y="122.6016">«service»</text><text fill="#000000" font-family="sans-serif" font-size="12" lengthAdjust="spacing" textLength="52" x="303" y="136.7344">Directory</text><!--MD5=[1053da7555f32ea3c982e01119b403ff]
class Thing--><rect codeLine="5" fill="#FEFECE" filter="url(#fmxq68j4rnt4g)" height="38.2656" id="Thing" style="stroke:#A80036;stroke-width:1.5;" width="80" x="198" y="7"/><ellipse cx="213" cy="26.1328" fill="#EB937F" rx="11" ry="11" style="stroke:#A80036;stroke-width:1.0;"/><path d="M212.2334,27.1958 Q210.3823,26.4902 209.7266,25.7141 Q209.0708,24.938 209.0708,23.6265 Q209.0708,21.9414 210.1499,20.9785 Q211.229,20.0156 213.1133,20.0156 Q213.9683,20.0156 214.8232,20.2107 Q215.6782,20.4058 216.5166,20.7876 L216.5166,23.1782 Q215.728,22.6221 214.9146,22.3315 Q214.1011,22.041 213.3042,22.041 Q212.416,22.041 211.9429,22.3979 Q211.4697,22.7549 211.4697,23.4189 Q211.4697,23.9336 211.8142,24.2698 Q212.1587,24.606 213.2544,25.0127 L214.3086,25.4111 Q215.8027,25.959 216.5083,26.8638 Q217.2139,27.7686 217.2139,29.1465 Q217.2139,31.0225 216.1057,31.948 Q214.9976,32.8735 212.7563,32.8735 Q211.835,32.8735 210.9094,32.6536 Q209.9839,32.4336 209.1206,32.002 L209.1206,29.4702 Q210.1001,30.1675 211.0173,30.5078 Q211.9346,30.8481 212.8311,30.8481 Q213.7358,30.8481 214.2339,30.4373 Q214.7319,30.0264 214.7319,29.2876 Q214.7319,28.7314 214.3999,28.3123 Q214.0679,27.8931 213.437,27.6523 Z " fill="#000000"/><text fill="#000000" font-family="sans-serif" font-size="12" font-style="italic" lengthAdjust="spacing" textLength="52" x="225" y="23.6016">«service»</text><text fill="#000000" font-family="sans-serif" font-size="12" lengthAdjust="spacing" textLength="32" x="235" y="37.7344">Thing</text><!--MD5=[f66eb5cd0a27e450a5267fbcb4094f6d]
class TD--><rect codeLine="11" fill="#F0FFFF" filter="url(#fmxq68j4rnt4g)" height="32" id="TD" style="stroke:#A80036;stroke-width:1.5;" width="80" x="205" y="221"/><ellipse cx="220" cy="237" fill="#ADD1B2" rx="11" ry="11" style="stroke:#A80036;stroke-width:1.0;"/><path d="M222.4731,243.1431 Q221.8921,243.4419 221.2529,243.5913 Q220.6138,243.7407 219.9082,243.7407 Q217.4014,243.7407 216.0815,242.0889 Q214.7617,240.437 214.7617,237.3159 Q214.7617,234.1865 216.0815,232.5347 Q217.4014,230.8828 219.9082,230.8828 Q220.6138,230.8828 221.2612,231.0322 Q221.9087,231.1816 222.4731,231.4805 L222.4731,234.2031 Q221.8423,233.6221 221.2488,233.3523 Q220.6553,233.0825 220.0244,233.0825 Q218.6797,233.0825 217.9949,234.1492 Q217.3101,235.2158 217.3101,237.3159 Q217.3101,239.4077 217.9949,240.4744 Q218.6797,241.541 220.0244,241.541 Q220.6553,241.541 221.2488,241.2712 Q221.8423,241.0015 222.4731,240.4204 Z " fill="#000000"/><text fill="#000000" font-family="sans-serif" font-size="12" lengthAdjust="spacing" textLength="48" x="234" y="241.5352">td:Thing</text><path d="M6,224.5 L6,249.8105 A0,0 0 0 0 6,249.8105 L170,249.8105 A0,0 0 0 0 170,249.8105 L170,242.5 L204.9594,237 L170,234.5 L170,234.5 L160,224.5 L6,224.5 A0,0 0 0 0 6,224.5 " fill="#FBFB77" filter="url(#fmxq68j4rnt4g)" style="stroke:#A80036;stroke-width:1.0;"/><path d="M160,224.5 L160,234.5 L170,234.5 L160,224.5 " fill="#FBFB77" style="stroke:#A80036;stroke-width:1.0;"/><text fill="#000000" font-family="sans-serif" font-size="13" lengthAdjust="spacing" textLength="143" x="12" y="242.0684">Thing Description (TD)</text><!--MD5=[88221bcd57db51459cd4199f69591b42]
reverse link Thing to SelfDesc--><path codeLine="15" d="M210.7837,60.9924 C199.0122,76.1272 185.697,93.2468 175.8008,105.9704 " fill="none" id="Thing-backto-SelfDesc" style="stroke:#A80036;stroke-width:1.0;"/><polygon fill="none" points="205.3493,56.5777,223.1536,45.0882,216.4002,65.1729,205.3493,56.5777" style="stroke:#A80036;stroke-width:1.0;"/><!--MD5=[6811a1fa3166692e42720dcd61a45561]
reverse link Thing to Directory--><path codeLine="16" d="M265.5698,60.9924 C277.4941,76.1272 290.9823,93.2468 301.007,105.9704 " fill="none" id="Thing-backto-Directory" style="stroke:#A80036;stroke-width:1.0;"/><polygon fill="none" points="259.9182,65.1302,253.0392,45.0882,270.9151,56.4659,259.9182,65.1302" style="stroke:#A80036;stroke-width:1.0;"/><!--MD5=[962830750a9a6ad5a90804d94990eddc]
link SelfDesc to TD--><path codeLine="17" d="M175.4401,144.2535 C190.5925,164.4566 214.3131,196.0842 229.7593,216.679 " fill="none" id="SelfDesc-to-TD" style="stroke:#A80036;stroke-width:1.0;"/><polygon fill="#A80036" points="232.9236,220.8982,230.7236,211.2982,229.9236,216.8982,224.3236,216.0982,232.9236,220.8982" style="stroke:#A80036;stroke-width:1.0;"/><text fill="#000000" font-family="sans-serif" font-size="13" lengthAdjust="spacing" textLength="54" x="209" y="187.5684">provides</text><text fill="#000000" font-family="sans-serif" font-size="13" lengthAdjust="spacing" textLength="8" x="170.5069" y="164.6873">1</text><text fill="#000000" font-family="sans-serif" font-size="13" lengthAdjust="spacing" textLength="8" x="209.7714" y="210.1137">1</text><!--MD5=[22095c50f58adeae0dd4a30b6d5b7e14]
link Directory to TD--><path codeLine="18" d="M303.7947,144.2535 C291.0409,164.3721 271.1054,195.8197 258.0463,216.4199 " fill="none" id="Directory-to-TD" style="stroke:#A80036;stroke-width:1.0;"/><polygon fill="#A80036" points="255.2074,220.8982,263.4046,215.4387,257.8846,216.6753,256.648,211.1553,255.2074,220.8982" style="stroke:#A80036;stroke-width:1.0;"/><text fill="#000000" font-family="sans-serif" font-size="13" lengthAdjust="spacing" textLength="54" x="285" y="187.5684">contains</text><text fill="#000000" font-family="sans-serif" font-size="13" lengthAdjust="spacing" textLength="8" x="277.2719" y="164.6873">1</text><text fill="#000000" font-family="sans-serif" font-size="13" lengthAdjust="spacing" textLength="22" x="276.9" y="210.1137">0..*</text><!--MD5=[f4f3bb0e5d7af19bc65e1de21803eef7]
@startuml exploration-class-diagram
/' global configurations '/
hide methods
hide members

class Thing <<(S,#eb937f) service>>
together {
    class SelfDesc as "Self-describing Thing" <<(S,#eb937f) service>>
    class Directory <<(S,#eb937f) service>>
}

class TD as "td:Thing" #Azure
note left: Thing Description (TD)

/' relations '/
Thing <|- - SelfDesc
Thing <|- - Directory
SelfDesc "1" - -> "1  " TD: provides
Directory "1   " - -> "   0..*" TD: contains


@enduml

@startuml exploration-class-diagram
hide methods
hide members

class Thing <<(S,#eb937f) service>>
together {
    class SelfDesc as "Self-describing Thing" <<(S,#eb937f) service>>
    class Directory <<(S,#eb937f) service>>
}

class TD as "td:Thing" #Azure
note left: Thing Description (TD)

Thing <|- - SelfDesc
Thing <|- - Directory
SelfDesc "1" - -> "1  " TD: provides
Directory "1   " - -> "   0..*" TD: contains


@enduml

PlantUML version 1.2021.00(Sun Jan 10 11:25:05 CET 2021)
(GPL source distribution)
Java Runtime: Java(TM) SE Runtime Environment
JVM: Java HotSpot(TM) 64-Bit Server VM
Default Encoding: UTF-8
Language: en
Country: US
--></g></svg>