<?xml version="1.0" encoding="us-ascii" standalone="no"?><svg xmlns="http://www.w3.org/2000/svg" xmlns:xlink="http://www.w3.org/1999/xlink" contentStyleType="text/css" height="297px" preserveAspectRatio="none" style="width:768px;height:297px;background:#FFFFFF;" version="1.1" viewBox="0 0 768 297" width="768px" zoomAndPan="magnify"><defs/><g><!--class Thing--><g id="elem_Thing"><rect codeLine="4" fill="#F0FFFF" height="32" id="Thing" rx="2.5" ry="2.5" style="stroke:#181818;stroke-width:0.5;" width="90" x="284.5" y="33"/><ellipse cx="299.5" cy="49" fill="#ADD1B2" rx="11" ry="11" style="stroke:#181818;stroke-width:1.0;"/><path d="M302.4688,54.6406 Q301.8906,54.9375 301.25,55.0781 Q300.6094,55.2344 299.9063,55.2344 Q297.4063,55.2344 296.0781,53.5938 Q294.7656,51.9375 294.7656,48.8125 Q294.7656,45.6875 296.0781,44.0313 Q297.4063,42.375 299.9063,42.375 Q300.6094,42.375 301.25,42.5313 Q301.9063,42.6875 302.4688,42.9844 L302.4688,45.7031 Q301.8438,45.125 301.25,44.8594 Q300.6563,44.5781 300.0313,44.5781 Q298.6875,44.5781 298,45.6563 Q297.3125,46.7188 297.3125,48.8125 Q297.3125,50.9063 298,51.9844 Q298.6875,53.0469 300.0313,53.0469 Q300.6563,53.0469 301.25,52.7813 Q301.8438,52.5 302.4688,51.9219 L302.4688,54.6406 Z " fill="#000000"/><text fill="#000000" font-family="sans-serif" font-size="14" lengthAdjust="spacing" textLength="58" x="313.5" y="53.8467">td:Thing</text></g><g id="elem_GMN3"><path d="M87.5,36.5 L87.5,61.6328 A0,0 0 0 0 87.5,61.6328 L249.5,61.6328 A0,0 0 0 0 249.5,61.6328 L249.5,54.5 L284.26,49 L249.5,46.5 L249.5,46.5 L239.5,36.5 L87.5,36.5 A0,0 0 0 0 87.5,36.5 " fill="#FEFFDD" style="stroke:#181818;stroke-width:0.5;"/><path d="M239.5,36.5 L239.5,46.5 L249.5,46.5 L239.5,36.5 " fill="#FEFFDD" style="stroke:#181818;stroke-width:0.5;"/><text fill="#000000" font-family="sans-serif" font-size="13" lengthAdjust="spacing" textLength="141" x="93.5" y="53.5669">Thing Description (TD)</text></g><!--class ThingDirectory--><g id="elem_ThingDirectory"><rect codeLine="6" fill="#F0FFFF" height="32" id="ThingDirectory" rx="2.5" ry="2.5" style="stroke:#181818;stroke-width:0.5;" width="203" x="7" y="213.5"/><ellipse cx="22" cy="229.5" fill="#ADD1B2" rx="11" ry="11" style="stroke:#181818;stroke-width:1.0;"/><path d="M24.9688,235.1406 Q24.3906,235.4375 23.75,235.5781 Q23.1094,235.7344 22.4063,235.7344 Q19.9063,235.7344 18.5781,234.0938 Q17.2656,232.4375 17.2656,229.3125 Q17.2656,226.1875 18.5781,224.5313 Q19.9063,222.875 22.4063,222.875 Q23.1094,222.875 23.75,223.0313 Q24.4063,223.1875 24.9688,223.4844 L24.9688,226.2031 Q24.3438,225.625 23.75,225.3594 Q23.1563,225.0781 22.5313,225.0781 Q21.1875,225.0781 20.5,226.1563 Q19.8125,227.2188 19.8125,229.3125 Q19.8125,231.4063 20.5,232.4844 Q21.1875,233.5469 22.5313,233.5469 Q23.1563,233.5469 23.75,233.2813 Q24.3438,233 24.9688,232.4219 L24.9688,235.1406 Z " fill="#000000"/><text fill="#000000" font-family="sans-serif" font-size="14" lengthAdjust="spacing" textLength="171" x="36" y="234.3467">discovery:ThingDirectory</text></g><!--class ThingLink--><g id="elem_ThingLink"><rect codeLine="7" fill="#F0FFFF" height="32" id="ThingLink" rx="2.5" ry="2.5" style="stroke:#181818;stroke-width:0.5;" width="168" x="245.5" y="213.5"/><ellipse cx="260.5" cy="229.5" fill="#ADD1B2" rx="11" ry="11" style="stroke:#181818;stroke-width:1.0;"/><path d="M263.4688,235.1406 Q262.8906,235.4375 262.25,235.5781 Q261.6094,235.7344 260.9063,235.7344 Q258.4063,235.7344 257.0781,234.0938 Q255.7656,232.4375 255.7656,229.3125 Q255.7656,226.1875 257.0781,224.5313 Q258.4063,222.875 260.9063,222.875 Q261.6094,222.875 262.25,223.0313 Q262.9063,223.1875 263.4688,223.4844 L263.4688,226.2031 Q262.8438,225.625 262.25,225.3594 Q261.6563,225.0781 261.0313,225.0781 Q259.6875,225.0781 259,226.1563 Q258.3125,227.2188 258.3125,229.3125 Q258.3125,231.4063 259,232.4844 Q259.6875,233.5469 261.0313,233.5469 Q261.6563,233.5469 262.25,233.2813 Q262.8438,233 263.4688,232.4219 L263.4688,235.1406 Z " fill="#000000"/><text fill="#000000" font-family="sans-serif" font-size="14" lengthAdjust="spacing" textLength="136" x="274.5" y="234.3467">discovery:ThingLink</text></g><!--class RegInfo--><g id="elem_RegInfo"><rect codeLine="9" fill="#F0FFFF" height="121.4844" id="RegInfo" rx="2.5" ry="2.5" style="stroke:#181818;stroke-width:0.5;" width="268" x="448.5" y="169"/><ellipse cx="466.2" cy="185" fill="#ADD1B2" rx="11" ry="11" style="stroke:#181818;stroke-width:1.0;"/><path d="M469.1688,190.6406 Q468.5906,190.9375 467.95,191.0781 Q467.3094,191.2344 466.6063,191.2344 Q464.1063,191.2344 462.7781,189.5938 Q461.4656,187.9375 461.4656,184.8125 Q461.4656,181.6875 462.7781,180.0313 Q464.1063,178.375 466.6063,178.375 Q467.3094,178.375 467.95,178.5313 Q468.6063,178.6875 469.1688,178.9844 L469.1688,181.7031 Q468.5438,181.125 467.95,180.8594 Q467.3563,180.5781 466.7313,180.5781 Q465.3875,180.5781 464.7,181.6563 Q464.0125,182.7188 464.0125,184.8125 Q464.0125,186.9063 464.7,187.9844 Q465.3875,189.0469 466.7313,189.0469 Q467.3563,189.0469 467.95,188.7813 Q468.5438,188.5 469.1688,187.9219 L469.1688,190.6406 Z " fill="#000000"/><text fill="#000000" font-family="sans-serif" font-size="14" lengthAdjust="spacing" textLength="230" x="480.8" y="189.8467">discovery:RegistrationInformation</text><line style="stroke:#181818;stroke-width:0.5;" x1="449.5" x2="715.5" y1="201" y2="201"/><text fill="#000000" font-family="sans-serif" font-size="14" lengthAdjust="spacing" textLength="253" x="454.5" y="217.9951">schema:dateCreated : xsd:dateTime</text><text fill="#000000" font-family="sans-serif" font-size="14" lengthAdjust="spacing" textLength="256" x="454.5" y="234.292">schema:dateModified : xsd:dateTime</text><text fill="#000000" font-family="sans-serif" font-size="14" lengthAdjust="spacing" textLength="217" x="454.5" y="250.5889">schema:expires : xsd:dateTime</text><text fill="#000000" font-family="sans-serif" font-size="14" lengthAdjust="spacing" textLength="207" x="454.5" y="266.8857">discovery:ttl : xsd:unsignedInt</text><text fill="#000000" font-family="sans-serif" font-size="14" lengthAdjust="spacing" textLength="238" x="454.5" y="283.1826">discovery:retrieved : xsd:dateTime</text></g><g id="elem_Prefixes"><path d="M409.5,6 L409.5,91.6641 L761.5,91.6641 L761.5,16 L751.5,6 L409.5,6 " fill="#FEFFDD" style="stroke:#181818;stroke-width:0.5;"/><path d="M751.5,6 L751.5,16 L761.5,16 L751.5,6 " fill="#FEFFDD" style="stroke:#181818;stroke-width:1.0;"/><text fill="#000000" font-family="sans-serif" font-size="13" lengthAdjust="spacing" textLength="54" x="415.5" y="23.0669">Prefixes:</text><text fill="#000000" font-family="sans-serif" font-size="13" lengthAdjust="spacing" textLength="260" x="423.5" y="38.1997">td: https://www.w3.org/2022/wot/td/v1.1#</text><text fill="#000000" font-family="sans-serif" font-size="13" lengthAdjust="spacing" textLength="323" x="423.5" y="53.3325">discovery: https://www.w3.org/2022/wot/discovery#</text><text fill="#000000" font-family="sans-serif" font-size="13" lengthAdjust="spacing" textLength="195" x="423.5" y="68.4653">schema: https://schema.org/#</text><text fill="#000000" font-family="sans-serif" font-size="13" lengthAdjust="spacing" textLength="278" x="423.5" y="83.5981">xsd: https://www.w3.org/2001/XMLSchema#</text></g><!--reverse link Thing to ThingDirectory--><g id="link_Thing_ThingDirectory"><path codeLine="18" d="M295.02,77.85 C247.75,116.03 164.44,183.32 127.29,213.32 " fill="none" id="Thing-backto-ThingDirectory" style="stroke:#181818;stroke-width:1.0;"/><polygon fill="none" points="290.7,72.34,310.66,65.22,299.5,83.23,290.7,72.34" style="stroke:#181818;stroke-width:1.0;"/></g><!--reverse link Thing to ThingLink--><g id="link_Thing_ThingLink"><path codeLine="19" d="M329.5,85.47 C329.5,124.44 329.5,185.22 329.5,213.32 " fill="none" id="Thing-backto-ThingLink" style="stroke:#181818;stroke-width:1.0;"/><polygon fill="none" points="322.5,85.22,329.5,65.22,336.5,85.22,322.5,85.22" style="stroke:#181818;stroke-width:1.0;"/></g><!--link Thing to RegInfo--><g id="link_Thing_RegInfo"><path codeLine="21" d="M351.07,65.22 C382.45,87.36 442.53,129.75 493.61,165.78 " fill="none" id="Thing-to-RegInfo" style="stroke:#181818;stroke-width:1.0;"/><polygon fill="#181818" points="497.89,168.81,492.8463,160.3506,493.806,165.9255,488.2311,166.8851,497.89,168.81" style="stroke:#181818;stroke-width:1.0;"/><text fill="#000000" font-family="sans-serif" font-size="13" lengthAdjust="spacing" textLength="236" x="449.5" y="135.0669">discovery:hasRegistrationInformation</text></g><!--SRC=[VLB1JkCm4BtxAqRfeRk7DhHxin0Iq0iII8ZjWQk9fudLnAxiQLDWzz-ndJPDsi0bikUz6SzxUOMI21LMRsWTSskbDyAA2h9IE7SdidLkpLRBUrCQ2xSVMukCHGoMXT8v20S9IHul2TE644fS4J_02tIPLHjIHiElvU9tjtUXB6Pax7iS8fNBp0xjE- -3IRVbKUdr43lKa-DYBvW_w9Kvu_cgScH5M2N0jeh714PH5Nmo09SLM0ak1U6zHV-Lm67lPAmiLOLzpfEHQgL-8E5-usMuI_oq5b5vWBVQgLoZVD3KOrWagt1t-Sn_vWfJd-IIvxrj2HqZaoCLQAEevaTS_vjCpcmVm8AFVcvJdanksk6yQsKXt7TkiYO2tlfdYokrzyiS3zo_vvC21T76yJIjwtfQ_vaQcwVpg_ayhGsb9DFTR3eRzGpuiQEbZKwsjmtDFJO4EBWtFEngbhu-FVwDz153BI78O6mCHpctfHBEgnbt5lCNEFEKmtSvFf63oHUyw7oWP4tm-40O8ruTGiU7aXWPXzJninH6pCUDzzCNost6UFVO9cqChILV]--></g></svg>