<?xml version="1.0" encoding="UTF-8" standalone="no"?><svg xmlns="http://www.w3.org/2000/svg" xmlns:xlink="http://www.w3.org/1999/xlink" contentScriptType="application/ecmascript" contentStyleType="text/css" height="339px" preserveAspectRatio="none" style="width:912px;height:339px;" version="1.1" viewBox="0 0 912 339" width="912px" zoomAndPan="magnify"><defs><filter height="300%" id="f1fqkrqw5huxug" width="300%" x="-1" y="-1"><feGaussianBlur result="blurOut" stdDeviation="2.0"/><feColorMatrix in="blurOut" result="blurOut2" type="matrix" values="0 0 0 0 0 0 0 0 0 0 0 0 0 0 0 0 0 0 .4 0"/><feOffset dx="4.0" dy="4.0" in="blurOut2" result="blurOut3"/><feBlend in="SourceGraphic" in2="blurOut3" mode="normal"/></filter></defs><g><!--MD5=[720243bd32a03d3d8b9d48ea222fefd0]
class td:Thing--><rect codeLine="2" fill="#FEFECE" filter="url(#f1fqkrqw5huxug)" height="32" id="td:Thing" style="stroke:#A80036;stroke-width:1.5;" width="80" x="205" y="138"/><ellipse cx="220" cy="154" fill="#ADD1B2" rx="11" ry="11" style="stroke:#A80036;stroke-width:1.0;"/><path d="M222.3438,149.6719 C221.4063,149.2344 220.8125,149.0938 219.9375,149.0938 C217.3125,149.0938 215.3125,151.1719 215.3125,153.8906 L215.3125,155.0156 C215.3125,157.5938 217.4219,159.4844 220.3125,159.4844 C221.5313,159.4844 222.6875,159.1875 223.4375,158.6406 C224.0156,158.2344 224.3438,157.7813 224.3438,157.3906 C224.3438,156.9375 223.9531,156.5469 223.4844,156.5469 C223.2656,156.5469 223.0625,156.625 222.875,156.8125 C222.4219,157.2969 222.4219,157.2969 222.2344,157.3906 C221.8125,157.6563 221.125,157.7813 220.3594,157.7813 C218.3125,157.7813 217.0156,156.6875 217.0156,154.9844 L217.0156,153.8906 C217.0156,152.1094 218.2656,150.7969 220,150.7969 C220.5781,150.7969 221.1875,150.9531 221.6563,151.2031 C222.1406,151.4844 222.3125,151.7031 222.4063,152.1094 C222.4688,152.5156 222.5,152.6406 222.6406,152.7656 C222.7813,152.9063 223.0156,153.0156 223.2344,153.0156 C223.5,153.0156 223.7656,152.875 223.9375,152.6563 C224.0469,152.5 224.0781,152.3125 224.0781,151.8906 L224.0781,150.4688 C224.0781,150.0313 224.0625,149.9063 223.9688,149.75 C223.8125,149.4844 223.5313,149.3438 223.2344,149.3438 C222.9375,149.3438 222.7344,149.4375 222.5156,149.75 L222.3438,149.6719 Z " fill="#000000"/><text fill="#000000" font-family="sans-serif" font-size="12" lengthAdjust="spacing" textLength="48" x="234" y="158.1543">td:Thing</text><!--MD5=[6896f3cb75befe51f04f2682bfb06802]
class discovery:RegistrationInformation--><rect codeLine="4" fill="#FEFECE" filter="url(#f1fqkrqw5huxug)" height="78.4141" id="discovery:RegistrationInformation" style="stroke:#A80036;stroke-width:1.5;" width="234" x="128" y="247"/><ellipse cx="143" cy="263" fill="#ADD1B2" rx="11" ry="11" style="stroke:#A80036;stroke-width:1.0;"/><path d="M145.3438,258.6719 C144.4063,258.2344 143.8125,258.0938 142.9375,258.0938 C140.3125,258.0938 138.3125,260.1719 138.3125,262.8906 L138.3125,264.0156 C138.3125,266.5938 140.4219,268.4844 143.3125,268.4844 C144.5313,268.4844 145.6875,268.1875 146.4375,267.6406 C147.0156,267.2344 147.3438,266.7813 147.3438,266.3906 C147.3438,265.9375 146.9531,265.5469 146.4844,265.5469 C146.2656,265.5469 146.0625,265.625 145.875,265.8125 C145.4219,266.2969 145.4219,266.2969 145.2344,266.3906 C144.8125,266.6563 144.125,266.7813 143.3594,266.7813 C141.3125,266.7813 140.0156,265.6875 140.0156,263.9844 L140.0156,262.8906 C140.0156,261.1094 141.2656,259.7969 143,259.7969 C143.5781,259.7969 144.1875,259.9531 144.6563,260.2031 C145.1406,260.4844 145.3125,260.7031 145.4063,261.1094 C145.4688,261.5156 145.5,261.6406 145.6406,261.7656 C145.7813,261.9063 146.0156,262.0156 146.2344,262.0156 C146.5,262.0156 146.7656,261.875 146.9375,261.6563 C147.0469,261.5 147.0781,261.3125 147.0781,260.8906 L147.0781,259.4688 C147.0781,259.0313 147.0625,258.9063 146.9688,258.75 C146.8125,258.4844 146.5313,258.3438 146.2344,258.3438 C145.9375,258.3438 145.7344,258.4375 145.5156,258.75 L145.3438,258.6719 Z " fill="#000000"/><text fill="#000000" font-family="sans-serif" font-size="12" lengthAdjust="spacing" textLength="202" x="157" y="267.1543">discovery:RegistrationInformation</text><line style="stroke:#A80036;stroke-width:1.5;" x1="129" x2="361" y1="279" y2="279"/><text fill="#000000" font-family="sans-serif" font-size="11" lengthAdjust="spacing" textLength="206" x="134" y="293.2104">schema:dateCreated : xsd:datetime</text><text fill="#000000" font-family="sans-serif" font-size="11" lengthAdjust="spacing" textLength="208" x="134" y="306.0151">schema:dateModified : xsd:datetime</text><text fill="#000000" font-family="sans-serif" font-size="11" lengthAdjust="spacing" textLength="177" x="134" y="318.8198">schema:expires : xsd:datetime</text><path d="M6,141.5 L6,166.6328 A0,0 0 0 0 6,166.6328 L170,166.6328 A0,0 0 0 0 170,166.6328 L170,159.5 L204.959,154 L170,151.5 L170,151.5 L160,141.5 L6,141.5 A0,0 0 0 0 6,141.5 " fill="#FBFB77" filter="url(#f1fqkrqw5huxug)" style="stroke:#A80036;stroke-width:1.0;"/><path d="M160,141.5 L160,151.5 L170,151.5 L160,141.5 " fill="#FBFB77" style="stroke:#A80036;stroke-width:1.0;"/><text fill="#000000" font-family="sans-serif" font-size="13" lengthAdjust="spacing" textLength="143" x="12" y="158.5669">Thing Description (TD)</text><!--MD5=[5d73a6b6279ba07c68a611433c9f4b2f]
class discovery:LinkDescription--><rect fill="#FEFECE" filter="url(#f1fqkrqw5huxug)" height="32" id="discovery:LinkDescription" style="stroke:#A80036;stroke-width:1.5;" width="188" x="31" y="25.5"/><ellipse cx="46" cy="41.5" fill="#ADD1B2" rx="11" ry="11" style="stroke:#A80036;stroke-width:1.0;"/><path d="M48.3438,37.1719 C47.4063,36.7344 46.8125,36.5938 45.9375,36.5938 C43.3125,36.5938 41.3125,38.6719 41.3125,41.3906 L41.3125,42.5156 C41.3125,45.0938 43.4219,46.9844 46.3125,46.9844 C47.5313,46.9844 48.6875,46.6875 49.4375,46.1406 C50.0156,45.7344 50.3438,45.2813 50.3438,44.8906 C50.3438,44.4375 49.9531,44.0469 49.4844,44.0469 C49.2656,44.0469 49.0625,44.125 48.875,44.3125 C48.4219,44.7969 48.4219,44.7969 48.2344,44.8906 C47.8125,45.1563 47.125,45.2813 46.3594,45.2813 C44.3125,45.2813 43.0156,44.1875 43.0156,42.4844 L43.0156,41.3906 C43.0156,39.6094 44.2656,38.2969 46,38.2969 C46.5781,38.2969 47.1875,38.4531 47.6563,38.7031 C48.1406,38.9844 48.3125,39.2031 48.4063,39.6094 C48.4688,40.0156 48.5,40.1406 48.6406,40.2656 C48.7813,40.4063 49.0156,40.5156 49.2344,40.5156 C49.5,40.5156 49.7656,40.375 49.9375,40.1563 C50.0469,40 50.0781,39.8125 50.0781,39.3906 L50.0781,37.9688 C50.0781,37.5313 50.0625,37.4063 49.9688,37.25 C49.8125,36.9844 49.5313,36.8438 49.2344,36.8438 C48.9375,36.8438 48.7344,36.9375 48.5156,37.25 L48.3438,37.1719 Z " fill="#000000"/><text fill="#000000" font-family="sans-serif" font-size="12" lengthAdjust="spacing" textLength="156" x="60" y="45.6543">discovery:LinkDescription</text><!--MD5=[0a597d41bbafa612973e670ae127860f]
class discovery:DirectoryDescription--><rect fill="#FEFECE" filter="url(#f1fqkrqw5huxug)" height="32" id="discovery:DirectoryDescription" style="stroke:#A80036;stroke-width:1.5;" width="221" x="254.5" y="25.5"/><ellipse cx="269.5" cy="41.5" fill="#ADD1B2" rx="11" ry="11" style="stroke:#A80036;stroke-width:1.0;"/><path d="M271.8438,37.1719 C270.9063,36.7344 270.3125,36.5938 269.4375,36.5938 C266.8125,36.5938 264.8125,38.6719 264.8125,41.3906 L264.8125,42.5156 C264.8125,45.0938 266.9219,46.9844 269.8125,46.9844 C271.0313,46.9844 272.1875,46.6875 272.9375,46.1406 C273.5156,45.7344 273.8438,45.2813 273.8438,44.8906 C273.8438,44.4375 273.4531,44.0469 272.9844,44.0469 C272.7656,44.0469 272.5625,44.125 272.375,44.3125 C271.9219,44.7969 271.9219,44.7969 271.7344,44.8906 C271.3125,45.1563 270.625,45.2813 269.8594,45.2813 C267.8125,45.2813 266.5156,44.1875 266.5156,42.4844 L266.5156,41.3906 C266.5156,39.6094 267.7656,38.2969 269.5,38.2969 C270.0781,38.2969 270.6875,38.4531 271.1563,38.7031 C271.6406,38.9844 271.8125,39.2031 271.9063,39.6094 C271.9688,40.0156 272,40.1406 272.1406,40.2656 C272.2813,40.4063 272.5156,40.5156 272.7344,40.5156 C273,40.5156 273.2656,40.375 273.4375,40.1563 C273.5469,40 273.5781,39.8125 273.5781,39.3906 L273.5781,37.9688 C273.5781,37.5313 273.5625,37.4063 273.4688,37.25 C273.3125,36.9844 273.0313,36.8438 272.7344,36.8438 C272.4375,36.8438 272.2344,36.9375 272.0156,37.25 L271.8438,37.1719 Z " fill="#000000"/><text fill="#000000" font-family="sans-serif" font-size="12" lengthAdjust="spacing" textLength="189" x="283.5" y="45.6543">discovery:DirectoryDescription</text><path d="M511,6 L511,76.5313 L903,76.5313 L903,16 L893,6 L511,6 " fill="#FBFB77" filter="url(#f1fqkrqw5huxug)" style="stroke:#A80036;stroke-width:1.0;"/><path d="M893,6 L893,16 L903,16 L893,6 " fill="#FBFB77" style="stroke:#A80036;stroke-width:1.0;"/><text fill="#000000" font-family="sans-serif" font-size="13" lengthAdjust="spacing" textLength="57" x="517" y="23.0669">Prefixes:</text><text fill="#000000" font-family="sans-serif" font-size="13" lengthAdjust="spacing" textLength="339" x="549" y="38.1997">discovery: https://www.w3.org/2021/wot/discovery#</text><text fill="#000000" font-family="sans-serif" font-size="13" lengthAdjust="spacing" textLength="241" x="549" y="53.3325">td: https://www.w3.org/2019/wot/td#</text><text fill="#000000" font-family="sans-serif" font-size="13" lengthAdjust="spacing" textLength="179" x="549" y="68.4653">schema: http://schema.org/</text><!--MD5=[a725220ffe901fb4a04a3cf677459618]
link td:Thing to discovery:RegistrationInformation--><path codeLine="16" d="M245,170.167 C245,187.613 245,217.028 245,241.7193 " fill="none" id="td:Thing-to-discovery:RegistrationInformation" style="stroke:#A80036;stroke-width:1.0;"/><polygon fill="#A80036" points="245,246.9104,249,237.9104,245,241.9104,241,237.9104,245,246.9104" style="stroke:#A80036;stroke-width:1.0;"/><text fill="#000000" font-family="sans-serif" font-size="13" lengthAdjust="spacing" textLength="241" x="246" y="213.0669">discovery:hasRegistrationInformation</text><!--MD5=[89e8a26129e958576b8640a9c3d2eb2a]
link discovery:LinkDescription to td:Thing--><path codeLine="19" d="M141.685,57.865 C160.224,74.935 190.574,102.883 213.594,124.081 " fill="none" id="discovery:LinkDescription-to-td:Thing" style="stroke:#A80036;stroke-width:1.0;"/><polygon fill="none" points="218.485,119.069,228.456,137.766,209.002,129.368,218.485,119.069" style="stroke:#A80036;stroke-width:1.0;"/><!--MD5=[f8c700b90fbcd9af8af19d8cb5aa8579]
link discovery:DirectoryDescription to td:Thing--><path codeLine="20" d="M348.315,57.865 C329.776,74.935 299.426,102.883 276.406,124.081 " fill="none" id="discovery:DirectoryDescription-to-td:Thing" style="stroke:#A80036;stroke-width:1.0;"/><polygon fill="none" points="280.998,129.368,261.544,137.766,271.515,119.069,280.998,129.368" style="stroke:#A80036;stroke-width:1.0;"/><!--MD5=[8752040fd6e5eec91552e561d2bfdb99]
@startuml
hide members
class "td:Thing"

class "discovery:RegistrationInformation" {
  schema:dateCreated : xsd:datetime
  schema:dateModified : xsd:datetime
  schema:expires : xsd:datetime
}


note left of "td:Thing" 
  Thing Description (TD)
end note


"td:Thing" - -> "discovery:RegistrationInformation" : "discovery:hasRegistrationInformation"


"discovery:LinkDescription" - -|> "td:Thing"
"discovery:DirectoryDescription" - -|> "td:Thing"

show "discovery:RegistrationInformation" attributes
note "Prefixes:\n\tdiscovery: https://www.w3.org/2021/wot/discovery#\n\ttd: https://www.w3.org/2019/wot/td#\n\tschema: http://schema.org/" as N1
@enduml

PlantUML version 1.2021.5beta3(Unknown compile time)
(GPL source distribution)
Java Runtime: Java(TM) SE Runtime Environment
JVM: Java HotSpot(TM) 64-Bit Server VM
Default Encoding: UTF-8
Language: en
Country: US
--></g></svg>