<?xml version="1.0" encoding="UTF-8" standalone="no"?><svg xmlns="http://www.w3.org/2000/svg" xmlns:xlink="http://www.w3.org/1999/xlink" contentScriptType="application/ecmascript" contentStyleType="text/css" height="307px" preserveAspectRatio="none" style="width:331px;height:307px;" version="1.1" viewBox="0 0 331 307" width="331px" zoomAndPan="magnify"><defs><filter height="300%" id="f45bpouzmf7pz" width="300%" x="-1" y="-1"><feGaussianBlur result="blurOut" stdDeviation="2.0"/><feColorMatrix in="blurOut" result="blurOut2" type="matrix" values="0 0 0 0 0 0 0 0 0 0 0 0 0 0 0 0 0 0 .4 0"/><feOffset dx="4.0" dy="4.0" in="blurOut2" result="blurOut3"/><feBlend in="SourceGraphic" in2="blurOut3" mode="normal"/></filter></defs><g><!--MD5=[9bd2b2bc45261200a440e1ecb7c43192]
class Directory--><rect codeLine="4" fill="#FEFECE" filter="url(#f45bpouzmf7pz)" height="38.2656" id="Directory" style="stroke:#A80036;stroke-width:1.5;" width="84" x="203" y="7"/><ellipse cx="218" cy="26.1328" fill="#ADD1B2" rx="11" ry="11" style="stroke:#A80036;stroke-width:1.0;"/><path d="M220.4731,32.2759 Q219.8921,32.5747 219.2529,32.7241 Q218.6138,32.8735 217.9082,32.8735 Q215.4014,32.8735 214.0815,31.2217 Q212.7617,29.5698 212.7617,26.4487 Q212.7617,23.3193 214.0815,21.6675 Q215.4014,20.0156 217.9082,20.0156 Q218.6138,20.0156 219.2612,20.165 Q219.9087,20.3145 220.4731,20.6133 L220.4731,23.3359 Q219.8423,22.7549 219.2488,22.4851 Q218.6553,22.2153 218.0244,22.2153 Q216.6797,22.2153 215.9949,23.282 Q215.3101,24.3486 215.3101,26.4487 Q215.3101,28.5405 215.9949,29.6072 Q216.6797,30.6738 218.0244,30.6738 Q218.6553,30.6738 219.2488,30.4041 Q219.8423,30.1343 220.4731,29.5532 Z " fill="#000000"/><text fill="#000000" font-family="sans-serif" font-size="12" font-style="italic" lengthAdjust="spacing" textLength="52" x="232" y="23.6016">«service»</text><text fill="#000000" font-family="sans-serif" font-size="12" lengthAdjust="spacing" textLength="52" x="232" y="37.7344">Directory</text><!--MD5=[f66eb5cd0a27e450a5267fbcb4094f6d]
class TD--><rect codeLine="7" fill="#FEFECE" filter="url(#f45bpouzmf7pz)" height="32" id="TD" style="stroke:#A80036;stroke-width:1.5;" width="80" x="205" y="122"/><ellipse cx="220" cy="138" fill="#ADD1B2" rx="11" ry="11" style="stroke:#A80036;stroke-width:1.0;"/><path d="M222.4731,144.1431 Q221.8921,144.4419 221.2529,144.5913 Q220.6138,144.7407 219.9082,144.7407 Q217.4014,144.7407 216.0815,143.0889 Q214.7617,141.437 214.7617,138.3159 Q214.7617,135.1865 216.0815,133.5347 Q217.4014,131.8828 219.9082,131.8828 Q220.6138,131.8828 221.2612,132.0322 Q221.9087,132.1816 222.4731,132.4805 L222.4731,135.2031 Q221.8423,134.6221 221.2488,134.3523 Q220.6553,134.0825 220.0244,134.0825 Q218.6797,134.0825 217.9949,135.1492 Q217.3101,136.2158 217.3101,138.3159 Q217.3101,140.4077 217.9949,141.4744 Q218.6797,142.541 220.0244,142.541 Q220.6553,142.541 221.2488,142.2712 Q221.8423,142.0015 222.4731,141.4204 Z " fill="#000000"/><text fill="#000000" font-family="sans-serif" font-size="12" lengthAdjust="spacing" textLength="48" x="234" y="142.5352">td:Thing</text><path d="M6,125.5 L6,150.8105 A0,0 0 0 0 6,150.8105 L170,150.8105 A0,0 0 0 0 170,150.8105 L170,143.5 L204.9594,138 L170,135.5 L170,135.5 L160,125.5 L6,125.5 A0,0 0 0 0 6,125.5 " fill="#FBFB77" filter="url(#f45bpouzmf7pz)" style="stroke:#A80036;stroke-width:1.0;"/><path d="M160,125.5 L160,135.5 L170,135.5 L160,125.5 " fill="#FBFB77" style="stroke:#A80036;stroke-width:1.0;"/><text fill="#000000" font-family="sans-serif" font-size="13" lengthAdjust="spacing" textLength="143" x="12" y="143.0684">Thing Description (TD)</text><!--MD5=[b0d235383f18272a9799c4b40fc1822a]
class RI--><rect codeLine="11" fill="#FEFECE" filter="url(#f45bpouzmf7pz)" height="78.8652" id="RI" style="stroke:#A80036;stroke-width:1.5;" width="145" x="172.5" y="215"/><ellipse cx="187.5" cy="231" fill="#ADD1B2" rx="11" ry="11" style="stroke:#A80036;stroke-width:1.0;"/><path d="M189.9731,237.1431 Q189.3921,237.4419 188.7529,237.5913 Q188.1138,237.7407 187.4082,237.7407 Q184.9014,237.7407 183.5815,236.0889 Q182.2617,234.437 182.2617,231.3159 Q182.2617,228.1865 183.5815,226.5347 Q184.9014,224.8828 187.4082,224.8828 Q188.1138,224.8828 188.7612,225.0322 Q189.4087,225.1816 189.9731,225.4805 L189.9731,228.2031 Q189.3423,227.6221 188.7488,227.3523 Q188.1553,227.0825 187.5244,227.0825 Q186.1797,227.0825 185.4949,228.1492 Q184.8101,229.2158 184.8101,231.3159 Q184.8101,233.4077 185.4949,234.4744 Q186.1797,235.541 187.5244,235.541 Q188.1553,235.541 188.7488,235.2712 Q189.3423,235.0015 189.9731,234.4204 Z " fill="#000000"/><text fill="#000000" font-family="sans-serif" font-size="12" lengthAdjust="spacing" textLength="113" x="201.5" y="235.5352">tdd:RegistrationInfo</text><line style="stroke:#A80036;stroke-width:1.5;" x1="173.5" x2="316.5" y1="247" y2="247"/><text fill="#000000" font-family="sans-serif" font-size="11" lengthAdjust="spacing" textLength="121" x="178.5" y="261.6348">tdd:created {readOnly}</text><text fill="#000000" font-family="sans-serif" font-size="11" lengthAdjust="spacing" textLength="91" x="178.5" y="274.5898">tdd:id {readOnly}</text><text fill="#000000" font-family="sans-serif" font-size="11" lengthAdjust="spacing" textLength="128" x="178.5" y="287.5449">tdd:modified {readOnly}</text><!--MD5=[4abaebd5e86ec539cd4add9eeee5321f]
reverse link Directory to TD--><path codeLine="19" d="M245,58.3271 C245,79.1641 245,105.3603 245,121.8982 " fill="none" id="Directory-backto-TD" style="stroke:#A80036;stroke-width:1.0;"/><polygon fill="#FFFFFF" points="245,45.2535,241,51.2535,245,57.2535,249,51.2535,245,45.2535" style="stroke:#A80036;stroke-width:1.0;"/><text fill="#000000" font-family="sans-serif" font-size="13" lengthAdjust="spacing" textLength="54" x="246" y="88.5684">contains</text><text fill="#000000" font-family="sans-serif" font-size="13" lengthAdjust="spacing" textLength="8" x="235.825" y="65.6873">1</text><text fill="#000000" font-family="sans-serif" font-size="13" lengthAdjust="spacing" textLength="22" x="219.0813" y="111.1137">0..*</text><!--MD5=[1dc66e9d1b43fe258a92c3d7bc90687d]
reverse link TD to RI--><path codeLine="20" d="M245,167.3532 C245,181.749 245,199.2982 245,214.8654 " fill="none" id="TD-backto-RI" style="stroke:#A80036;stroke-width:1.0;"/><polygon fill="#A80036" points="245,154.1988,241,160.1988,245,166.1988,249,160.1988,245,154.1988" style="stroke:#A80036;stroke-width:1.0;"/><text fill="#000000" font-family="sans-serif" font-size="13" lengthAdjust="spacing" textLength="8" x="235.675" y="174.6688">1</text><text fill="#000000" font-family="sans-serif" font-size="13" lengthAdjust="spacing" textLength="24" x="218.9375" y="204.3708">0..1</text><!--MD5=[8de2539b871305ddae5d09f9e567eeeb]
@startuml directory-class-diagram
/' global configurations '/
hide methods

class Directory <<service>>
hide Directory members

class TD as "td:Thing"
hide TD members
note left: Thing Description (TD)

class RI as "tdd:RegistrationInfo" {
    tdd:created {readOnly}
    ' tdd:expires
    tdd:id {readOnly}
    tdd:modified {readOnly}
    ' tdd:ttl
}

Directory "1" o- - "0..*" TD: contains
TD "1" *- - "0..1" RI


@enduml

@startuml directory-class-diagram
hide methods

class Directory <<service>>
hide Directory members

class TD as "td:Thing"
hide TD members
note left: Thing Description (TD)

class RI as "tdd:RegistrationInfo" {
    tdd:created {readOnly}
    tdd:id {readOnly}
    tdd:modified {readOnly}
}

Directory "1" o- - "0..*" TD: contains
TD "1" *- - "0..1" RI


@enduml

PlantUML version 1.2021.00(Sun Jan 10 11:25:05 CET 2021)
(GPL source distribution)
Java Runtime: Java(TM) SE Runtime Environment
JVM: Java HotSpot(TM) 64-Bit Server VM
Default Encoding: UTF-8
Language: en
Country: US
--></g></svg>