<?xml version="1.0" encoding="UTF-8" standalone="no"?><svg xmlns="http://www.w3.org/2000/svg" xmlns:xlink="http://www.w3.org/1999/xlink" contentScriptType="application/ecmascript" contentStyleType="text/css" height="347px" preserveAspectRatio="none" style="width:875px;height:347px;background:#FFFFFF;" version="1.1" viewBox="0 0 875 347" width="875px" zoomAndPan="magnify"><defs><filter height="300%" id="frp5p00uoni5d" width="300%" x="-1" y="-1"><feGaussianBlur result="blurOut" stdDeviation="2.0"/><feColorMatrix in="blurOut" result="blurOut2" type="matrix" values="0 0 0 0 0 0 0 0 0 0 0 0 0 0 0 0 0 0 .4 0"/><feOffset dx="4.0" dy="4.0" in="blurOut2" result="blurOut3"/><feBlend in="SourceGraphic" in2="blurOut3" mode="normal"/></filter></defs><g><!--MD5=[720243bd32a03d3d8b9d48ea222fefd0]
class td:Thing--><rect codeLine="2" fill="#FEFECE" filter="url(#frp5p00uoni5d)" height="32" id="td:Thing" style="stroke:#A80036;stroke-width:1.5;" width="80" x="205" y="301"/><ellipse cx="220" cy="317" fill="#ADD1B2" rx="11" ry="11" style="stroke:#A80036;stroke-width:1.0;"/><path d="M222.3438,312.6719 C221.4063,312.2344 220.8125,312.0938 219.9375,312.0938 C217.3125,312.0938 215.3125,314.1719 215.3125,316.8906 L215.3125,318.0156 C215.3125,320.5938 217.4219,322.4844 220.3125,322.4844 C221.5313,322.4844 222.6875,322.1875 223.4375,321.6406 C224.0156,321.2344 224.3438,320.7813 224.3438,320.3906 C224.3438,319.9375 223.9531,319.5469 223.4844,319.5469 C223.2656,319.5469 223.0625,319.625 222.875,319.8125 C222.4219,320.2969 222.4219,320.2969 222.2344,320.3906 C221.8125,320.6563 221.125,320.7813 220.3594,320.7813 C218.3125,320.7813 217.0156,319.6875 217.0156,317.9844 L217.0156,316.8906 C217.0156,315.1094 218.2656,313.7969 220,313.7969 C220.5781,313.7969 221.1875,313.9531 221.6563,314.2031 C222.1406,314.4844 222.3125,314.7031 222.4063,315.1094 C222.4688,315.5156 222.5,315.6406 222.6406,315.7656 C222.7813,315.9063 223.0156,316.0156 223.2344,316.0156 C223.5,316.0156 223.7656,315.875 223.9375,315.6563 C224.0469,315.5 224.0781,315.3125 224.0781,314.8906 L224.0781,313.4688 C224.0781,313.0313 224.0625,312.9063 223.9688,312.75 C223.8125,312.4844 223.5313,312.3438 223.2344,312.3438 C222.9375,312.3438 222.7344,312.4375 222.5156,312.75 L222.3438,312.6719 Z " fill="#000000"/><text fill="#000000" font-family="sans-serif" font-size="12" lengthAdjust="spacing" textLength="48" x="234" y="321.1543">td:Thing</text><!--MD5=[4e83af2d3829a3ac49c2c322612193f7]
class discovery:ThingEnriched--><rect codeLine="4" fill="#FEFECE" filter="url(#frp5p00uoni5d)" height="104.0234" id="discovery:ThingEnriched" style="stroke:#A80036;stroke-width:1.5;" width="220" x="135" y="137"/><ellipse cx="168" cy="153" fill="#ADD1B2" rx="11" ry="11" style="stroke:#A80036;stroke-width:1.0;"/><path d="M170.3438,148.6719 C169.4063,148.2344 168.8125,148.0938 167.9375,148.0938 C165.3125,148.0938 163.3125,150.1719 163.3125,152.8906 L163.3125,154.0156 C163.3125,156.5938 165.4219,158.4844 168.3125,158.4844 C169.5313,158.4844 170.6875,158.1875 171.4375,157.6406 C172.0156,157.2344 172.3438,156.7813 172.3438,156.3906 C172.3438,155.9375 171.9531,155.5469 171.4844,155.5469 C171.2656,155.5469 171.0625,155.625 170.875,155.8125 C170.4219,156.2969 170.4219,156.2969 170.2344,156.3906 C169.8125,156.6563 169.125,156.7813 168.3594,156.7813 C166.3125,156.7813 165.0156,155.6875 165.0156,153.9844 L165.0156,152.8906 C165.0156,151.1094 166.2656,149.7969 168,149.7969 C168.5781,149.7969 169.1875,149.9531 169.6563,150.2031 C170.1406,150.4844 170.3125,150.7031 170.4063,151.1094 C170.4688,151.5156 170.5,151.6406 170.6406,151.7656 C170.7813,151.9063 171.0156,152.0156 171.2344,152.0156 C171.5,152.0156 171.7656,151.875 171.9375,151.6563 C172.0469,151.5 172.0781,151.3125 172.0781,150.8906 L172.0781,149.4688 C172.0781,149.0313 172.0625,148.9063 171.9688,148.75 C171.8125,148.4844 171.5313,148.3438 171.2344,148.3438 C170.9375,148.3438 170.7344,148.4375 170.5156,148.75 L170.3438,148.6719 Z " fill="#000000"/><text fill="#000000" font-family="sans-serif" font-size="12" lengthAdjust="spacing" textLength="148" x="186" y="157.1543">discovery:ThingEnriched</text><line style="stroke:#A80036;stroke-width:1.5;" x1="136" x2="354" y1="169" y2="169"/><text fill="#000000" font-family="sans-serif" font-size="11" lengthAdjust="spacing" textLength="206" x="141" y="183.2104">schema:dateCreated : xsd:datetime</text><text fill="#000000" font-family="sans-serif" font-size="11" lengthAdjust="spacing" textLength="208" x="141" y="196.0151">schema:dateModified : xsd:datetime</text><text fill="#000000" font-family="sans-serif" font-size="11" lengthAdjust="spacing" textLength="177" x="141" y="208.8198">schema:expires : xsd:datetime</text><text fill="#000000" font-family="sans-serif" font-size="11" lengthAdjust="spacing" textLength="144" x="141" y="221.6245">discovery:ttl : xsd:integer</text><text fill="#000000" font-family="sans-serif" font-size="11" lengthAdjust="spacing" textLength="197" x="141" y="234.4292">discovery:retrieved : xsd:datetime</text><path d="M6,304.5 L6,329.6328 A0,0 0 0 0 6,329.6328 L170,329.6328 A0,0 0 0 0 170,329.6328 L170,322.5 L204.959,317 L170,314.5 L170,314.5 L160,304.5 L6,304.5 A0,0 0 0 0 6,304.5 " fill="#FBFB77" filter="url(#frp5p00uoni5d)" style="stroke:#A80036;stroke-width:1.0;"/><path d="M160,304.5 L160,314.5 L170,314.5 L160,304.5 " fill="#FBFB77" style="stroke:#A80036;stroke-width:1.0;"/><text fill="#000000" font-family="sans-serif" font-size="13" lengthAdjust="spacing" textLength="143" x="12" y="321.5669">Thing Description (TD)</text><!--MD5=[d6f12e9a54e254868e6ff06580f68bf6]
class discovery:ThingLink--><rect fill="#FEFECE" filter="url(#frp5p00uoni5d)" height="32" id="discovery:ThingLink" style="stroke:#A80036;stroke-width:1.5;" width="151" x="68.5" y="25.5"/><ellipse cx="83.5" cy="41.5" fill="#ADD1B2" rx="11" ry="11" style="stroke:#A80036;stroke-width:1.0;"/><path d="M85.8438,37.1719 C84.9063,36.7344 84.3125,36.5938 83.4375,36.5938 C80.8125,36.5938 78.8125,38.6719 78.8125,41.3906 L78.8125,42.5156 C78.8125,45.0938 80.9219,46.9844 83.8125,46.9844 C85.0313,46.9844 86.1875,46.6875 86.9375,46.1406 C87.5156,45.7344 87.8438,45.2813 87.8438,44.8906 C87.8438,44.4375 87.4531,44.0469 86.9844,44.0469 C86.7656,44.0469 86.5625,44.125 86.375,44.3125 C85.9219,44.7969 85.9219,44.7969 85.7344,44.8906 C85.3125,45.1563 84.625,45.2813 83.8594,45.2813 C81.8125,45.2813 80.5156,44.1875 80.5156,42.4844 L80.5156,41.3906 C80.5156,39.6094 81.7656,38.2969 83.5,38.2969 C84.0781,38.2969 84.6875,38.4531 85.1563,38.7031 C85.6406,38.9844 85.8125,39.2031 85.9063,39.6094 C85.9688,40.0156 86,40.1406 86.1406,40.2656 C86.2813,40.4063 86.5156,40.5156 86.7344,40.5156 C87,40.5156 87.2656,40.375 87.4375,40.1563 C87.5469,40 87.5781,39.8125 87.5781,39.3906 L87.5781,37.9688 C87.5781,37.5313 87.5625,37.4063 87.4688,37.25 C87.3125,36.9844 87.0313,36.8438 86.7344,36.8438 C86.4375,36.8438 86.2344,36.9375 86.0156,37.25 L85.8438,37.1719 Z " fill="#000000"/><text fill="#000000" font-family="sans-serif" font-size="12" lengthAdjust="spacing" textLength="119" x="97.5" y="45.6543">discovery:ThingLink</text><!--MD5=[705e530b1c3d1a614f6aa65ae0ced421]
class discovery:ThingDirectory--><rect fill="#FEFECE" filter="url(#frp5p00uoni5d)" height="32" id="discovery:ThingDirectory" style="stroke:#A80036;stroke-width:1.5;" width="184" x="255" y="25.5"/><ellipse cx="270" cy="41.5" fill="#ADD1B2" rx="11" ry="11" style="stroke:#A80036;stroke-width:1.0;"/><path d="M272.3438,37.1719 C271.4063,36.7344 270.8125,36.5938 269.9375,36.5938 C267.3125,36.5938 265.3125,38.6719 265.3125,41.3906 L265.3125,42.5156 C265.3125,45.0938 267.4219,46.9844 270.3125,46.9844 C271.5313,46.9844 272.6875,46.6875 273.4375,46.1406 C274.0156,45.7344 274.3438,45.2813 274.3438,44.8906 C274.3438,44.4375 273.9531,44.0469 273.4844,44.0469 C273.2656,44.0469 273.0625,44.125 272.875,44.3125 C272.4219,44.7969 272.4219,44.7969 272.2344,44.8906 C271.8125,45.1563 271.125,45.2813 270.3594,45.2813 C268.3125,45.2813 267.0156,44.1875 267.0156,42.4844 L267.0156,41.3906 C267.0156,39.6094 268.2656,38.2969 270,38.2969 C270.5781,38.2969 271.1875,38.4531 271.6563,38.7031 C272.1406,38.9844 272.3125,39.2031 272.4063,39.6094 C272.4688,40.0156 272.5,40.1406 272.6406,40.2656 C272.7813,40.4063 273.0156,40.5156 273.2344,40.5156 C273.5,40.5156 273.7656,40.375 273.9375,40.1563 C274.0469,40 274.0781,39.8125 274.0781,39.3906 L274.0781,37.9688 C274.0781,37.5313 274.0625,37.4063 273.9688,37.25 C273.8125,36.9844 273.5313,36.8438 273.2344,36.8438 C272.9375,36.8438 272.7344,36.9375 272.5156,37.25 L272.3438,37.1719 Z " fill="#000000"/><text fill="#000000" font-family="sans-serif" font-size="12" lengthAdjust="spacing" textLength="152" x="284" y="45.6543">discovery:ThingDirectory</text><path d="M474,6 L474,76.5313 L866,76.5313 L866,16 L856,6 L474,6 " fill="#FBFB77" filter="url(#frp5p00uoni5d)" style="stroke:#A80036;stroke-width:1.0;"/><path d="M856,6 L856,16 L866,16 L856,6 " fill="#FBFB77" style="stroke:#A80036;stroke-width:1.0;"/><text fill="#000000" font-family="sans-serif" font-size="13" lengthAdjust="spacing" textLength="57" x="480" y="23.0669">Prefixes:</text><text fill="#000000" font-family="sans-serif" font-size="13" lengthAdjust="spacing" textLength="339" x="512" y="38.1997">discovery: https://www.w3.org/2021/wot/discovery#</text><text fill="#000000" font-family="sans-serif" font-size="13" lengthAdjust="spacing" textLength="241" x="512" y="53.3325">td: https://www.w3.org/2019/wot/td#</text><text fill="#000000" font-family="sans-serif" font-size="13" lengthAdjust="spacing" textLength="179" x="512" y="68.4653">schema: http://schema.org/</text><!--MD5=[ee7812e7e80324628ad0983af8f3669b]
link discovery:ThingEnriched to td:Thing--><path codeLine="20" d="M245,241.249 C245,254.537 245,268.548 245,280.8032 " fill="none" id="discovery:ThingEnriched-to-td:Thing" style="stroke:#A80036;stroke-width:1.0;"/><polygon fill="none" points="252,280.9891,245,300.989,238,280.989,252,280.9891" style="stroke:#A80036;stroke-width:1.0;"/><!--MD5=[c6b55c96f9c00b2b06ca2a46d7a3c848]
link discovery:ThingLink to discovery:ThingEnriched--><path codeLine="21" d="M154.428,57.523 C164.861,72.553 181.663,96.757 197.978,120.26 " fill="none" id="discovery:ThingLink-to-discovery:ThingEnriched" style="stroke:#A80036;stroke-width:1.0;"/><polygon fill="none" points="203.737,116.281,209.391,136.702,192.236,124.264,203.737,116.281" style="stroke:#A80036;stroke-width:1.0;"/><!--MD5=[1902c13c78e7cb75da53f6a2c65ca5ed]
link discovery:ThingDirectory to discovery:ThingEnriched--><path codeLine="22" d="M336.468,57.523 C325.932,72.553 308.964,96.757 292.488,120.26 " fill="none" id="discovery:ThingDirectory-to-discovery:ThingEnriched" style="stroke:#A80036;stroke-width:1.0;"/><polygon fill="none" points="298.174,124.344,280.961,136.702,286.71,116.307,298.174,124.344" style="stroke:#A80036;stroke-width:1.0;"/><!--MD5=[4210668be7270f87f501b7d5556c2dbb]
@startuml
hide members
class "td:Thing"

class "discovery:ThingEnriched" {
  schema:dateCreated : xsd:datetime
  schema:dateModified : xsd:datetime
  schema:expires : xsd:datetime
  discovery:ttl : xsd:integer
  discovery:retrieved : xsd:datetime
}


note left of "td:Thing" 
  Thing Description (TD)
end note




"discovery:ThingEnriched" - -|> "td:Thing"
"discovery:ThingLink" - -|> "discovery:ThingEnriched"
"discovery:ThingDirectory" - -|> "discovery:ThingEnriched"

show "discovery:ThingEnriched" attributes
note "Prefixes:\n\tdiscovery: https://www.w3.org/2021/wot/discovery#\n\ttd: https://www.w3.org/2019/wot/td#\n\tschema: http://schema.org/" as N1
@enduml

PlantUML version 1.2021.7beta2(Unknown compile time)
(GPL source distribution)
Java Runtime: Java(TM) SE Runtime Environment
JVM: Java HotSpot(TM) 64-Bit Server VM
Default Encoding: UTF-8
Language: en
Country: US
--></g></svg>