<?xml version="1.0" encoding="UTF-8" standalone="no"?><svg xmlns="http://www.w3.org/2000/svg" xmlns:xlink="http://www.w3.org/1999/xlink" contentScriptType="application/ecmascript" contentStyleType="text/css" height="301px" preserveAspectRatio="none" style="width:490px;height:301px;" version="1.1" viewBox="0 0 490 301" width="490px" zoomAndPan="magnify"><defs><filter height="300%" id="fz8dwsusl7hpu" width="300%" x="-1" y="-1"><feGaussianBlur result="blurOut" stdDeviation="2.0"/><feColorMatrix in="blurOut" result="blurOut2" type="matrix" values="0 0 0 0 0 0 0 0 0 0 0 0 0 0 0 0 0 0 .4 0"/><feOffset dx="4.0" dy="4.0" in="blurOut2" result="blurOut3"/><feBlend in="SourceGraphic" in2="blurOut3" mode="normal"/></filter></defs><g><!--MD5=[720243bd32a03d3d8b9d48ea222fefd0]
class td:Thing--><rect codeLine="2" fill="#FEFECE" filter="url(#fz8dwsusl7hpu)" height="32" id="td:Thing" style="stroke:#A80036;stroke-width:1.5;" width="80" x="205" y="100"/><ellipse cx="220" cy="116" fill="#ADD1B2" rx="11" ry="11" style="stroke:#A80036;stroke-width:1.0;"/><path d="M222.4731,122.1431 Q221.8921,122.4419 221.2529,122.5913 Q220.6138,122.7407 219.9082,122.7407 Q217.4014,122.7407 216.0815,121.0889 Q214.7617,119.437 214.7617,116.3159 Q214.7617,113.1865 216.0815,111.5347 Q217.4014,109.8828 219.9082,109.8828 Q220.6138,109.8828 221.2612,110.0322 Q221.9087,110.1816 222.4731,110.4805 L222.4731,113.2031 Q221.8423,112.6221 221.2488,112.3523 Q220.6553,112.0825 220.0244,112.0825 Q218.6797,112.0825 217.9949,113.1492 Q217.3101,114.2158 217.3101,116.3159 Q217.3101,118.4077 217.9949,119.4744 Q218.6797,120.541 220.0244,120.541 Q220.6553,120.541 221.2488,120.2712 Q221.8423,120.0015 222.4731,119.4204 Z " fill="#000000"/><text fill="#000000" font-family="sans-serif" font-size="12" lengthAdjust="spacing" textLength="48" x="234" y="120.5352">td:Thing</text><!--MD5=[6896f3cb75befe51f04f2682bfb06802]
class discovery:RegistrationInformation--><rect codeLine="4" fill="#FEFECE" filter="url(#fz8dwsusl7hpu)" height="78.8652" id="discovery:RegistrationInformation" style="stroke:#A80036;stroke-width:1.5;" width="223" x="133.5" y="209"/><ellipse cx="148.5" cy="225" fill="#ADD1B2" rx="11" ry="11" style="stroke:#A80036;stroke-width:1.0;"/><path d="M150.9731,231.1431 Q150.3921,231.4419 149.7529,231.5913 Q149.1138,231.7407 148.4082,231.7407 Q145.9014,231.7407 144.5815,230.0889 Q143.2617,228.437 143.2617,225.3159 Q143.2617,222.1865 144.5815,220.5347 Q145.9014,218.8828 148.4082,218.8828 Q149.1138,218.8828 149.7612,219.0322 Q150.4087,219.1816 150.9731,219.4805 L150.9731,222.2031 Q150.3423,221.6221 149.7488,221.3523 Q149.1553,221.0825 148.5244,221.0825 Q147.1797,221.0825 146.4949,222.1492 Q145.8101,223.2158 145.8101,225.3159 Q145.8101,227.4077 146.4949,228.4744 Q147.1797,229.541 148.5244,229.541 Q149.1553,229.541 149.7488,229.2712 Q150.3423,229.0015 150.9731,228.4204 Z " fill="#000000"/><text fill="#000000" font-family="sans-serif" font-size="12" lengthAdjust="spacing" textLength="191" x="162.5" y="229.5352">discovery:RegistrationInformation</text><line style="stroke:#A80036;stroke-width:1.5;" x1="134.5" x2="355.5" y1="241" y2="241"/><text fill="#000000" font-family="sans-serif" font-size="11" lengthAdjust="spacing" textLength="138" x="139.5" y="255.6348">dct:created : xsd:datetime</text><text fill="#000000" font-family="sans-serif" font-size="11" lengthAdjust="spacing" textLength="145" x="139.5" y="268.5898">dct:modified : xsd:datetime</text><text fill="#000000" font-family="sans-serif" font-size="11" lengthAdjust="spacing" textLength="162" x="139.5" y="281.5449">schema:expires : xsd:datetime</text><path d="M6,103.5 L6,128.8105 A0,0 0 0 0 6,128.8105 L170,128.8105 A0,0 0 0 0 170,128.8105 L170,121.5 L204.9594,116 L170,113.5 L170,113.5 L160,103.5 L6,103.5 A0,0 0 0 0 6,103.5 " fill="#FBFB77" filter="url(#fz8dwsusl7hpu)" style="stroke:#A80036;stroke-width:1.0;"/><path d="M160,103.5 L160,113.5 L170,113.5 L160,103.5 " fill="#FBFB77" style="stroke:#A80036;stroke-width:1.0;"/><text fill="#000000" font-family="sans-serif" font-size="13" lengthAdjust="spacing" textLength="143" x="12" y="121.0684">Thing Description (TD)</text><!--MD5=[5d73a6b6279ba07c68a611433c9f4b2f]
class discovery:LinkDescription--><rect fill="#FEFECE" filter="url(#fz8dwsusl7hpu)" height="32" id="discovery:LinkDescription" style="stroke:#A80036;stroke-width:1.5;" width="178" x="42" y="7"/><ellipse cx="57" cy="23" fill="#ADD1B2" rx="11" ry="11" style="stroke:#A80036;stroke-width:1.0;"/><path d="M59.4731,29.1431 Q58.8921,29.4419 58.2529,29.5913 Q57.6138,29.7407 56.9082,29.7407 Q54.4014,29.7407 53.0815,28.0889 Q51.7617,26.437 51.7617,23.3159 Q51.7617,20.1865 53.0815,18.5347 Q54.4014,16.8828 56.9082,16.8828 Q57.6138,16.8828 58.2612,17.0322 Q58.9087,17.1816 59.4731,17.4805 L59.4731,20.2031 Q58.8423,19.6221 58.2488,19.3523 Q57.6553,19.0825 57.0244,19.0825 Q55.6797,19.0825 54.9949,20.1492 Q54.3101,21.2158 54.3101,23.3159 Q54.3101,25.4077 54.9949,26.4744 Q55.6797,27.541 57.0244,27.541 Q57.6553,27.541 58.2488,27.2712 Q58.8423,27.0015 59.4731,26.4204 Z " fill="#000000"/><text fill="#000000" font-family="sans-serif" font-size="12" lengthAdjust="spacing" textLength="146" x="71" y="27.5352">discovery:LinkDescription</text><!--MD5=[0a597d41bbafa612973e670ae127860f]
class discovery:DirectoryDescription--><rect fill="#FEFECE" filter="url(#fz8dwsusl7hpu)" height="32" id="discovery:DirectoryDescription" style="stroke:#A80036;stroke-width:1.5;" width="207" x="255.5" y="7"/><ellipse cx="270.5" cy="23" fill="#ADD1B2" rx="11" ry="11" style="stroke:#A80036;stroke-width:1.0;"/><path d="M272.9731,29.1431 Q272.3921,29.4419 271.7529,29.5913 Q271.1138,29.7407 270.4082,29.7407 Q267.9014,29.7407 266.5815,28.0889 Q265.2617,26.437 265.2617,23.3159 Q265.2617,20.1865 266.5815,18.5347 Q267.9014,16.8828 270.4082,16.8828 Q271.1138,16.8828 271.7612,17.0322 Q272.4087,17.1816 272.9731,17.4805 L272.9731,20.2031 Q272.3423,19.6221 271.7488,19.3523 Q271.1553,19.0825 270.5244,19.0825 Q269.1797,19.0825 268.4949,20.1492 Q267.8101,21.2158 267.8101,23.3159 Q267.8101,25.4077 268.4949,26.4744 Q269.1797,27.541 270.5244,27.541 Q271.1553,27.541 271.7488,27.2712 Q272.3423,27.0015 272.9731,26.4204 Z " fill="#000000"/><text fill="#000000" font-family="sans-serif" font-size="12" lengthAdjust="spacing" textLength="175" x="284.5" y="27.5352">discovery:DirectoryDescription</text><!--MD5=[a725220ffe901fb4a04a3cf677459618]
link td:Thing to discovery:RegistrationInformation--><path codeLine="16" d="M245,132.2471 C245,149.9243 245,178.9566 245,203.5851 " fill="none" id="td:Thing-to-discovery:RegistrationInformation" style="stroke:#A80036;stroke-width:1.0;"/><polygon fill="#A80036" points="245,208.7681,249,199.7681,245,203.7681,241,199.7681,245,208.7681" style="stroke:#A80036;stroke-width:1.0;"/><text fill="#000000" font-family="sans-serif" font-size="13" lengthAdjust="spacing" textLength="236" x="246" y="175.5684">discovery:hasRegistrationInformation</text><!--MD5=[89e8a26129e958576b8640a9c3d2eb2a]
link discovery:LinkDescription to td:Thing--><path codeLine="19" d="M150.8573,39.1994 C167.0406,52.4016 190.2992,71.3757 209.6486,87.1607 " fill="none" id="discovery:LinkDescription-to-td:Thing" style="stroke:#A80036;stroke-width:1.0;"/><polygon fill="none" points="214.2978,81.9196,225.3703,99.9863,205.448,92.7678,214.2978,81.9196" style="stroke:#A80036;stroke-width:1.0;"/><!--MD5=[f8c700b90fbcd9af8af19d8cb5aa8579]
link discovery:DirectoryDescription to td:Thing--><path codeLine="20" d="M339.1427,39.1994 C322.9594,52.4016 299.7008,71.3757 280.3514,87.1607 " fill="none" id="discovery:DirectoryDescription-to-td:Thing" style="stroke:#A80036;stroke-width:1.0;"/><polygon fill="none" points="284.552,92.7678,264.6297,99.9863,275.7022,81.9196,284.552,92.7678" style="stroke:#A80036;stroke-width:1.0;"/><!--MD5=[3c35ad8b594d8afd24f8c73ce4d92845]
@startuml
hide members
class "td:Thing"

class "discovery:RegistrationInformation" {
  dct:created : xsd:datetime
  dct:modified : xsd:datetime
  schema:expires : xsd:datetime
}


note left of "td:Thing" 
  Thing Description (TD)
end note


"td:Thing" - -> "discovery:RegistrationInformation" : "discovery:hasRegistrationInformation"


"discovery:LinkDescription" - -|> "td:Thing"
"discovery:DirectoryDescription" - -|> "td:Thing"

show "discovery:RegistrationInformation" attributes
@enduml

PlantUML version 1.2021.00(Sun Jan 10 11:25:05 CET 2021)
(GPL source distribution)
Java Runtime: Java(TM) SE Runtime Environment
JVM: Java HotSpot(TM) 64-Bit Server VM
Default Encoding: UTF-8
Language: en
Country: US
--></g></svg>