<?xml version="1.0" encoding="UTF-8" standalone="no"?><svg xmlns="http://www.w3.org/2000/svg" xmlns:xlink="http://www.w3.org/1999/xlink" contentScriptType="application/ecmascript" contentStyleType="text/css" height="257px" preserveAspectRatio="none" style="width:742px;height:257px;" version="1.1" viewBox="0 0 742 257" width="742px" zoomAndPan="magnify"><defs><filter height="300%" id="fmufin4ramdgt" width="300%" x="-1" y="-1"><feGaussianBlur result="blurOut" stdDeviation="2.0"/><feColorMatrix in="blurOut" result="blurOut2" type="matrix" values="0 0 0 0 0 0 0 0 0 0 0 0 0 0 0 0 0 0 .4 0"/><feOffset dx="4.0" dy="4.0" in="blurOut2" result="blurOut3"/><feBlend in="SourceGraphic" in2="blurOut3" mode="normal"/></filter></defs><g><!--MD5=[1053da7555f32ea3c982e01119b403ff]
class Thing--><rect codeLine="2" fill="#FEFECE" filter="url(#fmufin4ramdgt)" height="32" id="Thing" style="stroke:#A80036;stroke-width:1.5;" width="80" x="249" y="18"/><ellipse cx="264" cy="34" fill="#ADD1B2" rx="11" ry="11" style="stroke:#A80036;stroke-width:1.0;"/><path d="M266.4731,40.1431 Q265.8921,40.4419 265.2529,40.5913 Q264.6138,40.7407 263.9082,40.7407 Q261.4014,40.7407 260.0815,39.0889 Q258.7617,37.437 258.7617,34.3159 Q258.7617,31.1865 260.0815,29.5347 Q261.4014,27.8828 263.9082,27.8828 Q264.6138,27.8828 265.2612,28.0322 Q265.9087,28.1816 266.4731,28.4805 L266.4731,31.2031 Q265.8423,30.6221 265.2488,30.3523 Q264.6553,30.0825 264.0244,30.0825 Q262.6797,30.0825 261.9949,31.1492 Q261.3101,32.2158 261.3101,34.3159 Q261.3101,36.4077 261.9949,37.4744 Q262.6797,38.541 264.0244,38.541 Q264.6553,38.541 265.2488,38.2712 Q265.8423,38.0015 266.4731,37.4204 Z " fill="#000000"/><text fill="#000000" font-family="sans-serif" font-size="12" lengthAdjust="spacing" textLength="48" x="278" y="38.5352">td:Thing</text><!--MD5=[5f26c86091fa2c90ec21445571d1772b]
class ThingDirectory--><rect codeLine="3" fill="#FEFECE" filter="url(#fmufin4ramdgt)" height="32" id="ThingDirectory" style="stroke:#A80036;stroke-width:1.5;" width="174" x="7" y="175.5"/><ellipse cx="22" cy="191.5" fill="#ADD1B2" rx="11" ry="11" style="stroke:#A80036;stroke-width:1.0;"/><path d="M24.4731,197.6431 Q23.8921,197.9419 23.2529,198.0913 Q22.6138,198.2407 21.9082,198.2407 Q19.4014,198.2407 18.0815,196.5889 Q16.7617,194.937 16.7617,191.8159 Q16.7617,188.6865 18.0815,187.0347 Q19.4014,185.3828 21.9082,185.3828 Q22.6138,185.3828 23.2612,185.5322 Q23.9087,185.6816 24.4731,185.9805 L24.4731,188.7031 Q23.8423,188.1221 23.2488,187.8523 Q22.6553,187.5825 22.0244,187.5825 Q20.6797,187.5825 19.9949,188.6492 Q19.3101,189.7158 19.3101,191.8159 Q19.3101,193.9077 19.9949,194.9744 Q20.6797,196.041 22.0244,196.041 Q22.6553,196.041 23.2488,195.7712 Q23.8423,195.5015 24.4731,194.9204 Z " fill="#000000"/><text fill="#000000" font-family="sans-serif" font-size="12" lengthAdjust="spacing" textLength="142" x="36" y="196.0352">discovery:ThingDirectory</text><!--MD5=[02e2853ccf748be19475c5f2583b6311]
class ThingLink--><rect codeLine="4" fill="#FEFECE" filter="url(#fmufin4ramdgt)" height="32" id="ThingLink" style="stroke:#A80036;stroke-width:1.5;" width="145" x="216.5" y="175.5"/><ellipse cx="231.5" cy="191.5" fill="#ADD1B2" rx="11" ry="11" style="stroke:#A80036;stroke-width:1.0;"/><path d="M233.9731,197.6431 Q233.3921,197.9419 232.7529,198.0913 Q232.1138,198.2407 231.4082,198.2407 Q228.9014,198.2407 227.5815,196.5889 Q226.2617,194.937 226.2617,191.8159 Q226.2617,188.6865 227.5815,187.0347 Q228.9014,185.3828 231.4082,185.3828 Q232.1138,185.3828 232.7612,185.5322 Q233.4087,185.6816 233.9731,185.9805 L233.9731,188.7031 Q233.3423,188.1221 232.7488,187.8523 Q232.1553,187.5825 231.5244,187.5825 Q230.1797,187.5825 229.4949,188.6492 Q228.8101,189.7158 228.8101,191.8159 Q228.8101,193.9077 229.4949,194.9744 Q230.1797,196.041 231.5244,196.041 Q232.1553,196.041 232.7488,195.7712 Q233.3423,195.5015 233.9731,194.9204 Z " fill="#000000"/><text fill="#000000" font-family="sans-serif" font-size="12" lengthAdjust="spacing" textLength="113" x="245.5" y="196.0352">discovery:ThingLink</text><!--MD5=[378b90cc04bfe2ab5b7bdbd324672d28]
class RegInfo--><rect codeLine="6" fill="#F0FFFF" filter="url(#fmufin4ramdgt)" height="104.7754" id="RegInfo" style="stroke:#A80036;stroke-width:1.5;" width="223" x="396.5" y="139"/><ellipse cx="411.5" cy="155" fill="#ADD1B2" rx="11" ry="11" style="stroke:#A80036;stroke-width:1.0;"/><path d="M413.9731,161.1431 Q413.3921,161.4419 412.7529,161.5913 Q412.1138,161.7407 411.4082,161.7407 Q408.9014,161.7407 407.5815,160.0889 Q406.2617,158.437 406.2617,155.3159 Q406.2617,152.1865 407.5815,150.5347 Q408.9014,148.8828 411.4082,148.8828 Q412.1138,148.8828 412.7612,149.0322 Q413.4087,149.1816 413.9731,149.4805 L413.9731,152.2031 Q413.3423,151.6221 412.7488,151.3523 Q412.1553,151.0825 411.5244,151.0825 Q410.1797,151.0825 409.4949,152.1492 Q408.8101,153.2158 408.8101,155.3159 Q408.8101,157.4077 409.4949,158.4744 Q410.1797,159.541 411.5244,159.541 Q412.1553,159.541 412.7488,159.2712 Q413.3423,159.0015 413.9731,158.4204 Z " fill="#000000"/><text fill="#000000" font-family="sans-serif" font-size="12" lengthAdjust="spacing" textLength="191" x="425.5" y="159.5352">discovery:RegistrationInformation</text><line style="stroke:#A80036;stroke-width:1.5;" x1="397.5" x2="618.5" y1="171" y2="171"/><text fill="#000000" font-family="sans-serif" font-size="11" lengthAdjust="spacing" textLength="173" x="402.5" y="185.6348">discovery:created : xsd:datetime</text><text fill="#000000" font-family="sans-serif" font-size="11" lengthAdjust="spacing" textLength="180" x="402.5" y="198.5898">discovery:modified : xsd:datetime</text><text fill="#000000" font-family="sans-serif" font-size="11" lengthAdjust="spacing" textLength="173" x="402.5" y="211.5449">discovery:expires : xsd:datetime</text><text fill="#000000" font-family="sans-serif" font-size="11" lengthAdjust="spacing" textLength="136" x="402.5" y="224.5">discovery:ttl : xsd:integer</text><text fill="#000000" font-family="sans-serif" font-size="11" lengthAdjust="spacing" textLength="181" x="402.5" y="237.4551">discovery:retrieved : xsd:datetime</text><path d="M50,21.5 L50,46.8105 A0,0 0 0 0 50,46.8105 L214,46.8105 A0,0 0 0 0 214,46.8105 L214,39.5 L248.9594,34 L214,31.5 L214,31.5 L204,21.5 L50,21.5 A0,0 0 0 0 50,21.5 " fill="#FBFB77" filter="url(#fmufin4ramdgt)" style="stroke:#A80036;stroke-width:1.0;"/><path d="M204,21.5 L204,31.5 L214,31.5 L204,21.5 " fill="#FBFB77" style="stroke:#A80036;stroke-width:1.0;"/><text fill="#000000" font-family="sans-serif" font-size="13" lengthAdjust="spacing" textLength="143" x="56" y="39.0684">Thing Description (TD)</text><path d="M364.5,6 L364.5,61.9316 L733.5,61.9316 L733.5,16 L723.5,6 L364.5,6 " fill="#FBFB77" filter="url(#fmufin4ramdgt)" style="stroke:#A80036;stroke-width:1.0;"/><path d="M723.5,6 L723.5,16 L733.5,16 L723.5,6 " fill="#FBFB77" style="stroke:#A80036;stroke-width:1.0;"/><text fill="#000000" font-family="sans-serif" font-size="13" lengthAdjust="spacing" textLength="54" x="370.5" y="23.5684">Prefixes:</text><text fill="#000000" font-family="sans-serif" font-size="13" lengthAdjust="spacing" textLength="246" x="378.5" y="38.8789">td: https://www.w3.org/2019/wot/td#</text><text fill="#000000" font-family="sans-serif" font-size="13" lengthAdjust="spacing" textLength="340" x="378.5" y="54.1895">discovery: https://www.w3.org/2021/wot/discovery#</text><!--MD5=[d5f59610cc0cc723c8bbc515566a052f]
reverse link Thing to ThingDirectory--><path codeLine="19" d="M253.2633,62.8643 C212.3606,95.901 146.8057,148.8492 114.0244,175.3264 " fill="none" id="Thing-backto-ThingDirectory" style="stroke:#A80036;stroke-width:1.0;"/><polygon fill="none" points="248.9088,57.3832,268.866,50.262,257.7056,68.2744,248.9088,57.3832" style="stroke:#A80036;stroke-width:1.0;"/><!--MD5=[b583c48d99aa5b3cf0e91b6eadef3db4]
reverse link Thing to ThingLink--><path codeLine="20" d="M289,70.3933 C289,103.3787 289,150.4785 289,175.0905 " fill="none" id="Thing-backto-ThingLink" style="stroke:#A80036;stroke-width:1.0;"/><polygon fill="none" points="282.0001,70.2621,289,50.262,296.0001,70.262,282.0001,70.2621" style="stroke:#A80036;stroke-width:1.0;"/><!--MD5=[89fe35fb0672e043d63e3ff0bff4df4b]
link Thing to RegInfo--><path codeLine="21" d="M311.612,50.262 C339.5054,70.3224 388.3926,105.481 430.4109,135.6996 " fill="none" id="Thing-to-RegInfo" style="stroke:#A80036;stroke-width:1.0;"/><polygon fill="#A80036" points="434.7146,138.7947,429.7435,130.2924,430.6554,135.8753,425.0725,136.7872,434.7146,138.7947" style="stroke:#A80036;stroke-width:1.0;"/><text fill="#000000" font-family="sans-serif" font-size="13" lengthAdjust="spacing" textLength="236" x="393" y="105.5684">discovery:hasRegistrationInformation</text><!--MD5=[adbb164c1bc873254b803e4d2e766894]
@startuml
hide members
class Thing as "td:Thing"
class ThingDirectory as "discovery:ThingDirectory"
class ThingLink as "discovery:ThingLink"

class RegInfo as "discovery:RegistrationInformation" #Azure {
  discovery:created : xsd:datetime
  discovery:modified : xsd:datetime
  discovery:expires : xsd:datetime
  discovery:ttl : xsd:integer
  discovery:retrieved : xsd:datetime
}
show RegInfo attributes

note left of Thing
  Thing Description (TD)
end note

Thing <|- - ThingDirectory
Thing <|- - ThingLink
Thing - -> RegInfo : "discovery:hasRegistrationInformation"

note as Prefixes
Prefixes:
  td: https://www.w3.org/2019/wot/td#
  discovery: https://www.w3.org/2021/wot/discovery#
end note
@enduml

PlantUML version 1.2021.00(Sun Jan 10 11:25:05 CET 2021)
(GPL source distribution)
Java Runtime: Java(TM) SE Runtime Environment
JVM: Java HotSpot(TM) 64-Bit Server VM
Default Encoding: UTF-8
Language: en
Country: US
--></g></svg>