<?xml version="1.0" encoding="UTF-8" standalone="no"?><svg xmlns="http://www.w3.org/2000/svg" xmlns:xlink="http://www.w3.org/1999/xlink" contentScriptType="application/ecmascript" contentStyleType="text/css" height="360px" preserveAspectRatio="none" style="width:387px;height:360px;" version="1.1" viewBox="0 0 387 360" width="387px" zoomAndPan="magnify"><defs><filter height="300%" id="f1xqecok97cr2q" width="300%" x="-1" y="-1"><feGaussianBlur result="blurOut" stdDeviation="2.0"/><feColorMatrix in="blurOut" result="blurOut2" type="matrix" values="0 0 0 0 0 0 0 0 0 0 0 0 0 0 0 0 0 0 .4 0"/><feOffset dx="4.0" dy="4.0" in="blurOut2" result="blurOut3"/><feBlend in="SourceGraphic" in2="blurOut3" mode="normal"/></filter></defs><g><!--MD5=[0c8f81674d0e9026104f104b6fbe6eff]
class SelfDesc--><rect codeLine="7" fill="#FEFECE" filter="url(#f1xqecok97cr2q)" height="38.2656" id="SelfDesc" style="stroke:#A80036;stroke-width:1.5;" width="155" x="21.5" y="106"/><ellipse cx="36.5" cy="125.1328" fill="#ADD1B2" rx="11" ry="11" style="stroke:#A80036;stroke-width:1.0;"/><path d="M38.9731,131.2759 Q38.3921,131.5747 37.7529,131.7241 Q37.1138,131.8735 36.4082,131.8735 Q33.9014,131.8735 32.5815,130.2217 Q31.2617,128.5698 31.2617,125.4487 Q31.2617,122.3193 32.5815,120.6675 Q33.9014,119.0156 36.4082,119.0156 Q37.1138,119.0156 37.7612,119.165 Q38.4087,119.3145 38.9731,119.6133 L38.9731,122.3359 Q38.3423,121.7549 37.7488,121.4851 Q37.1553,121.2153 36.5244,121.2153 Q35.1797,121.2153 34.4949,122.282 Q33.8101,123.3486 33.8101,125.4487 Q33.8101,127.5405 34.4949,128.6072 Q35.1797,129.6738 36.5244,129.6738 Q37.1553,129.6738 37.7488,129.4041 Q38.3423,129.1343 38.9731,128.5532 Z " fill="#000000"/><text fill="#000000" font-family="sans-serif" font-size="12" font-style="italic" lengthAdjust="spacing" textLength="52" x="86" y="122.6016">«service»</text><text fill="#000000" font-family="sans-serif" font-size="12" lengthAdjust="spacing" textLength="123" x="50.5" y="136.7344">Self-describing Thing</text><!--MD5=[9bd2b2bc45261200a440e1ecb7c43192]
class Directory--><rect codeLine="8" fill="#FEFECE" filter="url(#f1xqecok97cr2q)" height="38.2656" id="Directory" style="stroke:#A80036;stroke-width:1.5;" width="84" x="212" y="106"/><ellipse cx="227" cy="125.1328" fill="#ADD1B2" rx="11" ry="11" style="stroke:#A80036;stroke-width:1.0;"/><path d="M229.4731,131.2759 Q228.8921,131.5747 228.2529,131.7241 Q227.6138,131.8735 226.9082,131.8735 Q224.4014,131.8735 223.0815,130.2217 Q221.7617,128.5698 221.7617,125.4487 Q221.7617,122.3193 223.0815,120.6675 Q224.4014,119.0156 226.9082,119.0156 Q227.6138,119.0156 228.2612,119.165 Q228.9087,119.3145 229.4731,119.6133 L229.4731,122.3359 Q228.8423,121.7549 228.2488,121.4851 Q227.6553,121.2153 227.0244,121.2153 Q225.6797,121.2153 224.9949,122.282 Q224.3101,123.3486 224.3101,125.4487 Q224.3101,127.5405 224.9949,128.6072 Q225.6797,129.6738 227.0244,129.6738 Q227.6553,129.6738 228.2488,129.4041 Q228.8423,129.1343 229.4731,128.5532 Z " fill="#000000"/><text fill="#000000" font-family="sans-serif" font-size="12" font-style="italic" lengthAdjust="spacing" textLength="52" x="241" y="122.6016">«service»</text><text fill="#000000" font-family="sans-serif" font-size="12" lengthAdjust="spacing" textLength="52" x="241" y="136.7344">Directory</text><!--MD5=[5f26c86091fa2c90ec21445571d1772b]
class ThingDirectory--><rect codeLine="14" fill="#FEFECE" filter="url(#f1xqecok97cr2q)" height="32" id="ThingDirectory" style="stroke:#A80036;stroke-width:1.5;" width="174" x="7" y="314"/><ellipse cx="22" cy="330" fill="#ADD1B2" rx="11" ry="11" style="stroke:#A80036;stroke-width:1.0;"/><path d="M24.4731,336.1431 Q23.8921,336.4419 23.2529,336.5913 Q22.6138,336.7407 21.9082,336.7407 Q19.4014,336.7407 18.0815,335.0889 Q16.7617,333.437 16.7617,330.3159 Q16.7617,327.1865 18.0815,325.5347 Q19.4014,323.8828 21.9082,323.8828 Q22.6138,323.8828 23.2612,324.0322 Q23.9087,324.1816 24.4731,324.4805 L24.4731,327.2031 Q23.8423,326.6221 23.2488,326.3523 Q22.6553,326.0825 22.0244,326.0825 Q20.6797,326.0825 19.9949,327.1492 Q19.3101,328.2158 19.3101,330.3159 Q19.3101,332.4077 19.9949,333.4744 Q20.6797,334.541 22.0244,334.541 Q22.6553,334.541 23.2488,334.2712 Q23.8423,334.0015 24.4731,333.4204 Z " fill="#000000"/><text fill="#000000" font-family="sans-serif" font-size="12" lengthAdjust="spacing" textLength="142" x="36" y="334.5352">discovery:ThingDirectory</text><!--MD5=[02e2853ccf748be19475c5f2583b6311]
class ThingLink--><rect codeLine="17" fill="#FEFECE" filter="url(#f1xqecok97cr2q)" height="32" id="ThingLink" style="stroke:#A80036;stroke-width:1.5;" width="145" x="216.5" y="314"/><ellipse cx="231.5" cy="330" fill="#ADD1B2" rx="11" ry="11" style="stroke:#A80036;stroke-width:1.0;"/><path d="M233.9731,336.1431 Q233.3921,336.4419 232.7529,336.5913 Q232.1138,336.7407 231.4082,336.7407 Q228.9014,336.7407 227.5815,335.0889 Q226.2617,333.437 226.2617,330.3159 Q226.2617,327.1865 227.5815,325.5347 Q228.9014,323.8828 231.4082,323.8828 Q232.1138,323.8828 232.7612,324.0322 Q233.4087,324.1816 233.9731,324.4805 L233.9731,327.2031 Q233.3423,326.6221 232.7488,326.3523 Q232.1553,326.0825 231.5244,326.0825 Q230.1797,326.0825 229.4949,327.1492 Q228.8101,328.2158 228.8101,330.3159 Q228.8101,332.4077 229.4949,333.4744 Q230.1797,334.541 231.5244,334.541 Q232.1553,334.541 232.7488,334.2712 Q233.3423,334.0015 233.9731,333.4204 Z " fill="#000000"/><text fill="#000000" font-family="sans-serif" font-size="12" lengthAdjust="spacing" textLength="113" x="245.5" y="334.5352">discovery:ThingLink</text><!--MD5=[1053da7555f32ea3c982e01119b403ff]
class Thing--><rect codeLine="5" fill="#FEFECE" filter="url(#f1xqecok97cr2q)" height="38.2656" id="Thing" style="stroke:#A80036;stroke-width:1.5;" width="80" x="136" y="7"/><ellipse cx="151" cy="26.1328" fill="#ADD1B2" rx="11" ry="11" style="stroke:#A80036;stroke-width:1.0;"/><path d="M153.4731,32.2759 Q152.8921,32.5747 152.2529,32.7241 Q151.6138,32.8735 150.9082,32.8735 Q148.4014,32.8735 147.0815,31.2217 Q145.7617,29.5698 145.7617,26.4487 Q145.7617,23.3193 147.0815,21.6675 Q148.4014,20.0156 150.9082,20.0156 Q151.6138,20.0156 152.2612,20.165 Q152.9087,20.3145 153.4731,20.6133 L153.4731,23.3359 Q152.8423,22.7549 152.2488,22.4851 Q151.6553,22.2153 151.0244,22.2153 Q149.6797,22.2153 148.9949,23.282 Q148.3101,24.3486 148.3101,26.4487 Q148.3101,28.5405 148.9949,29.6072 Q149.6797,30.6738 151.0244,30.6738 Q151.6553,30.6738 152.2488,30.4041 Q152.8423,30.1343 153.4731,29.5532 Z " fill="#000000"/><text fill="#000000" font-family="sans-serif" font-size="12" font-style="italic" lengthAdjust="spacing" textLength="52" x="163" y="23.6016">«service»</text><text fill="#000000" font-family="sans-serif" font-size="12" lengthAdjust="spacing" textLength="32" x="173" y="37.7344">Thing</text><!--MD5=[f66eb5cd0a27e450a5267fbcb4094f6d]
class TD--><rect codeLine="11" fill="#FEFECE" filter="url(#f1xqecok97cr2q)" height="32" id="TD" style="stroke:#A80036;stroke-width:1.5;" width="80" x="99" y="221"/><ellipse cx="114" cy="237" fill="#ADD1B2" rx="11" ry="11" style="stroke:#A80036;stroke-width:1.0;"/><path d="M116.4731,243.1431 Q115.8921,243.4419 115.2529,243.5913 Q114.6138,243.7407 113.9082,243.7407 Q111.4014,243.7407 110.0815,242.0889 Q108.7617,240.437 108.7617,237.3159 Q108.7617,234.1865 110.0815,232.5347 Q111.4014,230.8828 113.9082,230.8828 Q114.6138,230.8828 115.2612,231.0322 Q115.9087,231.1816 116.4731,231.4805 L116.4731,234.2031 Q115.8423,233.6221 115.2488,233.3523 Q114.6553,233.0825 114.0244,233.0825 Q112.6797,233.0825 111.9949,234.1492 Q111.3101,235.2158 111.3101,237.3159 Q111.3101,239.4077 111.9949,240.4744 Q112.6797,241.541 114.0244,241.541 Q114.6553,241.541 115.2488,241.2712 Q115.8423,241.0015 116.4731,240.4204 Z " fill="#000000"/><text fill="#000000" font-family="sans-serif" font-size="12" lengthAdjust="spacing" textLength="48" x="128" y="241.5352">td:Thing</text><path d="M214,224.5 L214,233 L179.1699,237 L214,241 L214,249.8105 A0,0 0 0 0 214,249.8105 L378,249.8105 A0,0 0 0 0 378,249.8105 L378,234.5 L368,224.5 L214,224.5 A0,0 0 0 0 214,224.5 " fill="#FBFB77" filter="url(#f1xqecok97cr2q)" style="stroke:#A80036;stroke-width:1.0;"/><path d="M368,224.5 L368,234.5 L378,234.5 L368,224.5 " fill="#FBFB77" style="stroke:#A80036;stroke-width:1.0;"/><text fill="#000000" font-family="sans-serif" font-size="13" lengthAdjust="spacing" textLength="143" x="220" y="242.0684">Thing Description (TD)</text><!--MD5=[88221bcd57db51459cd4199f69591b42]
reverse link Thing to SelfDesc--><path codeLine="22" d="M148.7837,60.9924 C137.0122,76.1272 123.697,93.2468 113.8008,105.9704 " fill="none" id="Thing-backto-SelfDesc" style="stroke:#A80036;stroke-width:1.0;"/><polygon fill="none" points="143.3493,56.5777,161.1536,45.0882,154.4002,65.1729,143.3493,56.5777" style="stroke:#A80036;stroke-width:1.0;"/><!--MD5=[6811a1fa3166692e42720dcd61a45561]
reverse link Thing to Directory--><path codeLine="23" d="M203.5698,60.9924 C215.4941,76.1272 228.9823,93.2468 239.007,105.9704 " fill="none" id="Thing-backto-Directory" style="stroke:#A80036;stroke-width:1.0;"/><polygon fill="none" points="197.9182,65.1302,191.0392,45.0882,208.9151,56.4659,197.9182,65.1302" style="stroke:#A80036;stroke-width:1.0;"/><!--MD5=[962830750a9a6ad5a90804d94990eddc]
link SelfDesc to TD--><path codeLine="24" d="M105.8762,144.2535 C113.0313,164.2876 124.1984,195.5556 131.557,216.1597 " fill="none" id="SelfDesc-to-TD" style="stroke:#A80036;stroke-width:1.0;"/><polygon fill="#A80036" points="133.2494,220.8982,133.9893,211.0772,131.5677,216.1895,126.4554,213.7679,133.2494,220.8982" style="stroke:#A80036;stroke-width:1.0;"/><text fill="#000000" font-family="sans-serif" font-size="13" lengthAdjust="spacing" textLength="54" x="123" y="187.5684">provides</text><text fill="#000000" font-family="sans-serif" font-size="13" lengthAdjust="spacing" textLength="8" x="98.7211" y="164.6873">1</text><text fill="#000000" font-family="sans-serif" font-size="13" lengthAdjust="spacing" textLength="8" x="112.3507" y="210.1137">1</text><!--MD5=[903f59b3d5203a021dd47959fe20ada9]
reverse link TD to ThingDirectory--><path codeLine="25" d="M122.3366,271.4378 C115.2813,286.0186 107.4035,302.2993 101.7486,313.9863 " fill="none" id="TD-backto-ThingDirectory" style="stroke:#A80036;stroke-width:1.0;"/><polygon fill="none" points="116.1492,268.1536,131.1616,253.1994,128.7514,274.2515,116.1492,268.1536" style="stroke:#A80036;stroke-width:1.0;"/><!--MD5=[f44e6f6ac7ff5fc761042fd22fe8d739]
reverse link TD to ThingLink--><path codeLine="26" d="M182.4285,263.9257 C208.5821,280.1409 241.0014,300.2408 263.1714,313.9863 " fill="none" id="TD-backto-ThingLink" style="stroke:#A80036;stroke-width:1.0;"/><polygon fill="none" points="178.4375,269.6875,165.128,253.1994,185.8147,257.7889,178.4375,269.6875" style="stroke:#A80036;stroke-width:1.0;"/><!--MD5=[22095c50f58adeae0dd4a30b6d5b7e14]
link Directory to TD--><path codeLine="27" d="M234.2308,144.2535 C213.3129,164.6257 180.4675,196.6143 159.3368,217.1937 " fill="none" id="Directory-to-TD" style="stroke:#A80036;stroke-width:1.0;"/><polygon fill="#A80036" points="155.5331,220.8982,164.7714,217.4844,159.115,217.4097,159.1898,211.7533,155.5331,220.8982" style="stroke:#A80036;stroke-width:1.0;"/><text fill="#000000" font-family="sans-serif" font-size="13" lengthAdjust="spacing" textLength="54" x="204" y="187.5684">contains</text><text fill="#000000" font-family="sans-serif" font-size="13" lengthAdjust="spacing" textLength="8" x="205.4861" y="164.6873">1</text><text fill="#000000" font-family="sans-serif" font-size="13" lengthAdjust="spacing" textLength="22" x="179.4793" y="210.1137">0..*</text><!--MD5=[34aba5d5731d763a1b456d64ca1e6975]
@startuml exploration-class-diagram
/' global configurations '/
hide methods
hide members

class Thing <<service>>
together {
    class SelfDesc as "Self-describing Thing" <<service>>
    class Directory <<service>>
}

class TD as "td:Thing"
note right: Thing Description (TD)
together {
    class ThingDirectory as "discovery:ThingDirectory"
    ' note bottom: TD that describes\na Directory

    class ThingLink as "discovery:ThingLink"
    ' note bottom: TD that describes\na reference to another TD
}

/' relations '/
Thing <|- - SelfDesc
Thing <|- - Directory
SelfDesc "1" - -> "1  " TD: provides
TD <|- - ThingDirectory
TD <|- - ThingLink
Directory "1   " - -> "   0..*" TD: contains


@enduml

@startuml exploration-class-diagram
hide methods
hide members

class Thing <<service>>
together {
    class SelfDesc as "Self-describing Thing" <<service>>
    class Directory <<service>>
}

class TD as "td:Thing"
note right: Thing Description (TD)
together {
    class ThingDirectory as "discovery:ThingDirectory"

    class ThingLink as "discovery:ThingLink"
}

Thing <|- - SelfDesc
Thing <|- - Directory
SelfDesc "1" - -> "1  " TD: provides
TD <|- - ThingDirectory
TD <|- - ThingLink
Directory "1   " - -> "   0..*" TD: contains


@enduml

PlantUML version 1.2021.00(Sun Jan 10 11:25:05 CET 2021)
(GPL source distribution)
Java Runtime: Java(TM) SE Runtime Environment
JVM: Java HotSpot(TM) 64-Bit Server VM
Default Encoding: UTF-8
Language: en
Country: US
--></g></svg>