<?xml version="1.0" encoding="UTF-8" standalone="no"?><svg xmlns="http://www.w3.org/2000/svg" xmlns:xlink="http://www.w3.org/1999/xlink" contentStyleType="text/css" height="369px" preserveAspectRatio="none" style="width:449px;height:369px;background:#FFFFFF;" version="1.1" viewBox="0 0 449 369" width="449px" zoomAndPan="magnify"><defs/><g><!--MD5=[0c8f81674d0e9026104f104b6fbe6eff]
class SelfDesc--><g id="elem_SelfDesc"><rect codeLine="7" fill="#F1F1F1" height="40.2656" id="SelfDesc" rx="2.5" ry="2.5" style="stroke:#181818;stroke-width:0.5;" width="185" x="208.5" y="110"/><ellipse cx="223.5" cy="130.1328" fill="#EB937F" rx="11" ry="11" style="stroke:#A80036;stroke-width:1.0;"/><path d="M227.2813,126.1016 C227.2813,125.6641 227.2656,125.5234 227.1719,125.3672 C227.0313,125.1328 226.75,124.9766 226.4531,124.9766 C226.1094,124.9766 225.9688,125.1172 225.7969,125.5391 C225.2031,125.1641 224.4531,124.9766 223.5781,124.9766 C221.4688,124.9766 219.8906,126.2734 219.8906,127.9922 C219.8906,128.9609 220.4219,129.8672 221.2813,130.3516 C221.8281,130.6641 222.375,130.8359 223.4844,131.0234 C224.6406,131.2266 224.9063,131.2891 225.2656,131.4766 C225.6406,131.6797 225.875,132.0234 225.875,132.3828 C225.875,133.1172 224.8906,133.6641 223.6406,133.6641 C222.5156,133.6641 221.4375,133.1797 221.2656,132.5703 C221.1406,132.1016 221.1406,132.1016 221.0156,131.9922 C220.8594,131.8359 220.6406,131.7422 220.4063,131.7422 C220.125,131.7422 219.875,131.8672 219.7031,132.0859 C219.5938,132.2578 219.5469,132.4453 219.5469,132.8672 L219.5469,133.9922 C219.5469,134.7578 219.8281,135.1172 220.4219,135.1172 C220.6875,135.1172 220.8125,135.0547 221.0938,134.7109 C221.9375,135.1484 222.8281,135.3672 223.75,135.3672 C226.0781,135.3672 227.6406,134.1797 227.6406,132.4141 C227.6406,131.5234 227.3281,130.8359 226.6406,130.2891 C226.1094,129.8672 225.4688,129.6172 223.9844,129.3516 C222.7188,129.1172 222.625,129.0859 222.2969,128.9141 C221.9219,128.7266 221.6563,128.3359 221.6563,127.9766 C221.6563,127.2422 222.5156,126.6797 223.5781,126.6797 C224.6406,126.6797 225.4531,127.1484 225.6094,127.8203 C225.7188,128.3672 225.7188,128.3672 225.8438,128.5078 C225.9844,128.6328 226.2188,128.7422 226.4531,128.7422 C226.7188,128.7422 226.9688,128.6016 227.1406,128.3828 C227.25,128.2109 227.2813,128.0703 227.2813,127.6016 L227.2813,126.1016 Z " fill="#000000"/><text fill="#000000" font-family="sans-serif" font-size="12" font-style="italic" lengthAdjust="spacing" textLength="56" x="286" y="126.1387">«service»</text><text fill="#000000" font-family="sans-serif" font-size="14" lengthAdjust="spacing" textLength="153" x="237.5" y="141.9639">Self-describing Thing</text></g><!--MD5=[9bd2b2bc45261200a440e1ecb7c43192]
class Directory--><g id="elem_Directory"><rect codeLine="8" fill="#F1F1F1" height="40.2656" id="Directory" rx="2.5" ry="2.5" style="stroke:#181818;stroke-width:0.5;" width="100" x="294" y="211"/><ellipse cx="309" cy="231.1328" fill="#EB937F" rx="11" ry="11" style="stroke:#A80036;stroke-width:1.0;"/><path d="M312.7813,227.1016 C312.7813,226.6641 312.7656,226.5234 312.6719,226.3672 C312.5313,226.1328 312.25,225.9766 311.9531,225.9766 C311.6094,225.9766 311.4688,226.1172 311.2969,226.5391 C310.7031,226.1641 309.9531,225.9766 309.0781,225.9766 C306.9688,225.9766 305.3906,227.2734 305.3906,228.9922 C305.3906,229.9609 305.9219,230.8672 306.7813,231.3516 C307.3281,231.6641 307.875,231.8359 308.9844,232.0234 C310.1406,232.2266 310.4063,232.2891 310.7656,232.4766 C311.1406,232.6797 311.375,233.0234 311.375,233.3828 C311.375,234.1172 310.3906,234.6641 309.1406,234.6641 C308.0156,234.6641 306.9375,234.1797 306.7656,233.5703 C306.6406,233.1016 306.6406,233.1016 306.5156,232.9922 C306.3594,232.8359 306.1406,232.7422 305.9063,232.7422 C305.625,232.7422 305.375,232.8672 305.2031,233.0859 C305.0938,233.2578 305.0469,233.4453 305.0469,233.8672 L305.0469,234.9922 C305.0469,235.7578 305.3281,236.1172 305.9219,236.1172 C306.1875,236.1172 306.3125,236.0547 306.5938,235.7109 C307.4375,236.1484 308.3281,236.3672 309.25,236.3672 C311.5781,236.3672 313.1406,235.1797 313.1406,233.4141 C313.1406,232.5234 312.8281,231.8359 312.1406,231.2891 C311.6094,230.8672 310.9688,230.6172 309.4844,230.3516 C308.2188,230.1172 308.125,230.0859 307.7969,229.9141 C307.4219,229.7266 307.1563,229.3359 307.1563,228.9766 C307.1563,228.2422 308.0156,227.6797 309.0781,227.6797 C310.1406,227.6797 310.9531,228.1484 311.1094,228.8203 C311.2188,229.3672 311.2188,229.3672 311.3438,229.5078 C311.4844,229.6328 311.7188,229.7422 311.9531,229.7422 C312.2188,229.7422 312.4688,229.6016 312.6406,229.3828 C312.75,229.2109 312.7813,229.0703 312.7813,228.6016 L312.7813,227.1016 Z " fill="#000000"/><text fill="#000000" font-family="sans-serif" font-size="12" font-style="italic" lengthAdjust="spacing" textLength="56" x="329" y="227.1387">«service»</text><text fill="#000000" font-family="sans-serif" font-size="14" lengthAdjust="spacing" textLength="68" x="323" y="242.9639">Directory</text></g><!--MD5=[1053da7555f32ea3c982e01119b403ff]
class Thing--><g id="elem_Thing"><rect codeLine="5" fill="#F1F1F1" height="40.2656" id="Thing" rx="2.5" ry="2.5" style="stroke:#181818;stroke-width:0.5;" width="84" x="358" y="7"/><ellipse cx="373" cy="27.1328" fill="#EB937F" rx="11" ry="11" style="stroke:#A80036;stroke-width:1.0;"/><path d="M376.7813,23.1016 C376.7813,22.6641 376.7656,22.5234 376.6719,22.3672 C376.5313,22.1328 376.25,21.9766 375.9531,21.9766 C375.6094,21.9766 375.4688,22.1172 375.2969,22.5391 C374.7031,22.1641 373.9531,21.9766 373.0781,21.9766 C370.9688,21.9766 369.3906,23.2734 369.3906,24.9922 C369.3906,25.9609 369.9219,26.8672 370.7813,27.3516 C371.3281,27.6641 371.875,27.8359 372.9844,28.0234 C374.1406,28.2266 374.4063,28.2891 374.7656,28.4766 C375.1406,28.6797 375.375,29.0234 375.375,29.3828 C375.375,30.1172 374.3906,30.6641 373.1406,30.6641 C372.0156,30.6641 370.9375,30.1797 370.7656,29.5703 C370.6406,29.1016 370.6406,29.1016 370.5156,28.9922 C370.3594,28.8359 370.1406,28.7422 369.9063,28.7422 C369.625,28.7422 369.375,28.8672 369.2031,29.0859 C369.0938,29.2578 369.0469,29.4453 369.0469,29.8672 L369.0469,30.9922 C369.0469,31.7578 369.3281,32.1172 369.9219,32.1172 C370.1875,32.1172 370.3125,32.0547 370.5938,31.7109 C371.4375,32.1484 372.3281,32.3672 373.25,32.3672 C375.5781,32.3672 377.1406,31.1797 377.1406,29.4141 C377.1406,28.5234 376.8281,27.8359 376.1406,27.2891 C375.6094,26.8672 374.9688,26.6172 373.4844,26.3516 C372.2188,26.1172 372.125,26.0859 371.7969,25.9141 C371.4219,25.7266 371.1563,25.3359 371.1563,24.9766 C371.1563,24.2422 372.0156,23.6797 373.0781,23.6797 C374.1406,23.6797 374.9531,24.1484 375.1094,24.8203 C375.2188,25.3672 375.2188,25.3672 375.3438,25.5078 C375.4844,25.6328 375.7188,25.7422 375.9531,25.7422 C376.2188,25.7422 376.4688,25.6016 376.6406,25.3828 C376.75,25.2109 376.7813,25.0703 376.7813,24.6016 L376.7813,23.1016 Z " fill="#000000"/><text fill="#000000" font-family="sans-serif" font-size="12" font-style="italic" lengthAdjust="spacing" textLength="56" x="385" y="23.1387">«service»</text><text fill="#000000" font-family="sans-serif" font-size="14" lengthAdjust="spacing" textLength="40" x="393" y="38.9639">Thing</text></g><!--MD5=[f66eb5cd0a27e450a5267fbcb4094f6d]
class TD--><g id="elem_TD"><rect codeLine="11" fill="#F0FFFF" height="32" id="TD" rx="2.5" ry="2.5" style="stroke:#181818;stroke-width:0.5;" width="93" x="205.5" y="330"/><ellipse cx="220.5" cy="346" fill="#ADD1B2" rx="11" ry="11" style="stroke:#181818;stroke-width:1.0;"/><path d="M222.8438,341.6719 C221.9063,341.2344 221.3125,341.0938 220.4375,341.0938 C217.8125,341.0938 215.8125,343.1719 215.8125,345.8906 L215.8125,347.0156 C215.8125,349.5938 217.9219,351.4844 220.8125,351.4844 C222.0313,351.4844 223.1875,351.1875 223.9375,350.6406 C224.5156,350.2344 224.8438,349.7813 224.8438,349.3906 C224.8438,348.9375 224.4531,348.5469 223.9844,348.5469 C223.7656,348.5469 223.5625,348.625 223.375,348.8125 C222.9219,349.2969 222.9219,349.2969 222.7344,349.3906 C222.3125,349.6563 221.625,349.7813 220.8594,349.7813 C218.8125,349.7813 217.5156,348.6875 217.5156,346.9844 L217.5156,345.8906 C217.5156,344.1094 218.7656,342.7969 220.5,342.7969 C221.0781,342.7969 221.6875,342.9531 222.1563,343.2031 C222.6406,343.4844 222.8125,343.7031 222.9063,344.1094 C222.9688,344.5156 223,344.6406 223.1406,344.7656 C223.2813,344.9063 223.5156,345.0156 223.7344,345.0156 C224,345.0156 224.2656,344.875 224.4375,344.6563 C224.5469,344.5 224.5781,344.3125 224.5781,343.8906 L224.5781,342.4688 C224.5781,342.0313 224.5625,341.9063 224.4688,341.75 C224.3125,341.4844 224.0313,341.3438 223.7344,341.3438 C223.4375,341.3438 223.2344,341.4375 223.0156,341.75 L222.8438,341.6719 Z " fill="#000000"/><text fill="#000000" font-family="sans-serif" font-size="14" lengthAdjust="spacing" textLength="61" x="234.5" y="350.8467">td:Thing</text></g><g id="elem_GMN1220394"><path d="M6,333.5 L6,358.6328 A0,0 0 0 0 6,358.6328 L170,358.6328 A0,0 0 0 0 170,358.6328 L170,351.5 L205.417,346 L170,343.5 L170,343.5 L160,333.5 L6,333.5 A0,0 0 0 0 6,333.5 " fill="#FEFFDD" style="stroke:#181818;stroke-width:0.5;"/><path d="M160,333.5 L160,343.5 L170,343.5 L160,333.5 " fill="#FEFFDD" style="stroke:#181818;stroke-width:0.5;"/><text fill="#000000" font-family="sans-serif" font-size="13" lengthAdjust="spacing" textLength="143" x="12" y="350.5669">Thing Description (TD)</text></g><!--MD5=[88221bcd57db51459cd4199f69591b42]
reverse link Thing to SelfDesc--><g id="link_Thing_SelfDesc"><path codeLine="15" d="M366.853,61.817 C351.148,77.839 332.968,96.386 319.694,109.928 " fill="none" id="Thing-backto-SelfDesc" style="stroke:#181818;stroke-width:1.0;"/><polygon fill="none" points="361.913,56.857,380.912,47.474,371.911,66.657,361.913,56.857" style="stroke:#181818;stroke-width:1.0;"/></g><!--MD5=[6811a1fa3166692e42720dcd61a45561]
reverse link Thing to Directory--><g id="link_Thing_Directory"><path codeLine="16" d="M411.853,66.946 C417.308,91.464 420.671,123.391 411,150 C402.213,174.178 382.559,196.148 366.798,210.92 " fill="none" id="Thing-backto-Directory" style="stroke:#181818;stroke-width:1.0;"/><polygon fill="none" points="404.991,68.375,406.682,47.253,418.532,64.819,404.991,68.375" style="stroke:#181818;stroke-width:1.0;"/></g><!--MD5=[16fea26bca209c4af983e1770bac00de]
reverse link SelfDesc to Directory--><g id="link_SelfDesc_Directory"><path codeLine="17" d="M317.266,168.45 C323.566,182.955 330.505,198.931 335.735,210.97 " fill="none" id="SelfDesc-backto-Directory" style="stroke:#181818;stroke-width:1.0;"/><polygon fill="none" points="310.838,171.221,309.291,150.088,323.679,165.644,310.838,171.221" style="stroke:#181818;stroke-width:1.0;"/></g><!--MD5=[962830750a9a6ad5a90804d94990eddc]
link SelfDesc to TD--><g id="link_SelfDesc_TD"><path codeLine="18" d="M271.939,150.281 C253.232,164.552 230.516,185.833 220,211 C203.786,249.803 224.94,298.5164 239.78,325.2219 " fill="none" id="SelfDesc-to-TD" style="stroke:#181818;stroke-width:1.0;"/><polygon fill="#181818" points="242.283,329.6296,241.3154,319.8284,239.8133,325.2821,234.3595,323.78,242.283,329.6296" style="stroke:#181818;stroke-width:1.0;"/><text fill="#000000" font-family="sans-serif" font-size="13" lengthAdjust="spacing" textLength="55" x="221" y="235.5669">provides</text><text fill="#000000" font-family="sans-serif" font-size="13" lengthAdjust="spacing" textLength="8" x="254.2273" y="170.4891">1</text><text fill="#000000" font-family="sans-serif" font-size="13" lengthAdjust="spacing" textLength="8" x="220.4142" y="318.8114">1</text></g><!--MD5=[22095c50f58adeae0dd4a30b6d5b7e14]
link Directory to TD--><g id="link_Directory_TD"><path codeLine="19" d="M328.393,251.169 C311.476,271.9482 284.631,304.9211 267.683,325.7371 " fill="none" id="Directory-to-TD" style="stroke:#181818;stroke-width:1.0;"/><polygon fill="#181818" points="264.431,329.7309,273.2154,325.2773,267.588,325.8536,267.0117,320.2262,264.431,329.7309" style="stroke:#181818;stroke-width:1.0;"/><text fill="#000000" font-family="sans-serif" font-size="13" lengthAdjust="spacing" textLength="54" x="301" y="296.0669">contains</text><text fill="#000000" font-family="sans-serif" font-size="13" lengthAdjust="spacing" textLength="8" x="300.8709" y="271.3442">1</text><text fill="#000000" font-family="sans-serif" font-size="13" lengthAdjust="spacing" textLength="23" x="286.3456" y="318.9463">0..*</text></g><!--MD5=[2ec67860a5b8f142879a2db05f74c89b]
@startuml
/' global configurations '/
hide methods
hide members

class Thing <<(S,#eb937f) service>>
together {
    class SelfDesc as "Self-describing Thing" <<(S,#eb937f) service>>
    class Directory <<(S,#eb937f) service>>
}

class TD as "td:Thing" #Azure
note left: Thing Description (TD)

/' relations '/
Thing <|- - SelfDesc
Thing <|- - Directory
SelfDesc <|- - Directory
SelfDesc "1" - -> "1  " TD: provides
Directory "1   " - -> "   0..*" TD: contains
@enduml

@startuml
hide methods
hide members

class Thing <<(S,#eb937f) service>>
together {
    class SelfDesc as "Self-describing Thing" <<(S,#eb937f) service>>
    class Directory <<(S,#eb937f) service>>
}

class TD as "td:Thing" #Azure
note left: Thing Description (TD)

Thing <|- - SelfDesc
Thing <|- - Directory
SelfDesc <|- - Directory
SelfDesc "1" - -> "1  " TD: provides
Directory "1   " - -> "   0..*" TD: contains
@enduml

PlantUML version 1.2022.6beta1(Unknown compile time)
(GPL source distribution)
Java Runtime: Java(TM) SE Runtime Environment
JVM: Java HotSpot(TM) 64-Bit Server VM
Default Encoding: UTF-8
Language: en
Country: US
--></g></svg>