<?xml version="1.0" encoding="UTF-8" standalone="no"?><svg xmlns="http://www.w3.org/2000/svg" xmlns:xlink="http://www.w3.org/1999/xlink" contentStyleType="text/css" height="268px" preserveAspectRatio="none" style="width:600px;height:268px;background:#FFFFFF;" version="1.1" viewBox="0 0 600 268" width="600px" zoomAndPan="magnify"><defs/><g><!--MD5=[0c8f81674d0e9026104f104b6fbe6eff]
class SelfDesc--><g id="elem_SelfDesc"><rect codeLine="9" fill="#F1F1F1" height="40.2656" id="SelfDesc" rx="2.5" ry="2.5" style="stroke:#181818;stroke-width:0.5;" width="179" x="158.5" y="110"/><ellipse cx="173.5" cy="130.1328" fill="#EB937F" rx="11" ry="11" style="stroke:#A80036;stroke-width:1.0;"/><path d="M172.9844,130.6953 Q171.125,129.9922 170.4688,129.2266 Q169.8281,128.4453 169.8281,127.1328 Q169.8281,125.4453 170.9063,124.4766 Q171.9844,123.5078 173.8594,123.5078 Q174.7188,123.5078 175.5625,123.7109 Q176.4219,123.8984 177.2656,124.2891 L177.2656,126.6797 Q176.4844,126.1172 175.6563,125.8359 Q174.8438,125.5391 174.0469,125.5391 Q173.1719,125.5391 172.6875,125.8984 Q172.2188,126.2578 172.2188,126.9141 Q172.2188,127.4297 172.5625,127.7734 Q172.9063,128.1016 174,128.5078 L175.0625,128.9141 Q176.5469,129.4609 177.25,130.3672 Q177.9688,131.2734 177.9688,132.6484 Q177.9688,134.5234 176.8594,135.4453 Q175.75,136.3672 173.5,136.3672 Q172.5781,136.3672 171.6563,136.1484 Q170.7344,135.9297 169.875,135.5078 L169.875,132.9766 Q170.8438,133.6641 171.7656,134.0078 Q172.6875,134.3516 173.5781,134.3516 Q174.4844,134.3516 174.9844,133.9453 Q175.4844,133.5234 175.4844,132.7891 Q175.4844,132.2266 175.1406,131.8203 Q174.8125,131.3984 174.1875,131.1484 L172.9844,130.6953 Z " fill="#000000"/><text fill="#000000" font-family="sans-serif" font-size="12" font-style="italic" lengthAdjust="spacing" textLength="57" x="232.5" y="126.1387">«service»</text><text fill="#000000" font-family="sans-serif" font-size="14" lengthAdjust="spacing" textLength="147" x="187.5" y="141.9639">Self-Describing Thing</text></g><!--MD5=[9bd2b2bc45261200a440e1ecb7c43192]
class Directory--><g id="elem_Directory"><rect codeLine="10" fill="#F1F1F1" height="40.2656" id="Directory" rx="2.5" ry="2.5" style="stroke:#181818;stroke-width:0.5;" width="220" x="373" y="110"/><ellipse cx="388" cy="130.1328" fill="#EB937F" rx="11" ry="11" style="stroke:#A80036;stroke-width:1.0;"/><path d="M387.4844,130.6953 Q385.625,129.9922 384.9688,129.2266 Q384.3281,128.4453 384.3281,127.1328 Q384.3281,125.4453 385.4063,124.4766 Q386.4844,123.5078 388.3594,123.5078 Q389.2188,123.5078 390.0625,123.7109 Q390.9219,123.8984 391.7656,124.2891 L391.7656,126.6797 Q390.9844,126.1172 390.1563,125.8359 Q389.3438,125.5391 388.5469,125.5391 Q387.6719,125.5391 387.1875,125.8984 Q386.7188,126.2578 386.7188,126.9141 Q386.7188,127.4297 387.0625,127.7734 Q387.4063,128.1016 388.5,128.5078 L389.5625,128.9141 Q391.0469,129.4609 391.75,130.3672 Q392.4688,131.2734 392.4688,132.6484 Q392.4688,134.5234 391.3594,135.4453 Q390.25,136.3672 388,136.3672 Q387.0781,136.3672 386.1563,136.1484 Q385.2344,135.9297 384.375,135.5078 L384.375,132.9766 Q385.3438,133.6641 386.2656,134.0078 Q387.1875,134.3516 388.0781,134.3516 Q388.9844,134.3516 389.4844,133.9453 Q389.9844,133.5234 389.9844,132.7891 Q389.9844,132.2266 389.6406,131.8203 Q389.3125,131.3984 388.6875,131.1484 L387.4844,130.6953 Z " fill="#000000"/><text fill="#000000" font-family="sans-serif" font-size="12" font-style="italic" lengthAdjust="spacing" textLength="57" x="467.5" y="126.1387">«service»</text><text fill="#000000" font-family="sans-serif" font-size="14" lengthAdjust="spacing" textLength="188" x="402" y="141.9639">Thing Description Directory</text></g><!--MD5=[c60af77fe5573b84a4aa4bce89659574]
class Server--><g id="elem_Server"><rect codeLine="5" fill="#F1F1F1" height="40.2656" id="Server" rx="2.5" ry="2.5" style="stroke:#181818;stroke-width:0.5;" width="202" x="30" y="7"/><ellipse cx="45" cy="27.1328" fill="#EB937F" rx="11" ry="11" style="stroke:#A80036;stroke-width:1.0;"/><path d="M44.4844,27.6953 Q42.625,26.9922 41.9688,26.2266 Q41.3281,25.4453 41.3281,24.1328 Q41.3281,22.4453 42.4063,21.4766 Q43.4844,20.5078 45.3594,20.5078 Q46.2188,20.5078 47.0625,20.7109 Q47.9219,20.8984 48.7656,21.2891 L48.7656,23.6797 Q47.9844,23.1172 47.1563,22.8359 Q46.3438,22.5391 45.5469,22.5391 Q44.6719,22.5391 44.1875,22.8984 Q43.7188,23.2578 43.7188,23.9141 Q43.7188,24.4297 44.0625,24.7734 Q44.4063,25.1016 45.5,25.5078 L46.5625,25.9141 Q48.0469,26.4609 48.75,27.3672 Q49.4688,28.2734 49.4688,29.6484 Q49.4688,31.5234 48.3594,32.4453 Q47.25,33.3672 45,33.3672 Q44.0781,33.3672 43.1563,33.1484 Q42.2344,32.9297 41.375,32.5078 L41.375,29.9766 Q42.3438,30.6641 43.2656,31.0078 Q44.1875,31.3516 45.0781,31.3516 Q45.9844,31.3516 46.4844,30.9453 Q46.9844,30.5234 46.9844,29.7891 Q46.9844,29.2266 46.6406,28.8203 Q46.3125,28.3984 45.6875,28.1484 L44.4844,27.6953 Z " fill="#000000"/><text fill="#000000" font-family="sans-serif" font-size="12" font-style="italic" lengthAdjust="spacing" textLength="57" x="115.5" y="23.1387">«service»</text><text fill="#000000" font-family="sans-serif" font-size="14" lengthAdjust="spacing" textLength="170" x="59" y="38.9639">Thing Description Server</text></g><!--MD5=[1053da7555f32ea3c982e01119b403ff]
class Thing--><g id="elem_Thing"><rect codeLine="7" fill="#F1F1F1" height="40.2656" id="Thing" rx="2.5" ry="2.5" style="stroke:#181818;stroke-width:0.5;" width="85" x="288.5" y="7"/><ellipse cx="303.5" cy="27.1328" fill="#EB937F" rx="11" ry="11" style="stroke:#A80036;stroke-width:1.0;"/><path d="M302.9844,27.6953 Q301.125,26.9922 300.4688,26.2266 Q299.8281,25.4453 299.8281,24.1328 Q299.8281,22.4453 300.9063,21.4766 Q301.9844,20.5078 303.8594,20.5078 Q304.7188,20.5078 305.5625,20.7109 Q306.4219,20.8984 307.2656,21.2891 L307.2656,23.6797 Q306.4844,23.1172 305.6563,22.8359 Q304.8438,22.5391 304.0469,22.5391 Q303.1719,22.5391 302.6875,22.8984 Q302.2188,23.2578 302.2188,23.9141 Q302.2188,24.4297 302.5625,24.7734 Q302.9063,25.1016 304,25.5078 L305.0625,25.9141 Q306.5469,26.4609 307.25,27.3672 Q307.9688,28.2734 307.9688,29.6484 Q307.9688,31.5234 306.8594,32.4453 Q305.75,33.3672 303.5,33.3672 Q302.5781,33.3672 301.6563,33.1484 Q300.7344,32.9297 299.875,32.5078 L299.875,29.9766 Q300.8438,30.6641 301.7656,31.0078 Q302.6875,31.3516 303.5781,31.3516 Q304.4844,31.3516 304.9844,30.9453 Q305.4844,30.5234 305.4844,29.7891 Q305.4844,29.2266 305.1406,28.8203 Q304.8125,28.3984 304.1875,28.1484 L302.9844,27.6953 Z " fill="#000000"/><text fill="#000000" font-family="sans-serif" font-size="12" font-style="italic" lengthAdjust="spacing" textLength="57" x="315.5" y="23.1387">«service»</text><text fill="#000000" font-family="sans-serif" font-size="14" lengthAdjust="spacing" textLength="39" x="324.5" y="38.9639">Thing</text></g><!--MD5=[f66eb5cd0a27e450a5267fbcb4094f6d]
class TD--><g id="elem_TD"><rect codeLine="13" fill="#F0FFFF" height="32" id="TD" rx="2.5" ry="2.5" style="stroke:#181818;stroke-width:0.5;" width="90" x="203" y="229"/><ellipse cx="218" cy="245" fill="#ADD1B2" rx="11" ry="11" style="stroke:#181818;stroke-width:1.0;"/><path d="M220.9688,250.6406 Q220.3906,250.9375 219.75,251.0781 Q219.1094,251.2344 218.4063,251.2344 Q215.9063,251.2344 214.5781,249.5938 Q213.2656,247.9375 213.2656,244.8125 Q213.2656,241.6875 214.5781,240.0313 Q215.9063,238.375 218.4063,238.375 Q219.1094,238.375 219.75,238.5313 Q220.4063,238.6875 220.9688,238.9844 L220.9688,241.7031 Q220.3438,241.125 219.75,240.8594 Q219.1563,240.5781 218.5313,240.5781 Q217.1875,240.5781 216.5,241.6563 Q215.8125,242.7188 215.8125,244.8125 Q215.8125,246.9063 216.5,247.9844 Q217.1875,249.0469 218.5313,249.0469 Q219.1563,249.0469 219.75,248.7813 Q220.3438,248.5 220.9688,247.9219 L220.9688,250.6406 Z " fill="#000000"/><text fill="#000000" font-family="sans-serif" font-size="14" lengthAdjust="spacing" textLength="58" x="232" y="249.8467">td:Thing</text></g><g id="elem_GMN9"><path d="M6,232.5 L6,257.6328 A0,0 0 0 0 6,257.6328 L168,257.6328 A0,0 0 0 0 168,257.6328 L168,250.5 L202.76,245 L168,242.5 L168,242.5 L158,232.5 L6,232.5 A0,0 0 0 0 6,232.5 " fill="#FEFFDD" style="stroke:#181818;stroke-width:0.5;"/><path d="M158,232.5 L158,242.5 L168,242.5 L158,232.5 " fill="#FEFFDD" style="stroke:#181818;stroke-width:0.5;"/><text fill="#000000" font-family="sans-serif" font-size="13" lengthAdjust="spacing" textLength="141" x="12" y="249.5669">Thing Description (TD)</text></g><!--MD5=[88221bcd57db51459cd4199f69591b42]
reverse link Thing to SelfDesc--><g id="link_Thing_SelfDesc"><path codeLine="17" d="M301.98,63.31 C289.1,78.98 274.46,96.81 263.67,109.93 " fill="none" id="Thing-backto-SelfDesc" style="stroke:#181818;stroke-width:1.0;"/><polygon fill="none" points="296.89,58.48,315,47.47,307.71,67.37,296.89,58.48" style="stroke:#181818;stroke-width:1.0;"/></g><!--MD5=[34b9967e59f351fa19cf43a744ba6d63]
reverse link Server to SelfDesc--><g id="link_Server_SelfDesc"><path codeLine="18" d="M168.47,60.34 C187.36,76.66 209.64,95.88 225.8,109.84 " fill="none" id="Server-backto-SelfDesc" style="stroke:#181818;stroke-width:1.0;"/><polygon fill="none" points="163.85,65.6,153.28,47.24,173,55.01,163.85,65.6" style="stroke:#181818;stroke-width:1.0;"/></g><!--MD5=[6811a1fa3166692e42720dcd61a45561]
reverse link Thing to Directory--><g id="link_Thing_Directory"><path codeLine="19" d="M376.74,58.39 C401.88,75.1 432.32,95.32 454.16,109.84 " fill="none" id="Thing-backto-Directory" style="stroke:#181818;stroke-width:1.0;"/><polygon fill="none" points="372.73,64.13,359.95,47.24,380.48,52.47,372.73,64.13" style="stroke:#181818;stroke-width:1.0;"/></g><!--MD5=[962830750a9a6ad5a90804d94990eddc]
link SelfDesc to TD--><g id="link_SelfDesc_TD"><path codeLine="20" d="M248,150.17 C248,170.6 248,202.83 248,223.69 " fill="none" id="SelfDesc-to-TD" style="stroke:#181818;stroke-width:1.0;"/><polygon fill="#181818" points="248,228.73,252,219.73,248,223.73,244,219.73,248,228.73" style="stroke:#181818;stroke-width:1.0;"/><text fill="#000000" font-family="sans-serif" font-size="13" lengthAdjust="spacing" textLength="54" x="249" y="195.0669">provides</text><text fill="#000000" font-family="sans-serif" font-size="13" lengthAdjust="spacing" textLength="8" x="238.825" y="170.3455">1</text><text fill="#000000" font-family="sans-serif" font-size="13" lengthAdjust="spacing" textLength="8" x="229.35" y="217.9451">1</text></g><!--MD5=[77d4e125ce3d710d6fa63a04956134c6]
link Server to TD--><g id="link_Server_TD"><path codeLine="21" d="M110.82,47.2 C101.32,57.66 91,71.41 86,86 C73.33,123 64.52,141.32 86,174 C99,193.78 155.35,215.19 197.96,229.05 " fill="none" id="Server-to-TD" style="stroke:#181818;stroke-width:1.0;"/><polygon fill="#181818" points="202.82,230.62,195.4751,224.0585,198.0597,229.0904,193.0278,231.675,202.82,230.62" style="stroke:#181818;stroke-width:1.0;"/><text fill="#000000" font-family="sans-serif" font-size="13" lengthAdjust="spacing" textLength="54" x="87" y="134.5669">provides</text><text fill="#000000" font-family="sans-serif" font-size="13" lengthAdjust="spacing" textLength="8" x="95.7171" y="67.3843">1</text><text fill="#000000" font-family="sans-serif" font-size="13" lengthAdjust="spacing" textLength="8" x="179.0092" y="224.483">1</text></g><!--MD5=[22095c50f58adeae0dd4a30b6d5b7e14]
link Directory to TD--><g id="link_Directory_TD"><path codeLine="22" d="M443.4,150.04 C398.85,171.46 327.1,205.96 284.06,226.66 " fill="none" id="Directory-to-TD" style="stroke:#181818;stroke-width:1.0;"/><polygon fill="#181818" points="279.47,228.87,289.3151,228.5987,283.9814,226.7142,285.8659,221.3805,279.47,228.87" style="stroke:#181818;stroke-width:1.0;"/><text fill="#000000" font-family="sans-serif" font-size="13" lengthAdjust="spacing" textLength="54" x="373" y="195.0669">contains</text><text fill="#000000" font-family="sans-serif" font-size="13" lengthAdjust="spacing" textLength="8" x="408.83" y="170.1773">1</text><text fill="#000000" font-family="sans-serif" font-size="13" lengthAdjust="spacing" textLength="23" x="308.3034" y="217.8369">0..*</text></g><!--MD5=[efe58f6029816463b1b0ba5dd2573238]
@startuml exploration-class-diagram
/' global configurations '/
hide methods
hide members

class Server as "Thing Description Server" <<(S,#eb937f) service>>

class Thing <<(S,#eb937f) service>>
together {
    class SelfDesc as "Self-Describing Thing" <<(S,#eb937f) service>>
    class Directory as "Thing Description Directory" <<(S,#eb937f) service>>
}

class TD as "td:Thing" #Azure
note left: Thing Description (TD)

/' relations '/
Thing <|- - SelfDesc
Server <|- - SelfDesc
Thing <|- - Directory
SelfDesc "1" - -> "1  " TD: provides
Server "1" - -> "1  " TD: provides
Directory "1   " - -> "   0..*" TD: contains


@enduml

@startuml exploration-class-diagram
hide methods
hide members

class Server as "Thing Description Server" <<(S,#eb937f) service>>

class Thing <<(S,#eb937f) service>>
together {
    class SelfDesc as "Self-Describing Thing" <<(S,#eb937f) service>>
    class Directory as "Thing Description Directory" <<(S,#eb937f) service>>
}

class TD as "td:Thing" #Azure
note left: Thing Description (TD)

Thing <|- - SelfDesc
Server <|- - SelfDesc
Thing <|- - Directory
SelfDesc "1" - -> "1  " TD: provides
Server "1" - -> "1  " TD: provides
Directory "1   " - -> "   0..*" TD: contains


@enduml

PlantUML version 1.2022.5(Sat Apr 30 07:55:52 ADT 2022)
(GPL source distribution)
Java Runtime: OpenJDK Runtime Environment
JVM: OpenJDK 64-Bit Server VM
Default Encoding: UTF-8
Language: en
Country: CA
--></g></svg>