<?xml version="1.0" encoding="UTF-8" standalone="no"?><svg xmlns="http://www.w3.org/2000/svg" xmlns:xlink="http://www.w3.org/1999/xlink" contentScriptType="application/ecmascript" contentStyleType="text/css" height="445px" preserveAspectRatio="none" style="width:495px;height:445px;" version="1.1" viewBox="0 0 495 445" width="495px" zoomAndPan="magnify"><defs><filter height="300%" id="f1ro8jfjvpr035" width="300%" x="-1" y="-1"><feGaussianBlur result="blurOut" stdDeviation="2.0"/><feColorMatrix in="blurOut" result="blurOut2" type="matrix" values="0 0 0 0 0 0 0 0 0 0 0 0 0 0 0 0 0 0 .4 0"/><feOffset dx="4.0" dy="4.0" in="blurOut2" result="blurOut3"/><feBlend in="SourceGraphic" in2="blurOut3" mode="normal"/></filter></defs><g><path d="M77,396 L77,436.6211 A0,0 0 0 0 77,436.6211 L209,436.6211 A0,0 0 0 0 209,436.6211 L209,406 L199,396 L141.841,396 L122.6742,335.1966 L133.841,396 L77,396 A0,0 0 0 0 77,396 " fill="#FBFB77" filter="url(#f1ro8jfjvpr035)" style="stroke:#A80036;stroke-width:1.0;"/><path d="M199,396 L199,406 L209,406 L199,396 " fill="#FBFB77" style="stroke:#A80036;stroke-width:1.0;"/><text fill="#000000" font-family="sans-serif" font-size="13" lengthAdjust="spacingAndGlyphs" textLength="111" x="83" y="413.5684">TD that describes</text><text fill="#000000" font-family="sans-serif" font-size="13" lengthAdjust="spacingAndGlyphs" textLength="69" x="83" y="428.8789">a Directory</text><path d="M244.5,396 L244.5,436.6211 A0,0 0 0 0 244.5,436.6211 L425.5,436.6211 A0,0 0 0 0 425.5,436.6211 L425.5,406 L415.5,396 L340.7197,396 L341.7753,335.1966 L332.7197,396 L244.5,396 A0,0 0 0 0 244.5,396 " fill="#FBFB77" filter="url(#f1ro8jfjvpr035)" style="stroke:#A80036;stroke-width:1.0;"/><path d="M415.5,396 L415.5,406 L425.5,406 L415.5,396 " fill="#FBFB77" style="stroke:#A80036;stroke-width:1.0;"/><text fill="#000000" font-family="sans-serif" font-size="13" lengthAdjust="spacingAndGlyphs" textLength="111" x="250.5" y="413.5684">TD that describes</text><text fill="#000000" font-family="sans-serif" font-size="13" lengthAdjust="spacingAndGlyphs" textLength="160" x="250.5" y="428.8789">a reference to another TD</text><!--MD5=[f66eb5cd0a27e450a5267fbcb4094f6d]
class TD--><rect codeLine="17" fill="#FEFECE" filter="url(#f1ro8jfjvpr035)" height="65.9102" id="TD" style="stroke:#A80036;stroke-width:1.5;" width="96" x="205" y="135.5"/><ellipse cx="227.2" cy="151.5" fill="#ADD1B2" rx="11" ry="11" style="stroke:#A80036;stroke-width:1.0;"/><path d="M229.6731,157.6431 Q229.0921,157.9419 228.4529,158.0913 Q227.8138,158.2407 227.1082,158.2407 Q224.6014,158.2407 223.2815,156.5889 Q221.9617,154.937 221.9617,151.8159 Q221.9617,148.6865 223.2815,147.0347 Q224.6014,145.3828 227.1082,145.3828 Q227.8138,145.3828 228.4612,145.5322 Q229.1087,145.6816 229.6731,145.9805 L229.6731,148.7031 Q229.0423,148.1221 228.4488,147.8523 Q227.8553,147.5825 227.2244,147.5825 Q225.8797,147.5825 225.1949,148.6492 Q224.5101,149.7158 224.5101,151.8159 Q224.5101,153.9077 225.1949,154.9744 Q225.8797,156.041 227.2244,156.041 Q227.8553,156.041 228.4488,155.7712 Q229.0423,155.5015 229.6731,154.9204 Z " fill="#000000"/><text fill="#000000" font-family="sans-serif" font-size="12" lengthAdjust="spacingAndGlyphs" textLength="48" x="242.8" y="156.0352">td:Thing</text><line style="stroke:#A80036;stroke-width:1.5;" x1="206" x2="300" y1="167.5" y2="167.5"/><text fill="#000000" font-family="sans-serif" font-size="11" lengthAdjust="spacingAndGlyphs" textLength="84" x="211" y="182.1348">tdd:registration</text><text fill="#000000" font-family="sans-serif" font-size="11" lengthAdjust="spacingAndGlyphs" textLength="9" x="211" y="195.0898">...</text><!--MD5=[4d704f0a3861ddd137be5d5c222befd9]
class DD--><rect codeLine="30" fill="#FEFECE" filter="url(#f1ro8jfjvpr035)" height="52.9551" id="DD" style="stroke:#A80036;stroke-width:1.5;" width="207" x="12.5" y="282"/><ellipse cx="27.5" cy="298" fill="#ADD1B2" rx="11" ry="11" style="stroke:#A80036;stroke-width:1.0;"/><path d="M29.9731,304.1431 Q29.3921,304.4419 28.7529,304.5913 Q28.1138,304.7407 27.4082,304.7407 Q24.9014,304.7407 23.5815,303.0889 Q22.2617,301.437 22.2617,298.3159 Q22.2617,295.1865 23.5815,293.5347 Q24.9014,291.8828 27.4082,291.8828 Q28.1138,291.8828 28.7612,292.0322 Q29.4087,292.1816 29.9731,292.4805 L29.9731,295.2031 Q29.3423,294.6221 28.7488,294.3523 Q28.1553,294.0825 27.5244,294.0825 Q26.1797,294.0825 25.4949,295.1492 Q24.8101,296.2158 24.8101,298.3159 Q24.8101,300.4077 25.4949,301.4744 Q26.1797,302.541 27.5244,302.541 Q28.1553,302.541 28.7488,302.2712 Q29.3423,302.0015 29.9731,301.4204 Z " fill="#000000"/><text fill="#000000" font-family="sans-serif" font-size="12" lengthAdjust="spacingAndGlyphs" textLength="175" x="41.5" y="302.5352">discovery:DirectoryDescription</text><line style="stroke:#A80036;stroke-width:1.5;" x1="13.5" x2="218.5" y1="314" y2="314"/><text fill="#000000" font-family="sans-serif" font-size="11" lengthAdjust="spacingAndGlyphs" textLength="9" x="18.5" y="328.6348">...</text><!--MD5=[9e34219925b96e56dd1c79f55da28bf5]
class LD--><rect codeLine="35" fill="#FEFECE" filter="url(#f1ro8jfjvpr035)" height="52.9551" id="LD" style="stroke:#A80036;stroke-width:1.5;" width="178" x="255" y="282"/><ellipse cx="270" cy="298" fill="#ADD1B2" rx="11" ry="11" style="stroke:#A80036;stroke-width:1.0;"/><path d="M272.4731,304.1431 Q271.8921,304.4419 271.2529,304.5913 Q270.6138,304.7407 269.9082,304.7407 Q267.4014,304.7407 266.0815,303.0889 Q264.7617,301.437 264.7617,298.3159 Q264.7617,295.1865 266.0815,293.5347 Q267.4014,291.8828 269.9082,291.8828 Q270.6138,291.8828 271.2612,292.0322 Q271.9087,292.1816 272.4731,292.4805 L272.4731,295.2031 Q271.8423,294.6221 271.2488,294.3523 Q270.6553,294.0825 270.0244,294.0825 Q268.6797,294.0825 267.9949,295.1492 Q267.3101,296.2158 267.3101,298.3159 Q267.3101,300.4077 267.9949,301.4744 Q268.6797,302.541 270.0244,302.541 Q270.6553,302.541 271.2488,302.2712 Q271.8423,302.0015 272.4731,301.4204 Z " fill="#000000"/><text fill="#000000" font-family="sans-serif" font-size="12" lengthAdjust="spacingAndGlyphs" textLength="146" x="284" y="302.5352">discovery:LinkDescription</text><line style="stroke:#A80036;stroke-width:1.5;" x1="256" x2="432" y1="314" y2="314"/><text fill="#000000" font-family="sans-serif" font-size="11" lengthAdjust="spacingAndGlyphs" textLength="9" x="261" y="328.6348">...</text><!--MD5=[b0d235383f18272a9799c4b40fc1822a]
class RI--><rect codeLine="22" fill="#FEFECE" filter="url(#f1ro8jfjvpr035)" height="104.7754" id="RI" style="stroke:#A80036;stroke-width:1.5;" width="145" x="336.5" y="116"/><ellipse cx="351.5" cy="132" fill="#ADD1B2" rx="11" ry="11" style="stroke:#A80036;stroke-width:1.0;"/><path d="M353.9731,138.1431 Q353.3921,138.4419 352.7529,138.5913 Q352.1138,138.7407 351.4082,138.7407 Q348.9014,138.7407 347.5815,137.0889 Q346.2617,135.437 346.2617,132.3159 Q346.2617,129.1865 347.5815,127.5347 Q348.9014,125.8828 351.4082,125.8828 Q352.1138,125.8828 352.7612,126.0322 Q353.4087,126.1816 353.9731,126.4805 L353.9731,129.2031 Q353.3423,128.6221 352.7488,128.3523 Q352.1553,128.0825 351.5244,128.0825 Q350.1797,128.0825 349.4949,129.1492 Q348.8101,130.2158 348.8101,132.3159 Q348.8101,134.4077 349.4949,135.4744 Q350.1797,136.541 351.5244,136.541 Q352.1553,136.541 352.7488,136.2712 Q353.3423,136.0015 353.9731,135.4204 Z " fill="#000000"/><text fill="#000000" font-family="sans-serif" font-size="12" lengthAdjust="spacingAndGlyphs" textLength="113" x="365.5" y="136.5352">tdd:RegistrationInfo</text><line style="stroke:#A80036;stroke-width:1.5;" x1="337.5" x2="480.5" y1="148" y2="148"/><text fill="#000000" font-family="sans-serif" font-size="11" lengthAdjust="spacingAndGlyphs" textLength="121" x="342.5" y="162.6348">tdd:created {readOnly}</text><text fill="#000000" font-family="sans-serif" font-size="11" lengthAdjust="spacingAndGlyphs" textLength="121" x="342.5" y="175.5898">tdd:expires {readOnly}</text><text fill="#000000" font-family="sans-serif" font-size="11" lengthAdjust="spacingAndGlyphs" textLength="91" x="342.5" y="188.5449">tdd:id {readOnly}</text><text fill="#000000" font-family="sans-serif" font-size="11" lengthAdjust="spacingAndGlyphs" textLength="128" x="342.5" y="201.5">tdd:modified {readOnly}</text><text fill="#000000" font-family="sans-serif" font-size="11" lengthAdjust="spacingAndGlyphs" textLength="32" x="342.5" y="214.4551">tdd:ttl</text><!--MD5=[1053da7555f32ea3c982e01119b403ff]
class Thing--><rect fill="#FEFECE" filter="url(#f1ro8jfjvpr035)" height="32" id="Thing" style="stroke:#A80036;stroke-width:1.5;" width="64" x="167" y="7"/><ellipse cx="182" cy="23" fill="#ADD1B2" rx="11" ry="11" style="stroke:#A80036;stroke-width:1.0;"/><path d="M184.4731,29.1431 Q183.8921,29.4419 183.2529,29.5913 Q182.6138,29.7407 181.9082,29.7407 Q179.4014,29.7407 178.0815,28.0889 Q176.7617,26.437 176.7617,23.3159 Q176.7617,20.1865 178.0815,18.5347 Q179.4014,16.8828 181.9082,16.8828 Q182.6138,16.8828 183.2612,17.0322 Q183.9087,17.1816 184.4731,17.4805 L184.4731,20.2031 Q183.8423,19.6221 183.2488,19.3523 Q182.6553,19.0825 182.0244,19.0825 Q180.6797,19.0825 179.9949,20.1492 Q179.3101,21.2158 179.3101,23.3159 Q179.3101,25.4077 179.9949,26.4744 Q180.6797,27.541 182.0244,27.541 Q182.6553,27.541 183.2488,27.2712 Q183.8423,27.0015 184.4731,26.4204 Z " fill="#000000"/><text fill="#000000" font-family="sans-serif" font-size="12" lengthAdjust="spacingAndGlyphs" textLength="32" x="196" y="27.5352">Thing</text><!--MD5=[9bd2b2bc45261200a440e1ecb7c43192]
class Directory--><rect codeLine="14" fill="#FEFECE" filter="url(#f1ro8jfjvpr035)" height="32" id="Directory" style="stroke:#A80036;stroke-width:1.5;" width="84" x="266" y="7"/><ellipse cx="281" cy="23" fill="#ADD1B2" rx="11" ry="11" style="stroke:#A80036;stroke-width:1.0;"/><path d="M283.4731,29.1431 Q282.8921,29.4419 282.2529,29.5913 Q281.6138,29.7407 280.9082,29.7407 Q278.4014,29.7407 277.0815,28.0889 Q275.7617,26.437 275.7617,23.3159 Q275.7617,20.1865 277.0815,18.5347 Q278.4014,16.8828 280.9082,16.8828 Q281.6138,16.8828 282.2612,17.0322 Q282.9087,17.1816 283.4731,17.4805 L283.4731,20.2031 Q282.8423,19.6221 282.2488,19.3523 Q281.6553,19.0825 281.0244,19.0825 Q279.6797,19.0825 278.9949,20.1492 Q278.3101,21.2158 278.3101,23.3159 Q278.3101,25.4077 278.9949,26.4744 Q279.6797,27.541 281.0244,27.541 Q281.6553,27.541 282.2488,27.2712 Q282.8423,27.0015 283.4731,26.4204 Z " fill="#000000"/><text fill="#000000" font-family="sans-serif" font-size="12" lengthAdjust="spacingAndGlyphs" textLength="52" x="295" y="27.5352">Directory</text><path d="M6,156 L6,181.3105 A0,0 0 0 0 6,181.3105 L170,181.3105 A0,0 0 0 0 170,181.3105 L170,174 L204.7949,168.5 L170,166 L170,166 L160,156 L6,156 A0,0 0 0 0 6,156 " fill="#FBFB77" filter="url(#f1ro8jfjvpr035)" style="stroke:#A80036;stroke-width:1.0;"/><path d="M160,156 L160,166 L170,166 L160,156 " fill="#FBFB77" style="stroke:#A80036;stroke-width:1.0;"/><text fill="#000000" font-family="sans-serif" font-size="13" lengthAdjust="spacingAndGlyphs" textLength="143" x="12" y="173.5684">Thing Description (TD)</text><!--MD5=[bccdf10eb4c083912b60a8157a004f17]
link Thing to TD--><path codeLine="7" d="M200.7931,39.1153 C202.5327,52.0395 205.7032,70.5136 211,86 C216.7735,102.88 225.4364,120.6322 233.3977,135.3267 " fill="none" id="Thing-TD" style="stroke:#A80036;stroke-width:1.0;"/><text fill="#000000" font-family="sans-serif" font-size="13" lengthAdjust="spacingAndGlyphs" textLength="52" x="212" y="82.5684">exposes</text><text fill="#000000" font-family="sans-serif" font-size="13" lengthAdjust="spacingAndGlyphs" textLength="8" x="192.0621" y="59.5577">1</text><text fill="#000000" font-family="sans-serif" font-size="13" lengthAdjust="spacingAndGlyphs" textLength="24" x="198.4672" y="124.5475">0..1</text><!--MD5=[22095c50f58adeae0dd4a30b6d5b7e14]
link Directory to TD--><path codeLine="8" d="M301.9039,39.127 C293.1777,62.2117 276.9267,105.2031 265.5621,135.2676 " fill="none" id="Directory-TD" style="stroke:#A80036;stroke-width:1.0;"/><text fill="#000000" font-family="sans-serif" font-size="13" lengthAdjust="spacingAndGlyphs" textLength="54" x="291" y="82.5684">contains</text><text fill="#000000" font-family="sans-serif" font-size="13" lengthAdjust="spacingAndGlyphs" textLength="8" x="285.8971" y="59.5732">1</text><text fill="#000000" font-family="sans-serif" font-size="13" lengthAdjust="spacingAndGlyphs" textLength="22" x="243.8696" y="124.8562">0..*</text><!--MD5=[1dc66e9d1b43fe258a92c3d7bc90687d]
reverse link TD to RI--><path codeLine="9" d="M314.2544,168.5 C321.5398,168.5 328.8252,168.5 336.1107,168.5 " fill="none" id="TD-backto-RI" style="stroke:#A80036;stroke-width:1.0;"/><polygon fill="#A80036" points="301.1406,168.5,307.1406,172.5,313.1406,168.5,307.1406,164.5,301.1406,168.5" style="stroke:#A80036;stroke-width:1.0;"/><!--MD5=[127232005f16be5edd0ed8d4c6bc081f]
reverse link TD to DD--><path codeLine="10" d="M206.3471,216.1745 C184.9526,238.0375 160.3823,263.1458 142.2706,281.6541 " fill="none" id="TD-backto-DD" style="stroke:#A80036;stroke-width:1.0;"/><polygon fill="none" points="201.5417,211.0767,220.5329,201.678,211.5478,220.8684,201.5417,211.0767" style="stroke:#A80036;stroke-width:1.0;"/><!--MD5=[8e173e157ab12f5f8cf7023cd3f55b65]
reverse link TD to LD--><path codeLine="11" d="M285.6371,218.711 C299.4484,239.9591 314.9825,263.8577 326.5502,281.6541 " fill="none" id="TD-backto-LD" style="stroke:#A80036;stroke-width:1.0;"/><polygon fill="none" points="279.5964,222.2619,274.5657,201.678,291.3347,214.632,279.5964,222.2619" style="stroke:#A80036;stroke-width:1.0;"/><!--MD5=[dd23702951d1acad5e909a7b2c2bbdad]
@startuml exploration-class-diagram
class TD as "td:Thing"
class DD as "discovery:DirectoryDescription"
class LD as "discovery:LinkDescription"
class RI as "tdd:RegistrationInfo"

/' relations '/
Thing "1" - - "0..1 " TD: exposes
Directory "1 " - - "0..*" TD: contains
TD *-right- RI
TD <|- - DD
TD <|- - LD

/' classes and notes '/
class Directory {

}
class TD {
    tdd:registration
    ...
}
note left: Thing Description (TD)
class RI {
    tdd:created {readOnly}
    tdd:expires {readOnly}
    tdd:id {readOnly}
    tdd:modified {readOnly}
    tdd:ttl
}
together {
    class DD {
        ...
    }
    note bottom: TD that describes\na Directory

    class LD {
        ...
    }
    note bottom: TD that describes\na reference to another TD
}

/' configurations '/
hide Directory members
hide Thing members
' hide members
hide methods
@enduml

@startuml exploration-class-diagram
class TD as "td:Thing"
class DD as "discovery:DirectoryDescription"
class LD as "discovery:LinkDescription"
class RI as "tdd:RegistrationInfo"

Thing "1" - - "0..1 " TD: exposes
Directory "1 " - - "0..*" TD: contains
TD *-right- RI
TD <|- - DD
TD <|- - LD

class Directory {

}
class TD {
    tdd:registration
    ...
}
note left: Thing Description (TD)
class RI {
    tdd:created {readOnly}
    tdd:expires {readOnly}
    tdd:id {readOnly}
    tdd:modified {readOnly}
    tdd:ttl
}
together {
    class DD {
        ...
    }
    note bottom: TD that describes\na Directory

    class LD {
        ...
    }
    note bottom: TD that describes\na reference to another TD
}

hide Directory members
hide Thing members
hide methods
@enduml

PlantUML version 1.2020.22(Sun Dec 06 10:36:27 CET 2020)
(GPL source distribution)
Java Runtime: Java(TM) SE Runtime Environment
JVM: Java HotSpot(TM) 64-Bit Server VM
Default Encoding: UTF-8
Language: en
Country: US
--></g></svg>