<?xml version="1.0" encoding="UTF-8" standalone="no"?><svg xmlns="http://www.w3.org/2000/svg" xmlns:xlink="http://www.w3.org/1999/xlink" contentScriptType="application/ecmascript" contentStyleType="text/css" height="267px" preserveAspectRatio="none" style="width:295px;height:267px;" version="1.1" viewBox="0 0 295 267" width="295px" zoomAndPan="magnify"><defs><filter height="300%" id="fiun76my7sdcu" width="300%" x="-1" y="-1"><feGaussianBlur result="blurOut" stdDeviation="2.0"/><feColorMatrix in="blurOut" result="blurOut2" type="matrix" values="0 0 0 0 0 0 0 0 0 0 0 0 0 0 0 0 0 0 .4 0"/><feOffset dx="4.0" dy="4.0" in="blurOut2" result="blurOut3"/><feBlend in="SourceGraphic" in2="blurOut3" mode="normal"/></filter></defs><g><!--MD5=[0c8f81674d0e9026104f104b6fbe6eff]
class SelfDesc--><rect codeLine="7" fill="#FEFECE" filter="url(#fiun76my7sdcu)" height="38.2656" id="SelfDesc" style="stroke:#A80036;stroke-width:1.5;" width="155" x="7" y="106"/><ellipse cx="22" cy="125.1328" fill="#ADD1B2" rx="11" ry="11" style="stroke:#A80036;stroke-width:1.0;"/><path d="M24.4731,131.2759 Q23.8921,131.5747 23.2529,131.7241 Q22.6138,131.8735 21.9082,131.8735 Q19.4014,131.8735 18.0815,130.2217 Q16.7617,128.5698 16.7617,125.4487 Q16.7617,122.3193 18.0815,120.6675 Q19.4014,119.0156 21.9082,119.0156 Q22.6138,119.0156 23.2612,119.165 Q23.9087,119.3145 24.4731,119.6133 L24.4731,122.3359 Q23.8423,121.7549 23.2488,121.4851 Q22.6553,121.2153 22.0244,121.2153 Q20.6797,121.2153 19.9949,122.282 Q19.3101,123.3486 19.3101,125.4487 Q19.3101,127.5405 19.9949,128.6072 Q20.6797,129.6738 22.0244,129.6738 Q22.6553,129.6738 23.2488,129.4041 Q23.8423,129.1343 24.4731,128.5532 Z " fill="#000000"/><text fill="#000000" font-family="sans-serif" font-size="12" font-style="italic" lengthAdjust="spacing" textLength="52" x="71.5" y="122.6016">«service»</text><text fill="#000000" font-family="sans-serif" font-size="12" lengthAdjust="spacing" textLength="123" x="36" y="136.7344">Self-describing Thing</text><!--MD5=[9bd2b2bc45261200a440e1ecb7c43192]
class Directory--><rect codeLine="8" fill="#FEFECE" filter="url(#fiun76my7sdcu)" height="38.2656" id="Directory" style="stroke:#A80036;stroke-width:1.5;" width="84" x="197.5" y="106"/><ellipse cx="212.5" cy="125.1328" fill="#ADD1B2" rx="11" ry="11" style="stroke:#A80036;stroke-width:1.0;"/><path d="M214.9731,131.2759 Q214.3921,131.5747 213.7529,131.7241 Q213.1138,131.8735 212.4082,131.8735 Q209.9014,131.8735 208.5815,130.2217 Q207.2617,128.5698 207.2617,125.4487 Q207.2617,122.3193 208.5815,120.6675 Q209.9014,119.0156 212.4082,119.0156 Q213.1138,119.0156 213.7612,119.165 Q214.4087,119.3145 214.9731,119.6133 L214.9731,122.3359 Q214.3423,121.7549 213.7488,121.4851 Q213.1553,121.2153 212.5244,121.2153 Q211.1797,121.2153 210.4949,122.282 Q209.8101,123.3486 209.8101,125.4487 Q209.8101,127.5405 210.4949,128.6072 Q211.1797,129.6738 212.5244,129.6738 Q213.1553,129.6738 213.7488,129.4041 Q214.3423,129.1343 214.9731,128.5532 Z " fill="#000000"/><text fill="#000000" font-family="sans-serif" font-size="12" font-style="italic" lengthAdjust="spacing" textLength="52" x="226.5" y="122.6016">«service»</text><text fill="#000000" font-family="sans-serif" font-size="12" lengthAdjust="spacing" textLength="52" x="226.5" y="136.7344">Directory</text><!--MD5=[1053da7555f32ea3c982e01119b403ff]
class Thing--><rect codeLine="5" fill="#FEFECE" filter="url(#fiun76my7sdcu)" height="38.2656" id="Thing" style="stroke:#A80036;stroke-width:1.5;" width="80" x="121.5" y="7"/><ellipse cx="136.5" cy="26.1328" fill="#ADD1B2" rx="11" ry="11" style="stroke:#A80036;stroke-width:1.0;"/><path d="M138.9731,32.2759 Q138.3921,32.5747 137.7529,32.7241 Q137.1138,32.8735 136.4082,32.8735 Q133.9014,32.8735 132.5815,31.2217 Q131.2617,29.5698 131.2617,26.4487 Q131.2617,23.3193 132.5815,21.6675 Q133.9014,20.0156 136.4082,20.0156 Q137.1138,20.0156 137.7612,20.165 Q138.4087,20.3145 138.9731,20.6133 L138.9731,23.3359 Q138.3423,22.7549 137.7488,22.4851 Q137.1553,22.2153 136.5244,22.2153 Q135.1797,22.2153 134.4949,23.282 Q133.8101,24.3486 133.8101,26.4487 Q133.8101,28.5405 134.4949,29.6072 Q135.1797,30.6738 136.5244,30.6738 Q137.1553,30.6738 137.7488,30.4041 Q138.3423,30.1343 138.9731,29.5532 Z " fill="#000000"/><text fill="#000000" font-family="sans-serif" font-size="12" font-style="italic" lengthAdjust="spacing" textLength="52" x="148.5" y="23.6016">«service»</text><text fill="#000000" font-family="sans-serif" font-size="12" lengthAdjust="spacing" textLength="32" x="158.5" y="37.7344">Thing</text><!--MD5=[f66eb5cd0a27e450a5267fbcb4094f6d]
class TD--><rect codeLine="11" fill="#FEFECE" filter="url(#fiun76my7sdcu)" height="32" id="TD" style="stroke:#A80036;stroke-width:1.5;" width="133" x="95" y="221"/><ellipse cx="110" cy="237" fill="#ADD1B2" rx="11" ry="11" style="stroke:#A80036;stroke-width:1.0;"/><path d="M112.4731,243.1431 Q111.8921,243.4419 111.2529,243.5913 Q110.6138,243.7407 109.9082,243.7407 Q107.4014,243.7407 106.0815,242.0889 Q104.7617,240.437 104.7617,237.3159 Q104.7617,234.1865 106.0815,232.5347 Q107.4014,230.8828 109.9082,230.8828 Q110.6138,230.8828 111.2612,231.0322 Q111.9087,231.1816 112.4731,231.4805 L112.4731,234.2031 Q111.8423,233.6221 111.2488,233.3523 Q110.6553,233.0825 110.0244,233.0825 Q108.6797,233.0825 107.9949,234.1492 Q107.3101,235.2158 107.3101,237.3159 Q107.3101,239.4077 107.9949,240.4744 Q108.6797,241.541 110.0244,241.541 Q110.6553,241.541 111.2488,241.2712 Q111.8423,241.0015 112.4731,240.4204 Z " fill="#000000"/><text fill="#000000" font-family="sans-serif" font-size="12" lengthAdjust="spacing" textLength="101" x="124" y="241.5352">Thing Description</text><!--MD5=[88221bcd57db51459cd4199f69591b42]
reverse link Thing to SelfDesc--><path codeLine="14" d="M134.2837,60.9924 C122.5122,76.1272 109.197,93.2468 99.3008,105.9704 " fill="none" id="Thing-backto-SelfDesc" style="stroke:#A80036;stroke-width:1.0;"/><polygon fill="none" points="128.8493,56.5777,146.6536,45.0882,139.9002,65.1729,128.8493,56.5777" style="stroke:#A80036;stroke-width:1.0;"/><!--MD5=[6811a1fa3166692e42720dcd61a45561]
reverse link Thing to Directory--><path codeLine="15" d="M189.0698,60.9924 C200.9941,76.1272 214.4823,93.2468 224.507,105.9704 " fill="none" id="Thing-backto-Directory" style="stroke:#A80036;stroke-width:1.0;"/><polygon fill="none" points="183.4182,65.1302,176.5392,45.0882,194.4151,56.4659,183.4182,65.1302" style="stroke:#A80036;stroke-width:1.0;"/><!--MD5=[962830750a9a6ad5a90804d94990eddc]
link SelfDesc to TD--><path codeLine="16" d="M95.6335,144.1259 C103.5949,157.4941 114.7593,175.6311 125.5,191 C131.4798,199.5565 138.4712,208.6693 144.694,216.5076 " fill="none" id="SelfDesc-to-TD" style="stroke:#A80036;stroke-width:1.0;"/><polygon fill="#A80036" points="148.0606,220.7195,145.5657,211.1919,144.9387,216.8139,139.3167,216.1869,148.0606,220.7195" style="stroke:#A80036;stroke-width:1.0;"/><text fill="#000000" font-family="sans-serif" font-size="13" lengthAdjust="spacing" textLength="54" x="126.5" y="187.5684">provides</text><text fill="#000000" font-family="sans-serif" font-size="13" lengthAdjust="spacing" textLength="8" x="89.8181" y="164.8553">1</text><text fill="#000000" font-family="sans-serif" font-size="13" lengthAdjust="spacing" textLength="8" x="124.6908" y="210.1667">1</text><!--MD5=[22095c50f58adeae0dd4a30b6d5b7e14]
link Directory to TD--><path codeLine="17" d="M226.0913,144.2535 C212.0213,164.4566 189.995,196.0842 175.6521,216.679 " fill="none" id="Directory-to-TD" style="stroke:#A80036;stroke-width:1.0;"/><polygon fill="#A80036" points="172.7138,220.8982,181.1398,215.7989,175.5714,216.7952,174.575,211.2268,172.7138,220.8982" style="stroke:#A80036;stroke-width:1.0;"/><text fill="#000000" font-family="sans-serif" font-size="13" lengthAdjust="spacing" textLength="54" x="205.5" y="187.5684">contains</text><text fill="#000000" font-family="sans-serif" font-size="13" lengthAdjust="spacing" textLength="8" x="199.215" y="164.6873">1</text><text fill="#000000" font-family="sans-serif" font-size="13" lengthAdjust="spacing" textLength="22" x="194.765" y="210.1137">0..*</text><!--MD5=[8f2b48eb8cb2bf4749dfcfe3496c49b1]
@startuml exploration-class-diagram
/' global configurations '/
hide methods
hide members

class Thing <<service>>
together {
    class SelfDesc as "Self-describing Thing" <<service>>
    class Directory <<service>>
}

class TD as "Thing Description"

/' relations '/
Thing <|- - SelfDesc
Thing <|- - Directory
SelfDesc "1" - -> "1  " TD: provides
Directory "1   " - -> "   0..*" TD: contains


@enduml

@startuml exploration-class-diagram
hide methods
hide members

class Thing <<service>>
together {
    class SelfDesc as "Self-describing Thing" <<service>>
    class Directory <<service>>
}

class TD as "Thing Description"

Thing <|- - SelfDesc
Thing <|- - Directory
SelfDesc "1" - -> "1  " TD: provides
Directory "1   " - -> "   0..*" TD: contains


@enduml

PlantUML version 1.2021.00(Sun Jan 10 11:25:05 CET 2021)
(GPL source distribution)
Java Runtime: Java(TM) SE Runtime Environment
JVM: Java HotSpot(TM) 64-Bit Server VM
Default Encoding: UTF-8
Language: en
Country: US
--></g></svg>