<?xml version="1.0" encoding="UTF-8" standalone="no"?><svg xmlns="http://www.w3.org/2000/svg" xmlns:xlink="http://www.w3.org/1999/xlink" contentScriptType="application/ecmascript" contentStyleType="text/css" height="419px" preserveAspectRatio="none" style="width:495px;height:419px;" version="1.1" viewBox="0 0 495 419" width="495px" zoomAndPan="magnify"><defs><filter height="300%" id="fek1zfdj6grhr" width="300%" x="-1" y="-1"><feGaussianBlur result="blurOut" stdDeviation="2.0"/><feColorMatrix in="blurOut" result="blurOut2" type="matrix" values="0 0 0 0 0 0 0 0 0 0 0 0 0 0 0 0 0 0 .4 0"/><feOffset dx="4.0" dy="4.0" in="blurOut2" result="blurOut3"/><feBlend in="SourceGraphic" in2="blurOut3" mode="normal"/></filter></defs><g><path d="M77,370 L77,410.6211 A0,0 0 0 0 77,410.6211 L209,410.6211 A0,0 0 0 0 209,410.6211 L209,380 L199,370 L141.841,370 L122.6742,309.1966 L133.841,370 L77,370 A0,0 0 0 0 77,370 " fill="#FBFB77" filter="url(#fek1zfdj6grhr)" style="stroke:#A80036;stroke-width:1.0;"/><path d="M199,370 L199,380 L209,380 L199,370 " fill="#FBFB77" style="stroke:#A80036;stroke-width:1.0;"/><text fill="#000000" font-family="sans-serif" font-size="13" lengthAdjust="spacingAndGlyphs" textLength="111" x="83" y="387.5684">TD that describes</text><text fill="#000000" font-family="sans-serif" font-size="13" lengthAdjust="spacingAndGlyphs" textLength="69" x="83" y="402.8789">a Directory</text><path d="M244.5,370 L244.5,410.6211 A0,0 0 0 0 244.5,410.6211 L425.5,410.6211 A0,0 0 0 0 425.5,410.6211 L425.5,380 L415.5,370 L340.7197,370 L341.7753,309.1966 L332.7197,370 L244.5,370 A0,0 0 0 0 244.5,370 " fill="#FBFB77" filter="url(#fek1zfdj6grhr)" style="stroke:#A80036;stroke-width:1.0;"/><path d="M415.5,370 L415.5,380 L425.5,380 L415.5,370 " fill="#FBFB77" style="stroke:#A80036;stroke-width:1.0;"/><text fill="#000000" font-family="sans-serif" font-size="13" lengthAdjust="spacingAndGlyphs" textLength="111" x="250.5" y="387.5684">TD that describes</text><text fill="#000000" font-family="sans-serif" font-size="13" lengthAdjust="spacingAndGlyphs" textLength="160" x="250.5" y="402.8789">a reference to another TD</text><!--MD5=[f66eb5cd0a27e450a5267fbcb4094f6d]
class TD--><rect codeLine="17" fill="#FEFECE" filter="url(#fek1zfdj6grhr)" height="65.9102" id="TD" style="stroke:#A80036;stroke-width:1.5;" width="96" x="205" y="122.5"/><ellipse cx="227.2" cy="138.5" fill="#ADD1B2" rx="11" ry="11" style="stroke:#A80036;stroke-width:1.0;"/><path d="M229.6731,144.6431 Q229.0921,144.9419 228.4529,145.0913 Q227.8138,145.2407 227.1082,145.2407 Q224.6014,145.2407 223.2815,143.5889 Q221.9617,141.937 221.9617,138.8159 Q221.9617,135.6865 223.2815,134.0347 Q224.6014,132.3828 227.1082,132.3828 Q227.8138,132.3828 228.4612,132.5322 Q229.1087,132.6816 229.6731,132.9805 L229.6731,135.7031 Q229.0423,135.1221 228.4488,134.8523 Q227.8553,134.5825 227.2244,134.5825 Q225.8797,134.5825 225.1949,135.6492 Q224.5101,136.7158 224.5101,138.8159 Q224.5101,140.9077 225.1949,141.9744 Q225.8797,143.041 227.2244,143.041 Q227.8553,143.041 228.4488,142.7712 Q229.0423,142.5015 229.6731,141.9204 Z " fill="#000000"/><text fill="#000000" font-family="sans-serif" font-size="12" lengthAdjust="spacingAndGlyphs" textLength="48" x="242.8" y="143.0352">td:Thing</text><line style="stroke:#A80036;stroke-width:1.5;" x1="206" x2="300" y1="154.5" y2="154.5"/><text fill="#000000" font-family="sans-serif" font-size="11" lengthAdjust="spacingAndGlyphs" textLength="84" x="211" y="169.1348">tdd:registration</text><text fill="#000000" font-family="sans-serif" font-size="11" lengthAdjust="spacingAndGlyphs" textLength="9" x="211" y="182.0898">...</text><!--MD5=[4d704f0a3861ddd137be5d5c222befd9]
class DD--><rect codeLine="30" fill="#FEFECE" filter="url(#fek1zfdj6grhr)" height="52.9551" id="DD" style="stroke:#A80036;stroke-width:1.5;" width="207" x="12.5" y="256"/><ellipse cx="27.5" cy="272" fill="#ADD1B2" rx="11" ry="11" style="stroke:#A80036;stroke-width:1.0;"/><path d="M29.9731,278.1431 Q29.3921,278.4419 28.7529,278.5913 Q28.1138,278.7407 27.4082,278.7407 Q24.9014,278.7407 23.5815,277.0889 Q22.2617,275.437 22.2617,272.3159 Q22.2617,269.1865 23.5815,267.5347 Q24.9014,265.8828 27.4082,265.8828 Q28.1138,265.8828 28.7612,266.0322 Q29.4087,266.1816 29.9731,266.4805 L29.9731,269.2031 Q29.3423,268.6221 28.7488,268.3523 Q28.1553,268.0825 27.5244,268.0825 Q26.1797,268.0825 25.4949,269.1492 Q24.8101,270.2158 24.8101,272.3159 Q24.8101,274.4077 25.4949,275.4744 Q26.1797,276.541 27.5244,276.541 Q28.1553,276.541 28.7488,276.2712 Q29.3423,276.0015 29.9731,275.4204 Z " fill="#000000"/><text fill="#000000" font-family="sans-serif" font-size="12" lengthAdjust="spacingAndGlyphs" textLength="175" x="41.5" y="276.5352">discovery:DirectoryDescription</text><line style="stroke:#A80036;stroke-width:1.5;" x1="13.5" x2="218.5" y1="288" y2="288"/><text fill="#000000" font-family="sans-serif" font-size="11" lengthAdjust="spacingAndGlyphs" textLength="9" x="18.5" y="302.6348">...</text><!--MD5=[9e34219925b96e56dd1c79f55da28bf5]
class LD--><rect codeLine="35" fill="#FEFECE" filter="url(#fek1zfdj6grhr)" height="52.9551" id="LD" style="stroke:#A80036;stroke-width:1.5;" width="178" x="255" y="256"/><ellipse cx="270" cy="272" fill="#ADD1B2" rx="11" ry="11" style="stroke:#A80036;stroke-width:1.0;"/><path d="M272.4731,278.1431 Q271.8921,278.4419 271.2529,278.5913 Q270.6138,278.7407 269.9082,278.7407 Q267.4014,278.7407 266.0815,277.0889 Q264.7617,275.437 264.7617,272.3159 Q264.7617,269.1865 266.0815,267.5347 Q267.4014,265.8828 269.9082,265.8828 Q270.6138,265.8828 271.2612,266.0322 Q271.9087,266.1816 272.4731,266.4805 L272.4731,269.2031 Q271.8423,268.6221 271.2488,268.3523 Q270.6553,268.0825 270.0244,268.0825 Q268.6797,268.0825 267.9949,269.1492 Q267.3101,270.2158 267.3101,272.3159 Q267.3101,274.4077 267.9949,275.4744 Q268.6797,276.541 270.0244,276.541 Q270.6553,276.541 271.2488,276.2712 Q271.8423,276.0015 272.4731,275.4204 Z " fill="#000000"/><text fill="#000000" font-family="sans-serif" font-size="12" lengthAdjust="spacingAndGlyphs" textLength="146" x="284" y="276.5352">discovery:LinkDescription</text><line style="stroke:#A80036;stroke-width:1.5;" x1="256" x2="432" y1="288" y2="288"/><text fill="#000000" font-family="sans-serif" font-size="11" lengthAdjust="spacingAndGlyphs" textLength="9" x="261" y="302.6348">...</text><!--MD5=[b0d235383f18272a9799c4b40fc1822a]
class RI--><rect codeLine="22" fill="#FEFECE" filter="url(#fek1zfdj6grhr)" height="78.8652" id="RI" style="stroke:#A80036;stroke-width:1.5;" width="145" x="336.5" y="116"/><ellipse cx="351.5" cy="132" fill="#ADD1B2" rx="11" ry="11" style="stroke:#A80036;stroke-width:1.0;"/><path d="M353.9731,138.1431 Q353.3921,138.4419 352.7529,138.5913 Q352.1138,138.7407 351.4082,138.7407 Q348.9014,138.7407 347.5815,137.0889 Q346.2617,135.437 346.2617,132.3159 Q346.2617,129.1865 347.5815,127.5347 Q348.9014,125.8828 351.4082,125.8828 Q352.1138,125.8828 352.7612,126.0322 Q353.4087,126.1816 353.9731,126.4805 L353.9731,129.2031 Q353.3423,128.6221 352.7488,128.3523 Q352.1553,128.0825 351.5244,128.0825 Q350.1797,128.0825 349.4949,129.1492 Q348.8101,130.2158 348.8101,132.3159 Q348.8101,134.4077 349.4949,135.4744 Q350.1797,136.541 351.5244,136.541 Q352.1553,136.541 352.7488,136.2712 Q353.3423,136.0015 353.9731,135.4204 Z " fill="#000000"/><text fill="#000000" font-family="sans-serif" font-size="12" lengthAdjust="spacingAndGlyphs" textLength="113" x="365.5" y="136.5352">tdd:RegistrationInfo</text><line style="stroke:#A80036;stroke-width:1.5;" x1="337.5" x2="480.5" y1="148" y2="148"/><text fill="#000000" font-family="sans-serif" font-size="11" lengthAdjust="spacingAndGlyphs" textLength="121" x="342.5" y="162.6348">tdd:created {readOnly}</text><text fill="#000000" font-family="sans-serif" font-size="11" lengthAdjust="spacingAndGlyphs" textLength="91" x="342.5" y="175.5898">tdd:id {readOnly}</text><text fill="#000000" font-family="sans-serif" font-size="11" lengthAdjust="spacingAndGlyphs" textLength="128" x="342.5" y="188.5449">tdd:modified {readOnly}</text><!--MD5=[1053da7555f32ea3c982e01119b403ff]
class Thing--><rect fill="#FEFECE" filter="url(#fek1zfdj6grhr)" height="32" id="Thing" style="stroke:#A80036;stroke-width:1.5;" width="64" x="167" y="7"/><ellipse cx="182" cy="23" fill="#ADD1B2" rx="11" ry="11" style="stroke:#A80036;stroke-width:1.0;"/><path d="M184.4731,29.1431 Q183.8921,29.4419 183.2529,29.5913 Q182.6138,29.7407 181.9082,29.7407 Q179.4014,29.7407 178.0815,28.0889 Q176.7617,26.437 176.7617,23.3159 Q176.7617,20.1865 178.0815,18.5347 Q179.4014,16.8828 181.9082,16.8828 Q182.6138,16.8828 183.2612,17.0322 Q183.9087,17.1816 184.4731,17.4805 L184.4731,20.2031 Q183.8423,19.6221 183.2488,19.3523 Q182.6553,19.0825 182.0244,19.0825 Q180.6797,19.0825 179.9949,20.1492 Q179.3101,21.2158 179.3101,23.3159 Q179.3101,25.4077 179.9949,26.4744 Q180.6797,27.541 182.0244,27.541 Q182.6553,27.541 183.2488,27.2712 Q183.8423,27.0015 184.4731,26.4204 Z " fill="#000000"/><text fill="#000000" font-family="sans-serif" font-size="12" lengthAdjust="spacingAndGlyphs" textLength="32" x="196" y="27.5352">Thing</text><!--MD5=[9bd2b2bc45261200a440e1ecb7c43192]
class Directory--><rect codeLine="14" fill="#FEFECE" filter="url(#fek1zfdj6grhr)" height="32" id="Directory" style="stroke:#A80036;stroke-width:1.5;" width="84" x="266" y="7"/><ellipse cx="281" cy="23" fill="#ADD1B2" rx="11" ry="11" style="stroke:#A80036;stroke-width:1.0;"/><path d="M283.4731,29.1431 Q282.8921,29.4419 282.2529,29.5913 Q281.6138,29.7407 280.9082,29.7407 Q278.4014,29.7407 277.0815,28.0889 Q275.7617,26.437 275.7617,23.3159 Q275.7617,20.1865 277.0815,18.5347 Q278.4014,16.8828 280.9082,16.8828 Q281.6138,16.8828 282.2612,17.0322 Q282.9087,17.1816 283.4731,17.4805 L283.4731,20.2031 Q282.8423,19.6221 282.2488,19.3523 Q281.6553,19.0825 281.0244,19.0825 Q279.6797,19.0825 278.9949,20.1492 Q278.3101,21.2158 278.3101,23.3159 Q278.3101,25.4077 278.9949,26.4744 Q279.6797,27.541 281.0244,27.541 Q281.6553,27.541 282.2488,27.2712 Q282.8423,27.0015 283.4731,26.4204 Z " fill="#000000"/><text fill="#000000" font-family="sans-serif" font-size="12" lengthAdjust="spacingAndGlyphs" textLength="52" x="295" y="27.5352">Directory</text><path d="M6,143 L6,168.3105 A0,0 0 0 0 6,168.3105 L170,168.3105 A0,0 0 0 0 170,168.3105 L170,161 L204.7949,155.5 L170,153 L170,153 L160,143 L6,143 A0,0 0 0 0 6,143 " fill="#FBFB77" filter="url(#fek1zfdj6grhr)" style="stroke:#A80036;stroke-width:1.0;"/><path d="M160,143 L160,153 L170,153 L160,143 " fill="#FBFB77" style="stroke:#A80036;stroke-width:1.0;"/><text fill="#000000" font-family="sans-serif" font-size="13" lengthAdjust="spacingAndGlyphs" textLength="143" x="12" y="160.5684">Thing Description (TD)</text><!--MD5=[bccdf10eb4c083912b60a8157a004f17]
link Thing to TD--><path codeLine="7" d="M200.4889,39.2255 C202.0565,52.2122 205.1439,70.7163 211,86 C215.792,98.5066 222.8113,111.3018 229.7449,122.4492 " fill="none" id="Thing-TD" style="stroke:#A80036;stroke-width:1.0;"/><text fill="#000000" font-family="sans-serif" font-size="13" lengthAdjust="spacingAndGlyphs" textLength="52" x="212" y="82.5684">exposes</text><text fill="#000000" font-family="sans-serif" font-size="13" lengthAdjust="spacingAndGlyphs" textLength="8" x="191.6571" y="59.7044">1</text><text fill="#000000" font-family="sans-serif" font-size="13" lengthAdjust="spacingAndGlyphs" textLength="24" x="194.061" y="111.6952">0..1</text><!--MD5=[22095c50f58adeae0dd4a30b6d5b7e14]
link Directory to TD--><path codeLine="8" d="M301.2559,39.2471 C292.7079,59.8401 277.7631,95.8435 266.7635,122.3424 " fill="none" id="Directory-TD" style="stroke:#A80036;stroke-width:1.0;"/><text fill="#000000" font-family="sans-serif" font-size="13" lengthAdjust="spacingAndGlyphs" textLength="54" x="289" y="82.5684">contains</text><text fill="#000000" font-family="sans-serif" font-size="13" lengthAdjust="spacingAndGlyphs" textLength="8" x="285.1937" y="59.4343">1</text><text fill="#000000" font-family="sans-serif" font-size="13" lengthAdjust="spacingAndGlyphs" textLength="22" x="245.3335" y="111.5664">0..*</text><!--MD5=[1dc66e9d1b43fe258a92c3d7bc90687d]
reverse link TD to RI--><path codeLine="9" d="M314.2544,155.5 C321.5398,155.5 328.8252,155.5 336.1107,155.5 " fill="none" id="TD-backto-RI" style="stroke:#A80036;stroke-width:1.0;"/><polygon fill="#A80036" points="301.1406,155.5,307.1406,159.5,313.1406,155.5,307.1406,151.5,301.1406,155.5" style="stroke:#A80036;stroke-width:1.0;"/><!--MD5=[127232005f16be5edd0ed8d4c6bc081f]
reverse link TD to DD--><path codeLine="10" d="M202.415,202.3927 C183.0667,220.3286 161.6675,240.1659 145.0044,255.6127 " fill="none" id="TD-backto-DD" style="stroke:#A80036;stroke-width:1.0;"/><polygon fill="none" points="197.9363,196.9994,217.3625,188.5362,207.454,207.2665,197.9363,196.9994" style="stroke:#A80036;stroke-width:1.0;"/><!--MD5=[8e173e157ab12f5f8cf7023cd3f55b65]
reverse link TD to LD--><path codeLine="11" d="M288.3258,204.8008 C300.7124,222.0876 314.1592,240.8541 324.7343,255.6127 " fill="none" id="TD-backto-LD" style="stroke:#A80036;stroke-width:1.0;"/><polygon fill="none" points="282.6306,208.8707,276.6716,188.5362,294.0107,200.7164,282.6306,208.8707" style="stroke:#A80036;stroke-width:1.0;"/><!--MD5=[774ba18c5face1631167d8c8979d0bd1]
@startuml exploration-class-diagram
class TD as "td:Thing"
class DD as "discovery:DirectoryDescription"
class LD as "discovery:LinkDescription"
class RI as "tdd:RegistrationInfo"

/' relations '/
Thing "1" - - "0..1 " TD: exposes
Directory "1 " - - "0..*" TD: contains
TD *-right- RI
TD <|- - DD
TD <|- - LD

/' classes and notes '/
class Directory {

}
class TD {
    tdd:registration
    ...
}
note left: Thing Description (TD)
class RI {
    tdd:created {readOnly}
    ' tdd:expires
    tdd:id {readOnly}
    tdd:modified {readOnly}
    ' tdd:ttl
}
together {
    class DD {
        ...
    }
    note bottom: TD that describes\na Directory

    class LD {
        ...
    }
    note bottom: TD that describes\na reference to another TD
}

/' configurations '/
hide Directory members
hide Thing members
' hide members
hide methods
@enduml

@startuml exploration-class-diagram
class TD as "td:Thing"
class DD as "discovery:DirectoryDescription"
class LD as "discovery:LinkDescription"
class RI as "tdd:RegistrationInfo"

Thing "1" - - "0..1 " TD: exposes
Directory "1 " - - "0..*" TD: contains
TD *-right- RI
TD <|- - DD
TD <|- - LD

class Directory {

}
class TD {
    tdd:registration
    ...
}
note left: Thing Description (TD)
class RI {
    tdd:created {readOnly}
    tdd:id {readOnly}
    tdd:modified {readOnly}
}
together {
    class DD {
        ...
    }
    note bottom: TD that describes\na Directory

    class LD {
        ...
    }
    note bottom: TD that describes\na reference to another TD
}

hide Directory members
hide Thing members
hide methods
@enduml

PlantUML version 1.2020.22(Sun Dec 06 10:36:27 CET 2020)
(GPL source distribution)
Java Runtime: Java(TM) SE Runtime Environment
JVM: Java HotSpot(TM) 64-Bit Server VM
Default Encoding: UTF-8
Language: en
Country: US
--></g></svg>