<?xml version="1.0" encoding="UTF-8" standalone="no"?><svg xmlns="http://www.w3.org/2000/svg" xmlns:xlink="http://www.w3.org/1999/xlink" contentScriptType="application/ecmascript" contentStyleType="text/css" height="671px" preserveAspectRatio="none" style="width:603px;height:671px;" version="1.1" viewBox="0 0 603 671" width="603px" zoomAndPan="magnify"><defs><filter height="300%" id="f12fdpcxkab91f" width="300%" x="-1" y="-1"><feGaussianBlur result="blurOut" stdDeviation="2.0"/><feColorMatrix in="blurOut" result="blurOut2" type="matrix" values="0 0 0 0 0 0 0 0 0 0 0 0 0 0 0 0 0 0 .4 0"/><feOffset dx="4.0" dy="4.0" in="blurOut2" result="blurOut3"/><feBlend in="SourceGraphic" in2="blurOut3" mode="normal"/></filter></defs><g><!--MD5=[f66eb5cd0a27e450a5267fbcb4094f6d]
class TD--><rect codeLine="8" fill="#FEFECE" filter="url(#f12fdpcxkab91f)" height="40" id="TD" style="stroke:#A80036;stroke-width:1.5;" width="80" x="284" y="237"/><ellipse cx="299" cy="253" fill="#ADD1B2" rx="11" ry="11" style="stroke:#A80036;stroke-width:1.0;"/><path d="M301.4731,259.1431 Q300.8921,259.4419 300.2529,259.5913 Q299.6138,259.7407 298.9082,259.7407 Q296.4014,259.7407 295.0815,258.0889 Q293.7617,256.437 293.7617,253.3159 Q293.7617,250.1865 295.0815,248.5347 Q296.4014,246.8828 298.9082,246.8828 Q299.6138,246.8828 300.2612,247.0322 Q300.9087,247.1816 301.4731,247.4805 L301.4731,250.2031 Q300.8423,249.6221 300.2488,249.3523 Q299.6553,249.0825 299.0244,249.0825 Q297.6797,249.0825 296.9949,250.1492 Q296.3101,251.2158 296.3101,253.3159 Q296.3101,255.4077 296.9949,256.4744 Q297.6797,257.541 299.0244,257.541 Q299.6553,257.541 300.2488,257.2712 Q300.8423,257.0015 301.4731,256.4204 Z " fill="#000000"/><text fill="#000000" font-family="sans-serif" font-size="12" lengthAdjust="spacing" textLength="48" x="313" y="257.5352">td:Thing</text><line style="stroke:#A80036;stroke-width:1.5;" x1="285" x2="363" y1="269" y2="269"/><path d="M85,244.5 L85,269.8105 A0,0 0 0 0 85,269.8105 L249,269.8105 A0,0 0 0 0 249,269.8105 L249,262.5 L283.9594,257 L249,254.5 L249,254.5 L239,244.5 L85,244.5 A0,0 0 0 0 85,244.5 " fill="#FBFB77" filter="url(#f12fdpcxkab91f)" style="stroke:#A80036;stroke-width:1.0;"/><path d="M239,244.5 L239,254.5 L249,254.5 L239,244.5 " fill="#FBFB77" style="stroke:#A80036;stroke-width:1.0;"/><text fill="#000000" font-family="sans-serif" font-size="13" lengthAdjust="spacing" textLength="143" x="91" y="262.0684">Thing Description (TD)</text><!--MD5=[4d704f0a3861ddd137be5d5c222befd9]
class DD--><rect codeLine="11" fill="#FEFECE" filter="url(#f12fdpcxkab91f)" height="40" id="DD" style="stroke:#A80036;stroke-width:1.5;" width="207" x="220.5" y="416"/><ellipse cx="235.5" cy="432" fill="#ADD1B2" rx="11" ry="11" style="stroke:#A80036;stroke-width:1.0;"/><path d="M237.9731,438.1431 Q237.3921,438.4419 236.7529,438.5913 Q236.1138,438.7407 235.4082,438.7407 Q232.9014,438.7407 231.5815,437.0889 Q230.2617,435.437 230.2617,432.3159 Q230.2617,429.1865 231.5815,427.5347 Q232.9014,425.8828 235.4082,425.8828 Q236.1138,425.8828 236.7612,426.0322 Q237.4087,426.1816 237.9731,426.4805 L237.9731,429.2031 Q237.3423,428.6221 236.7488,428.3523 Q236.1553,428.0825 235.5244,428.0825 Q234.1797,428.0825 233.4949,429.1492 Q232.8101,430.2158 232.8101,432.3159 Q232.8101,434.4077 233.4949,435.4744 Q234.1797,436.541 235.5244,436.541 Q236.1553,436.541 236.7488,436.2712 Q237.3423,436.0015 237.9731,435.4204 Z " fill="#000000"/><text fill="#000000" font-family="sans-serif" font-size="12" lengthAdjust="spacing" textLength="175" x="249.5" y="436.5352">discovery:DirectoryDescription</text><line style="stroke:#A80036;stroke-width:1.5;" x1="221.5" x2="426.5" y1="448" y2="448"/><!--MD5=[9e34219925b96e56dd1c79f55da28bf5]
class LD--><rect codeLine="14" fill="#FEFECE" filter="url(#f12fdpcxkab91f)" height="40" id="LD" style="stroke:#A80036;stroke-width:1.5;" width="178" x="7" y="416"/><ellipse cx="22" cy="432" fill="#ADD1B2" rx="11" ry="11" style="stroke:#A80036;stroke-width:1.0;"/><path d="M24.4731,438.1431 Q23.8921,438.4419 23.2529,438.5913 Q22.6138,438.7407 21.9082,438.7407 Q19.4014,438.7407 18.0815,437.0889 Q16.7617,435.437 16.7617,432.3159 Q16.7617,429.1865 18.0815,427.5347 Q19.4014,425.8828 21.9082,425.8828 Q22.6138,425.8828 23.2612,426.0322 Q23.9087,426.1816 24.4731,426.4805 L24.4731,429.2031 Q23.8423,428.6221 23.2488,428.3523 Q22.6553,428.0825 22.0244,428.0825 Q20.6797,428.0825 19.9949,429.1492 Q19.3101,430.2158 19.3101,432.3159 Q19.3101,434.4077 19.9949,435.4744 Q20.6797,436.541 22.0244,436.541 Q22.6553,436.541 23.2488,436.2712 Q23.8423,436.0015 24.4731,435.4204 Z " fill="#000000"/><text fill="#000000" font-family="sans-serif" font-size="12" lengthAdjust="spacing" textLength="146" x="36" y="436.5352">discovery:LinkDescription</text><line style="stroke:#A80036;stroke-width:1.5;" x1="8" x2="184" y1="448" y2="448"/><!--MD5=[95af8c7c8ba034aaf541810ac2c49e0d]
class EnrichedTD--><rect codeLine="17" fill="#FEFECE" filter="url(#f12fdpcxkab91f)" height="72.1758" id="EnrichedTD" style="stroke:#A80036;stroke-width:1.5;" width="96" x="291" y="583.5"/><ellipse cx="308.7" cy="602.6328" fill="#ADD1B2" rx="11" ry="11" style="stroke:#A80036;stroke-width:1.0;"/><path d="M311.1731,608.7759 Q310.5921,609.0747 309.9529,609.2241 Q309.3138,609.3735 308.6082,609.3735 Q306.1014,609.3735 304.7815,607.7217 Q303.4617,606.0698 303.4617,602.9487 Q303.4617,599.8193 304.7815,598.1675 Q306.1014,596.5156 308.6082,596.5156 Q309.3138,596.5156 309.9612,596.665 Q310.6087,596.8145 311.1731,597.1133 L311.1731,599.8359 Q310.5423,599.2549 309.9488,598.9851 Q309.3553,598.7153 308.7244,598.7153 Q307.3797,598.7153 306.6949,599.782 Q306.0101,600.8486 306.0101,602.9487 Q306.0101,605.0405 306.6949,606.1072 Q307.3797,607.1738 308.7244,607.1738 Q309.3553,607.1738 309.9488,606.9041 Q310.5423,606.6343 311.1731,606.0532 Z " fill="#000000"/><text fill="#000000" font-family="sans-serif" font-size="12" font-style="italic" lengthAdjust="spacing" textLength="62" x="321.3" y="600.1016">«enriched»</text><text fill="#000000" font-family="sans-serif" font-size="12" lengthAdjust="spacing" textLength="48" x="328.3" y="614.2344">td:Thing</text><line style="stroke:#A80036;stroke-width:1.5;" x1="292" x2="386" y1="621.7656" y2="621.7656"/><text fill="#000000" font-family="sans-serif" font-size="11" lengthAdjust="spacing" textLength="84" x="297" y="636.4004">tdd:registration</text><text fill="#000000" font-family="sans-serif" font-size="11" lengthAdjust="spacing" textLength="9" x="297" y="649.3555">...</text><!--MD5=[1053da7555f32ea3c982e01119b403ff]
class Thing--><rect codeLine="4" fill="#FEFECE" filter="url(#f12fdpcxkab91f)" height="46.2656" id="Thing" style="stroke:#A80036;stroke-width:1.5;" width="80" x="363" y="7"/><ellipse cx="378" cy="26.1328" fill="#ADD1B2" rx="11" ry="11" style="stroke:#A80036;stroke-width:1.0;"/><path d="M380.4731,32.2759 Q379.8921,32.5747 379.2529,32.7241 Q378.6138,32.8735 377.9082,32.8735 Q375.4014,32.8735 374.0815,31.2217 Q372.7617,29.5698 372.7617,26.4487 Q372.7617,23.3193 374.0815,21.6675 Q375.4014,20.0156 377.9082,20.0156 Q378.6138,20.0156 379.2612,20.165 Q379.9087,20.3145 380.4731,20.6133 L380.4731,23.3359 Q379.8423,22.7549 379.2488,22.4851 Q378.6553,22.2153 378.0244,22.2153 Q376.6797,22.2153 375.9949,23.282 Q375.3101,24.3486 375.3101,26.4487 Q375.3101,28.5405 375.9949,29.6072 Q376.6797,30.6738 378.0244,30.6738 Q378.6553,30.6738 379.2488,30.4041 Q379.8423,30.1343 380.4731,29.5532 Z " fill="#000000"/><text fill="#000000" font-family="sans-serif" font-size="12" font-style="italic" lengthAdjust="spacing" textLength="52" x="390" y="23.6016">«service»</text><text fill="#000000" font-family="sans-serif" font-size="12" lengthAdjust="spacing" textLength="32" x="400" y="37.7344">Thing</text><line style="stroke:#A80036;stroke-width:1.5;" x1="364" x2="442" y1="45.2656" y2="45.2656"/><!--MD5=[0c8f81674d0e9026104f104b6fbe6eff]
class SelfDesc--><rect codeLine="5" fill="#FEFECE" filter="url(#f12fdpcxkab91f)" height="46.2656" id="SelfDesc" style="stroke:#A80036;stroke-width:1.5;" width="155" x="248.5" y="114"/><ellipse cx="263.5" cy="133.1328" fill="#ADD1B2" rx="11" ry="11" style="stroke:#A80036;stroke-width:1.0;"/><path d="M265.9731,139.2759 Q265.3921,139.5747 264.7529,139.7241 Q264.1138,139.8735 263.4082,139.8735 Q260.9014,139.8735 259.5815,138.2217 Q258.2617,136.5698 258.2617,133.4487 Q258.2617,130.3193 259.5815,128.6675 Q260.9014,127.0156 263.4082,127.0156 Q264.1138,127.0156 264.7612,127.165 Q265.4087,127.3145 265.9731,127.6133 L265.9731,130.3359 Q265.3423,129.7549 264.7488,129.4851 Q264.1553,129.2153 263.5244,129.2153 Q262.1797,129.2153 261.4949,130.282 Q260.8101,131.3486 260.8101,133.4487 Q260.8101,135.5405 261.4949,136.6072 Q262.1797,137.6738 263.5244,137.6738 Q264.1553,137.6738 264.7488,137.4041 Q265.3423,137.1343 265.9731,136.5532 Z " fill="#000000"/><text fill="#000000" font-family="sans-serif" font-size="12" font-style="italic" lengthAdjust="spacing" textLength="52" x="313" y="130.6016">«service»</text><text fill="#000000" font-family="sans-serif" font-size="12" lengthAdjust="spacing" textLength="123" x="277.5" y="144.7344">Self-describing Thing</text><line style="stroke:#A80036;stroke-width:1.5;" x1="249.5" x2="402.5" y1="152.2656" y2="152.2656"/><!--MD5=[9bd2b2bc45261200a440e1ecb7c43192]
class Directory--><rect codeLine="6" fill="#FEFECE" filter="url(#f12fdpcxkab91f)" height="46.2656" id="Directory" style="stroke:#A80036;stroke-width:1.5;" width="84" x="439" y="114"/><ellipse cx="454" cy="133.1328" fill="#ADD1B2" rx="11" ry="11" style="stroke:#A80036;stroke-width:1.0;"/><path d="M456.4731,139.2759 Q455.8921,139.5747 455.2529,139.7241 Q454.6138,139.8735 453.9082,139.8735 Q451.4014,139.8735 450.0815,138.2217 Q448.7617,136.5698 448.7617,133.4487 Q448.7617,130.3193 450.0815,128.6675 Q451.4014,127.0156 453.9082,127.0156 Q454.6138,127.0156 455.2612,127.165 Q455.9087,127.3145 456.4731,127.6133 L456.4731,130.3359 Q455.8423,129.7549 455.2488,129.4851 Q454.6553,129.2153 454.0244,129.2153 Q452.6797,129.2153 451.9949,130.282 Q451.3101,131.3486 451.3101,133.4487 Q451.3101,135.5405 451.9949,136.6072 Q452.6797,137.6738 454.0244,137.6738 Q454.6553,137.6738 455.2488,137.4041 Q455.8423,137.1343 456.4731,136.5532 Z " fill="#000000"/><text fill="#000000" font-family="sans-serif" font-size="12" font-style="italic" lengthAdjust="spacing" textLength="52" x="468" y="130.6016">«service»</text><text fill="#000000" font-family="sans-serif" font-size="12" lengthAdjust="spacing" textLength="52" x="468" y="144.7344">Directory</text><line style="stroke:#A80036;stroke-width:1.5;" x1="440" x2="522" y1="152.2656" y2="152.2656"/><!--MD5=[b0d235383f18272a9799c4b40fc1822a]
class RI--><rect codeLine="22" fill="#FEFECE" filter="url(#f12fdpcxkab91f)" height="78.8652" id="RI" style="stroke:#A80036;stroke-width:1.5;" width="145" x="444.5" y="579"/><ellipse cx="459.5" cy="595" fill="#ADD1B2" rx="11" ry="11" style="stroke:#A80036;stroke-width:1.0;"/><path d="M461.9731,601.1431 Q461.3921,601.4419 460.7529,601.5913 Q460.1138,601.7407 459.4082,601.7407 Q456.9014,601.7407 455.5815,600.0889 Q454.2617,598.437 454.2617,595.3159 Q454.2617,592.1865 455.5815,590.5347 Q456.9014,588.8828 459.4082,588.8828 Q460.1138,588.8828 460.7612,589.0322 Q461.4087,589.1816 461.9731,589.4805 L461.9731,592.2031 Q461.3423,591.6221 460.7488,591.3523 Q460.1553,591.0825 459.5244,591.0825 Q458.1797,591.0825 457.4949,592.1492 Q456.8101,593.2158 456.8101,595.3159 Q456.8101,597.4077 457.4949,598.4744 Q458.1797,599.541 459.5244,599.541 Q460.1553,599.541 460.7488,599.2712 Q461.3423,599.0015 461.9731,598.4204 Z " fill="#000000"/><text fill="#000000" font-family="sans-serif" font-size="12" lengthAdjust="spacing" textLength="113" x="473.5" y="599.5352">tdd:RegistrationInfo</text><line style="stroke:#A80036;stroke-width:1.5;" x1="445.5" x2="588.5" y1="611" y2="611"/><text fill="#000000" font-family="sans-serif" font-size="11" lengthAdjust="spacing" textLength="121" x="450.5" y="625.6348">tdd:created {readOnly}</text><text fill="#000000" font-family="sans-serif" font-size="11" lengthAdjust="spacing" textLength="91" x="450.5" y="638.5898">tdd:id {readOnly}</text><text fill="#000000" font-family="sans-serif" font-size="11" lengthAdjust="spacing" textLength="128" x="450.5" y="651.5449">tdd:modified {readOnly}</text><!--MD5=[88221bcd57db51459cd4199f69591b42]
reverse link Thing to SelfDesc--><path codeLine="31" d="M374.4542,69.6675 C363.754,84.5366 351.9523,100.9364 342.6752,113.8279 " fill="none" id="Thing-backto-SelfDesc" style="stroke:#A80036;stroke-width:1.0;"/><polygon fill="none" points="368.9283,65.3622,386.2921,53.2174,380.2918,73.5397,368.9283,65.3622" style="stroke:#A80036;stroke-width:1.0;"/><!--MD5=[6811a1fa3166692e42720dcd61a45561]
reverse link Thing to Directory--><path codeLine="32" d="M431.9165,69.6675 C442.7557,84.5366 454.7106,100.9364 464.1082,113.8279 " fill="none" id="Thing-backto-Directory" style="stroke:#A80036;stroke-width:1.0;"/><polygon fill="none" points="426.0497,73.5026,419.9248,53.2174,437.3629,65.2556,426.0497,73.5026" style="stroke:#A80036;stroke-width:1.0;"/><!--MD5=[962830750a9a6ad5a90804d94990eddc]
link SelfDesc to TD--><path codeLine="33" d="M325.6144,160.1372 C325.2732,180.6054 324.7764,210.418 324.4241,231.5531 " fill="none" id="SelfDesc-to-TD" style="stroke:#A80036;stroke-width:1.0;"/><polygon fill="#A80036" points="324.3379,236.7285,328.4875,227.7965,324.4213,231.7292,320.4886,227.663,324.3379,236.7285" style="stroke:#A80036;stroke-width:1.0;"/><text fill="#000000" font-family="sans-serif" font-size="13" lengthAdjust="spacing" textLength="40" x="326" y="203.5684">serves</text><text fill="#000000" font-family="sans-serif" font-size="13" lengthAdjust="spacing" textLength="8" x="316.4358" y="180.9453">1</text><text fill="#000000" font-family="sans-serif" font-size="13" lengthAdjust="spacing" textLength="24" x="296.9122" y="226.1846">0..1</text><!--MD5=[127232005f16be5edd0ed8d4c6bc081f]
reverse link TD to DD--><path codeLine="34" d="M324,297.2114 C324,334.1098 324,387.2502 324,415.8881 " fill="none" id="TD-backto-DD" style="stroke:#A80036;stroke-width:1.0;"/><polygon fill="none" points="317.0001,297.1857,324,277.1856,331.0001,297.1856,317.0001,297.1857" style="stroke:#A80036;stroke-width:1.0;"/><!--MD5=[8e173e157ab12f5f8cf7023cd3f55b65]
reverse link TD to LD--><path codeLine="35" d="M282.3844,289.6719 C235.4702,326.5037 160.6635,385.2335 121.6173,415.8881 " fill="none" id="TD-backto-LD" style="stroke:#A80036;stroke-width:1.0;"/><polygon fill="none" points="278.2349,284.0301,298.2887,277.1856,286.8802,295.0419,278.2349,284.0301" style="stroke:#A80036;stroke-width:1.0;"/><!--MD5=[f2f19270ffa1fa6253a610a2a790480c]
reverse link DD to EnrichedTD--><path codeLine="36" d="M327.3069,476.2337 C329.8282,506.9096 333.2811,548.9202 335.7805,579.3299 " fill="none" id="DD-backto-EnrichedTD" style="stroke:#A80036;stroke-width:1.0;"/><polygon fill="none" points="320.3245,476.7342,325.6626,456.228,334.2775,475.5873,320.3245,476.7342" style="stroke:#A80036;stroke-width:1.0;"/><!--MD5=[3bde058056c2a66700cce05c2faa9302]
reverse link LD to EnrichedTD--><path codeLine="37" d="M138.9543,468.2599 C180.2451,499.2705 242.7177,546.1892 286.8448,579.3299 " fill="none" id="LD-backto-EnrichedTD" style="stroke:#A80036;stroke-width:1.0;"/><polygon fill="none" points="134.7221,473.8358,122.9337,456.228,143.1295,462.6413,134.7221,473.8358" style="stroke:#A80036;stroke-width:1.0;"/><!--MD5=[bf032586e29ae7f8c671ce04dd8aca3f]
link Directory to EnrichedTD--><path codeLine="38" d="M481,160.0048 C481,184.1606 481,223.25 481,257 C481,257 481,257 481,517.5 C481,538.7218 438.3514,567.0176 399.8001,588.26 " fill="none" id="Directory-to-EnrichedTD" style="stroke:#A80036;stroke-width:1.0;"/><polygon fill="#A80036" points="395.1222,590.8146,404.9383,590.0117,399.5105,588.4182,401.104,582.9904,395.1222,590.8146" style="stroke:#A80036;stroke-width:1.0;"/><text fill="#000000" font-family="sans-serif" font-size="13" lengthAdjust="spacing" textLength="54" x="482" y="382.5684">contains</text><text fill="#000000" font-family="sans-serif" font-size="13" lengthAdjust="spacing" textLength="8" x="471.925" y="180.7774">1</text><text fill="#000000" font-family="sans-serif" font-size="13" lengthAdjust="spacing" textLength="22" x="395.1222" y="588.383">0..*</text><!--MD5=[61b1c4b94974b10549ecc41dc4f899f8]
reverse link EnrichedTD to RI--><path codeLine="39" d="M387,631.5 C405.5992,636.9453 425.6214,639.3126 444.2465,639.4564 " fill="none" id="EnrichedTD-backto-RI" style="stroke:#A80036;stroke-width:1.0;"/><polygon fill="#A80036" points="387,631.5,391.6344,637.0247,398.5166,634.8717,393.8822,629.347,387,631.5" style="stroke:#A80036;stroke-width:1.0;"/><!--MD5=[b90131358e840f2ece1574e06380f1f0]
@startuml exploration-class-diagram
/' global configurations '/
hide methods

class Thing <<service>>
class SelfDesc as "Self-describing Thing" <<service>>
class Directory <<service>>
together {
    class TD as "td:Thing"
    note left: Thing Description (TD)

    class DD as "discovery:DirectoryDescription"
    ' note left: TD that describes\na Directory

    class LD as "discovery:LinkDescription"
    ' note right: TD that describes\na reference to another TD

    class EnrichedTD as "td:Thing" <<enriched>> {
        tdd:registration
        ...
    }
}
class RI as "tdd:RegistrationInfo" {
    tdd:created {readOnly}
    ' tdd:expires
    tdd:id {readOnly}
    tdd:modified {readOnly}
    ' tdd:ttl
}

/' relations '/
Thing <|- - SelfDesc
Thing <|- - Directory
SelfDesc "1" - -> "0..1" TD: serves
TD <|- - DD
TD <|- - LD
EnrichedTD -up-|> DD
EnrichedTD -up-|> LD
Directory "1" - -> "0..*" EnrichedTD: contains
EnrichedTD::registration *-right- RI


@enduml

@startuml exploration-class-diagram
hide methods

class Thing <<service>>
class SelfDesc as "Self-describing Thing" <<service>>
class Directory <<service>>
together {
    class TD as "td:Thing"
    note left: Thing Description (TD)

    class DD as "discovery:DirectoryDescription"

    class LD as "discovery:LinkDescription"

    class EnrichedTD as "td:Thing" <<enriched>> {
        tdd:registration
        ...
    }
}
class RI as "tdd:RegistrationInfo" {
    tdd:created {readOnly}
    tdd:id {readOnly}
    tdd:modified {readOnly}
}

Thing <|- - SelfDesc
Thing <|- - Directory
SelfDesc "1" - -> "0..1" TD: serves
TD <|- - DD
TD <|- - LD
EnrichedTD -up-|> DD
EnrichedTD -up-|> LD
Directory "1" - -> "0..*" EnrichedTD: contains
EnrichedTD::registration *-right- RI


@enduml

PlantUML version 1.2021.00(Sun Jan 10 11:25:05 CET 2021)
(GPL source distribution)
Java Runtime: Java(TM) SE Runtime Environment
JVM: Java HotSpot(TM) 64-Bit Server VM
Default Encoding: UTF-8
Language: en
Country: US
--></g></svg>