<?xml version="1.0" encoding="UTF-8" standalone="no"?><svg xmlns="http://www.w3.org/2000/svg" xmlns:xlink="http://www.w3.org/1999/xlink" contentStyleType="text/css" height="273px" preserveAspectRatio="none" style="width:766px;height:273px;background:#FFFFFF;" version="1.1" viewBox="0 0 766 273" width="766px" zoomAndPan="magnify"><defs/><g><!--MD5=[0c8f81674d0e9026104f104b6fbe6eff]
class SelfDesc--><g id="elem_SelfDesc"><rect codeLine="9" fill="#F1F1F1" height="40.2656" id="SelfDesc" rx="2.5" ry="2.5" style="stroke:#181818;stroke-width:0.5;" width="179" x="580.5" y="110"/><ellipse cx="595.5" cy="130.1328" fill="#EB937F" rx="11" ry="11" style="stroke:#A80036;stroke-width:1.0;"/><path d="M594.9844,130.6953 Q593.125,129.9922 592.4688,129.2266 Q591.8281,128.4453 591.8281,127.1328 Q591.8281,125.4453 592.9063,124.4766 Q593.9844,123.5078 595.8594,123.5078 Q596.7188,123.5078 597.5625,123.7109 Q598.4219,123.8984 599.2656,124.2891 L599.2656,126.6797 Q598.4844,126.1172 597.6563,125.8359 Q596.8438,125.5391 596.0469,125.5391 Q595.1719,125.5391 594.6875,125.8984 Q594.2188,126.2578 594.2188,126.9141 Q594.2188,127.4297 594.5625,127.7734 Q594.9063,128.1016 596,128.5078 L597.0625,128.9141 Q598.5469,129.4609 599.25,130.3672 Q599.9688,131.2734 599.9688,132.6484 Q599.9688,134.5234 598.8594,135.4453 Q597.75,136.3672 595.5,136.3672 Q594.5781,136.3672 593.6563,136.1484 Q592.7344,135.9297 591.875,135.5078 L591.875,132.9766 Q592.8438,133.6641 593.7656,134.0078 Q594.6875,134.3516 595.5781,134.3516 Q596.4844,134.3516 596.9844,133.9453 Q597.4844,133.5234 597.4844,132.7891 Q597.4844,132.2266 597.1406,131.8203 Q596.8125,131.3984 596.1875,131.1484 L594.9844,130.6953 Z " fill="#000000"/><text fill="#000000" font-family="sans-serif" font-size="12" font-style="italic" lengthAdjust="spacing" textLength="57" x="654.5" y="126.1387">«service»</text><text fill="#000000" font-family="sans-serif" font-size="14" lengthAdjust="spacing" textLength="147" x="609.5" y="141.9639">Self-Describing Thing</text></g><!--MD5=[9bd2b2bc45261200a440e1ecb7c43192]
class Directory--><g id="elem_Directory"><rect codeLine="10" fill="#F1F1F1" height="40.2656" id="Directory" rx="2.5" ry="2.5" style="stroke:#181818;stroke-width:0.5;" width="220" x="325" y="110"/><ellipse cx="340" cy="130.1328" fill="#EB937F" rx="11" ry="11" style="stroke:#A80036;stroke-width:1.0;"/><path d="M339.4844,130.6953 Q337.625,129.9922 336.9688,129.2266 Q336.3281,128.4453 336.3281,127.1328 Q336.3281,125.4453 337.4063,124.4766 Q338.4844,123.5078 340.3594,123.5078 Q341.2188,123.5078 342.0625,123.7109 Q342.9219,123.8984 343.7656,124.2891 L343.7656,126.6797 Q342.9844,126.1172 342.1563,125.8359 Q341.3438,125.5391 340.5469,125.5391 Q339.6719,125.5391 339.1875,125.8984 Q338.7188,126.2578 338.7188,126.9141 Q338.7188,127.4297 339.0625,127.7734 Q339.4063,128.1016 340.5,128.5078 L341.5625,128.9141 Q343.0469,129.4609 343.75,130.3672 Q344.4688,131.2734 344.4688,132.6484 Q344.4688,134.5234 343.3594,135.4453 Q342.25,136.3672 340,136.3672 Q339.0781,136.3672 338.1563,136.1484 Q337.2344,135.9297 336.375,135.5078 L336.375,132.9766 Q337.3438,133.6641 338.2656,134.0078 Q339.1875,134.3516 340.0781,134.3516 Q340.9844,134.3516 341.4844,133.9453 Q341.9844,133.5234 341.9844,132.7891 Q341.9844,132.2266 341.6406,131.8203 Q341.3125,131.3984 340.6875,131.1484 L339.4844,130.6953 Z " fill="#000000"/><text fill="#000000" font-family="sans-serif" font-size="12" font-style="italic" lengthAdjust="spacing" textLength="57" x="419.5" y="126.1387">«service»</text><text fill="#000000" font-family="sans-serif" font-size="14" lengthAdjust="spacing" textLength="188" x="354" y="141.9639">Thing Description Directory</text></g><!--MD5=[69791c4cfce35b296fe4b79975128918]
class SelfDirectory--><g id="elem_SelfDirectory"><rect codeLine="11" fill="#F1F1F1" height="40.2656" id="SelfDirectory" rx="2.5" ry="2.5" style="stroke:#181818;stroke-width:0.5;" width="328" x="380" y="227"/><ellipse cx="395" cy="247.1328" fill="#EB937F" rx="11" ry="11" style="stroke:#A80036;stroke-width:1.0;"/><path d="M394.4844,247.6953 Q392.625,246.9922 391.9688,246.2266 Q391.3281,245.4453 391.3281,244.1328 Q391.3281,242.4453 392.4063,241.4766 Q393.4844,240.5078 395.3594,240.5078 Q396.2188,240.5078 397.0625,240.7109 Q397.9219,240.8984 398.7656,241.2891 L398.7656,243.6797 Q397.9844,243.1172 397.1563,242.8359 Q396.3438,242.5391 395.5469,242.5391 Q394.6719,242.5391 394.1875,242.8984 Q393.7188,243.2578 393.7188,243.9141 Q393.7188,244.4297 394.0625,244.7734 Q394.4063,245.1016 395.5,245.5078 L396.5625,245.9141 Q398.0469,246.4609 398.75,247.3672 Q399.4688,248.2734 399.4688,249.6484 Q399.4688,251.5234 398.3594,252.4453 Q397.25,253.3672 395,253.3672 Q394.0781,253.3672 393.1563,253.1484 Q392.2344,252.9297 391.375,252.5078 L391.375,249.9766 Q392.3438,250.6641 393.2656,251.0078 Q394.1875,251.3516 395.0781,251.3516 Q395.9844,251.3516 396.4844,250.9453 Q396.9844,250.5234 396.9844,249.7891 Q396.9844,249.2266 396.6406,248.8203 Q396.3125,248.3984 395.6875,248.1484 L394.4844,247.6953 Z " fill="#000000"/><text fill="#000000" font-family="sans-serif" font-size="12" font-style="italic" lengthAdjust="spacing" textLength="57" x="528.5" y="243.1387">«service»</text><text fill="#000000" font-family="sans-serif" font-size="14" lengthAdjust="spacing" textLength="296" x="409" y="258.9639">Self-Describing Thing Description Directory</text></g><!--MD5=[c60af77fe5573b84a4aa4bce89659574]
class Server--><g id="elem_Server"><rect codeLine="5" fill="#F1F1F1" height="40.2656" id="Server" rx="2.5" ry="2.5" style="stroke:#181818;stroke-width:0.5;" width="202" x="253" y="7"/><ellipse cx="268" cy="27.1328" fill="#EB937F" rx="11" ry="11" style="stroke:#A80036;stroke-width:1.0;"/><path d="M267.4844,27.6953 Q265.625,26.9922 264.9688,26.2266 Q264.3281,25.4453 264.3281,24.1328 Q264.3281,22.4453 265.4063,21.4766 Q266.4844,20.5078 268.3594,20.5078 Q269.2188,20.5078 270.0625,20.7109 Q270.9219,20.8984 271.7656,21.2891 L271.7656,23.6797 Q270.9844,23.1172 270.1563,22.8359 Q269.3438,22.5391 268.5469,22.5391 Q267.6719,22.5391 267.1875,22.8984 Q266.7188,23.2578 266.7188,23.9141 Q266.7188,24.4297 267.0625,24.7734 Q267.4063,25.1016 268.5,25.5078 L269.5625,25.9141 Q271.0469,26.4609 271.75,27.3672 Q272.4688,28.2734 272.4688,29.6484 Q272.4688,31.5234 271.3594,32.4453 Q270.25,33.3672 268,33.3672 Q267.0781,33.3672 266.1563,33.1484 Q265.2344,32.9297 264.375,32.5078 L264.375,29.9766 Q265.3438,30.6641 266.2656,31.0078 Q267.1875,31.3516 268.0781,31.3516 Q268.9844,31.3516 269.4844,30.9453 Q269.9844,30.5234 269.9844,29.7891 Q269.9844,29.2266 269.6406,28.8203 Q269.3125,28.3984 268.6875,28.1484 L267.4844,27.6953 Z " fill="#000000"/><text fill="#000000" font-family="sans-serif" font-size="12" font-style="italic" lengthAdjust="spacing" textLength="57" x="338.5" y="23.1387">«service»</text><text fill="#000000" font-family="sans-serif" font-size="14" lengthAdjust="spacing" textLength="170" x="282" y="38.9639">Thing Description Server</text></g><!--MD5=[1053da7555f32ea3c982e01119b403ff]
class Thing--><g id="elem_Thing"><rect codeLine="7" fill="#F1F1F1" height="40.2656" id="Thing" rx="2.5" ry="2.5" style="stroke:#181818;stroke-width:0.5;" width="85" x="525.5" y="7"/><ellipse cx="540.5" cy="27.1328" fill="#EB937F" rx="11" ry="11" style="stroke:#A80036;stroke-width:1.0;"/><path d="M539.9844,27.6953 Q538.125,26.9922 537.4688,26.2266 Q536.8281,25.4453 536.8281,24.1328 Q536.8281,22.4453 537.9063,21.4766 Q538.9844,20.5078 540.8594,20.5078 Q541.7188,20.5078 542.5625,20.7109 Q543.4219,20.8984 544.2656,21.2891 L544.2656,23.6797 Q543.4844,23.1172 542.6563,22.8359 Q541.8438,22.5391 541.0469,22.5391 Q540.1719,22.5391 539.6875,22.8984 Q539.2188,23.2578 539.2188,23.9141 Q539.2188,24.4297 539.5625,24.7734 Q539.9063,25.1016 541,25.5078 L542.0625,25.9141 Q543.5469,26.4609 544.25,27.3672 Q544.9688,28.2734 544.9688,29.6484 Q544.9688,31.5234 543.8594,32.4453 Q542.75,33.3672 540.5,33.3672 Q539.5781,33.3672 538.6563,33.1484 Q537.7344,32.9297 536.875,32.5078 L536.875,29.9766 Q537.8438,30.6641 538.7656,31.0078 Q539.6875,31.3516 540.5781,31.3516 Q541.4844,31.3516 541.9844,30.9453 Q542.4844,30.5234 542.4844,29.7891 Q542.4844,29.2266 542.1406,28.8203 Q541.8125,28.3984 541.1875,28.1484 L539.9844,27.6953 Z " fill="#000000"/><text fill="#000000" font-family="sans-serif" font-size="12" font-style="italic" lengthAdjust="spacing" textLength="57" x="552.5" y="23.1387">«service»</text><text fill="#000000" font-family="sans-serif" font-size="14" lengthAdjust="spacing" textLength="39" x="561.5" y="38.9639">Thing</text></g><!--MD5=[f66eb5cd0a27e450a5267fbcb4094f6d]
class TD--><g id="elem_TD"><rect codeLine="14" fill="#F0FFFF" height="32" id="TD" rx="2.5" ry="2.5" style="stroke:#181818;stroke-width:0.5;" width="90" x="203" y="231"/><ellipse cx="218" cy="247" fill="#ADD1B2" rx="11" ry="11" style="stroke:#181818;stroke-width:1.0;"/><path d="M220.9688,252.6406 Q220.3906,252.9375 219.75,253.0781 Q219.1094,253.2344 218.4063,253.2344 Q215.9063,253.2344 214.5781,251.5938 Q213.2656,249.9375 213.2656,246.8125 Q213.2656,243.6875 214.5781,242.0313 Q215.9063,240.375 218.4063,240.375 Q219.1094,240.375 219.75,240.5313 Q220.4063,240.6875 220.9688,240.9844 L220.9688,243.7031 Q220.3438,243.125 219.75,242.8594 Q219.1563,242.5781 218.5313,242.5781 Q217.1875,242.5781 216.5,243.6563 Q215.8125,244.7188 215.8125,246.8125 Q215.8125,248.9063 216.5,249.9844 Q217.1875,251.0469 218.5313,251.0469 Q219.1563,251.0469 219.75,250.7813 Q220.3438,250.5 220.9688,249.9219 L220.9688,252.6406 Z " fill="#000000"/><text fill="#000000" font-family="sans-serif" font-size="14" lengthAdjust="spacing" textLength="58" x="232" y="251.8467">td:Thing</text></g><g id="elem_GMN10"><path d="M6,234.5 L6,259.6328 A0,0 0 0 0 6,259.6328 L168,259.6328 A0,0 0 0 0 168,259.6328 L168,252.5 L202.76,247 L168,244.5 L168,244.5 L158,234.5 L6,234.5 A0,0 0 0 0 6,234.5 " fill="#FEFFDD" style="stroke:#181818;stroke-width:0.5;"/><path d="M158,234.5 L158,244.5 L168,244.5 L158,234.5 " fill="#FEFFDD" style="stroke:#181818;stroke-width:0.5;"/><text fill="#000000" font-family="sans-serif" font-size="13" lengthAdjust="spacing" textLength="141" x="12" y="251.5669">Thing Description (TD)</text></g><!--MD5=[88221bcd57db51459cd4199f69591b42]
reverse link Thing to SelfDesc--><g id="link_Thing_SelfDesc"><path codeLine="18" d="M602.15,61.82 C618.33,77.84 637.06,96.39 650.74,109.93 " fill="none" id="Thing-backto-SelfDesc" style="stroke:#181818;stroke-width:1.0;"/><polygon fill="none" points="596.95,66.52,587.67,47.47,606.8,56.57,596.95,66.52" style="stroke:#181818;stroke-width:1.0;"/></g><!--MD5=[34b9967e59f351fa19cf43a744ba6d63]
reverse link Server to SelfDesc--><g id="link_Server_SelfDesc"><path codeLine="19" d="M450.36,52.33 C486.02,61.97 526.6,73.68 563,86 C583.95,93.09 606.75,102.07 625.9,109.99 " fill="none" id="Server-backto-SelfDesc" style="stroke:#181818;stroke-width:1.0;"/><polygon fill="none" points="448.09,58.97,430.57,47.06,451.69,45.44,448.09,58.97" style="stroke:#181818;stroke-width:1.0;"/></g><!--MD5=[6811a1fa3166692e42720dcd61a45561]
reverse link Thing to Directory--><g id="link_Thing_Directory"><path codeLine="20" d="M526.7,59.36 C504.95,75.88 478.98,95.6 460.24,109.84 " fill="none" id="Thing-backto-Directory" style="stroke:#181818;stroke-width:1.0;"/><polygon fill="none" points="522.51,53.76,542.67,47.24,530.98,64.91,522.51,53.76" style="stroke:#181818;stroke-width:1.0;"/></g><!--MD5=[5501c5b9660a1443839fe5a919c91bb7]
reverse link Directory to SelfDirectory--><g id="link_Directory_SelfDirectory"><path codeLine="21" d="M467.08,164.84 C486.18,184.99 509.72,209.84 525.7,226.69 " fill="none" id="Directory-backto-SelfDirectory" style="stroke:#181818;stroke-width:1.0;"/><polygon fill="none" points="461.92,169.58,453.24,150.25,472.08,159.95,461.92,169.58" style="stroke:#181818;stroke-width:1.0;"/></g><!--MD5=[7393881edb02e5e3ba6680dca7accd7a]
reverse link SelfDesc to SelfDirectory--><g id="link_SelfDesc_SelfDirectory"><path codeLine="22" d="M633.89,163.95 C611.65,184.26 583.9,209.59 565.16,226.69 " fill="none" id="SelfDesc-backto-SelfDirectory" style="stroke:#181818;stroke-width:1.0;"/><polygon fill="none" points="629.42,158.56,648.91,150.25,638.86,168.9,629.42,158.56" style="stroke:#181818;stroke-width:1.0;"/></g><!--MD5=[22095c50f58adeae0dd4a30b6d5b7e14]
link Directory to TD--><g id="link_Directory_TD"><path codeLine="23" d="M403.7,150.25 C368.38,171.97 311.37,207.03 277.02,228.16 " fill="none" id="Directory-to-TD" style="stroke:#181818;stroke-width:1.0;"/><polygon fill="#181818" points="272.53,230.91,282.2913,229.5998,276.7883,228.2895,278.0985,222.7865,272.53,230.91" style="stroke:#181818;stroke-width:1.0;"/><text fill="#000000" font-family="sans-serif" font-size="13" lengthAdjust="spacing" textLength="35" x="353" y="193.0669">hosts</text><text fill="#000000" font-family="sans-serif" font-size="13" lengthAdjust="spacing" textLength="8" x="383.5681" y="170.449">1</text><text fill="#000000" font-family="sans-serif" font-size="13" lengthAdjust="spacing" textLength="23" x="286.9778" y="219.8907">0..*</text></g><!--MD5=[77d4e125ce3d710d6fa63a04956134c6]
link Server to TD--><g id="link_Server_TD"><path codeLine="24" d="M314.22,47.14 C298.61,56.66 282.06,69.67 272,86 C244.99,129.86 244.36,192.99 246.18,225.27 " fill="none" id="Server-to-TD" style="stroke:#181818;stroke-width:1.0;"/><polygon fill="#181818" points="246.51,230.56,249.9095,221.3164,246.1812,225.5708,241.9268,221.8425,246.51,230.56" style="stroke:#181818;stroke-width:1.0;"/><text fill="#000000" font-family="sans-serif" font-size="13" lengthAdjust="spacing" textLength="35" x="273" y="134.5669">hosts</text><text fill="#000000" font-family="sans-serif" font-size="13" lengthAdjust="spacing" textLength="8" x="279.5971" y="67.3066">1</text><text fill="#000000" font-family="sans-serif" font-size="13" lengthAdjust="spacing" textLength="8" x="234.8476" y="220.0172">1</text></g><!--MD5=[0568b6f9ba073e11497c3c22d32e22c1]
@startuml exploration-class-diagram
/' global configurations '/
hide methods
hide members

class Server as "Thing Description Server" <<(S,#eb937f) service>>

class Thing <<(S,#eb937f) service>>
together {
    class SelfDesc as "Self-Describing Thing" <<(S,#eb937f) service>>
    class Directory as "Thing Description Directory" <<(S,#eb937f) service>>
    class SelfDirectory as "Self-Describing Thing Description Directory" <<(S,#eb937f) service>>
}

class TD as "td:Thing" #Azure
note left: Thing Description (TD)

/' relations '/
Thing <|- - SelfDesc
Server <|- - SelfDesc
Thing <|- - Directory
Directory <|- - SelfDirectory
SelfDesc <|- - SelfDirectory
Directory "   1" - -> "0..*   " TD: hosts
Server "1   " - -> "   1" TD: hosts


@enduml

@startuml exploration-class-diagram
hide methods
hide members

class Server as "Thing Description Server" <<(S,#eb937f) service>>

class Thing <<(S,#eb937f) service>>
together {
    class SelfDesc as "Self-Describing Thing" <<(S,#eb937f) service>>
    class Directory as "Thing Description Directory" <<(S,#eb937f) service>>
    class SelfDirectory as "Self-Describing Thing Description Directory" <<(S,#eb937f) service>>
}

class TD as "td:Thing" #Azure
note left: Thing Description (TD)

Thing <|- - SelfDesc
Server <|- - SelfDesc
Thing <|- - Directory
Directory <|- - SelfDirectory
SelfDesc <|- - SelfDirectory
Directory "   1" - -> "0..*   " TD: hosts
Server "1   " - -> "   1" TD: hosts


@enduml

PlantUML version 1.2022.5(Sat Apr 30 07:55:52 ADT 2022)
(GPL source distribution)
Java Runtime: OpenJDK Runtime Environment
JVM: OpenJDK 64-Bit Server VM
Default Encoding: UTF-8
Language: en
Country: CA
--></g></svg>