<?xml version="1.0" encoding="UTF-8" standalone="no"?><svg xmlns="http://www.w3.org/2000/svg" xmlns:xlink="http://www.w3.org/1999/xlink" contentStyleType="text/css" height="268px" preserveAspectRatio="none" style="width:684px;height:268px;background:#FFFFFF;" version="1.1" viewBox="0 0 684 268" width="684px" zoomAndPan="magnify"><defs/><g><!--MD5=[c60af77fe5573b84a4aa4bce89659574]
class Server--><g id="elem_Server"><rect codeLine="7" fill="#F1F1F1" height="40.2656" id="Server" rx="2.5" ry="2.5" style="stroke:#181818;stroke-width:0.5;" width="202" x="7" y="110"/><ellipse cx="22" cy="130.1328" fill="#EB937F" rx="11" ry="11" style="stroke:#A80036;stroke-width:1.0;"/><path d="M21.4844,130.6953 Q19.625,129.9922 18.9688,129.2266 Q18.3281,128.4453 18.3281,127.1328 Q18.3281,125.4453 19.4063,124.4766 Q20.4844,123.5078 22.3594,123.5078 Q23.2188,123.5078 24.0625,123.7109 Q24.9219,123.8984 25.7656,124.2891 L25.7656,126.6797 Q24.9844,126.1172 24.1563,125.8359 Q23.3438,125.5391 22.5469,125.5391 Q21.6719,125.5391 21.1875,125.8984 Q20.7188,126.2578 20.7188,126.9141 Q20.7188,127.4297 21.0625,127.7734 Q21.4063,128.1016 22.5,128.5078 L23.5625,128.9141 Q25.0469,129.4609 25.75,130.3672 Q26.4688,131.2734 26.4688,132.6484 Q26.4688,134.5234 25.3594,135.4453 Q24.25,136.3672 22,136.3672 Q21.0781,136.3672 20.1563,136.1484 Q19.2344,135.9297 18.375,135.5078 L18.375,132.9766 Q19.3438,133.6641 20.2656,134.0078 Q21.1875,134.3516 22.0781,134.3516 Q22.9844,134.3516 23.4844,133.9453 Q23.9844,133.5234 23.9844,132.7891 Q23.9844,132.2266 23.6406,131.8203 Q23.3125,131.3984 22.6875,131.1484 L21.4844,130.6953 Z " fill="#000000"/><text fill="#000000" font-family="sans-serif" font-size="12" font-style="italic" lengthAdjust="spacing" textLength="57" x="92.5" y="126.1387">«service»</text><text fill="#000000" font-family="sans-serif" font-size="14" lengthAdjust="spacing" textLength="170" x="36" y="141.9639">Thing Description Server</text></g><!--MD5=[0c8f81674d0e9026104f104b6fbe6eff]
class SelfDesc--><g id="elem_SelfDesc"><rect codeLine="8" fill="#F1F1F1" height="40.2656" id="SelfDesc" rx="2.5" ry="2.5" style="stroke:#181818;stroke-width:0.5;" width="177" x="244.5" y="110"/><ellipse cx="259.5" cy="130.1328" fill="#EB937F" rx="11" ry="11" style="stroke:#A80036;stroke-width:1.0;"/><path d="M258.9844,130.6953 Q257.125,129.9922 256.4688,129.2266 Q255.8281,128.4453 255.8281,127.1328 Q255.8281,125.4453 256.9063,124.4766 Q257.9844,123.5078 259.8594,123.5078 Q260.7188,123.5078 261.5625,123.7109 Q262.4219,123.8984 263.2656,124.2891 L263.2656,126.6797 Q262.4844,126.1172 261.6563,125.8359 Q260.8438,125.5391 260.0469,125.5391 Q259.1719,125.5391 258.6875,125.8984 Q258.2188,126.2578 258.2188,126.9141 Q258.2188,127.4297 258.5625,127.7734 Q258.9063,128.1016 260,128.5078 L261.0625,128.9141 Q262.5469,129.4609 263.25,130.3672 Q263.9688,131.2734 263.9688,132.6484 Q263.9688,134.5234 262.8594,135.4453 Q261.75,136.3672 259.5,136.3672 Q258.5781,136.3672 257.6563,136.1484 Q256.7344,135.9297 255.875,135.5078 L255.875,132.9766 Q256.8438,133.6641 257.7656,134.0078 Q258.6875,134.3516 259.5781,134.3516 Q260.4844,134.3516 260.9844,133.9453 Q261.4844,133.5234 261.4844,132.7891 Q261.4844,132.2266 261.1406,131.8203 Q260.8125,131.3984 260.1875,131.1484 L258.9844,130.6953 Z " fill="#000000"/><text fill="#000000" font-family="sans-serif" font-size="12" font-style="italic" lengthAdjust="spacing" textLength="57" x="317.5" y="126.1387">«service»</text><text fill="#000000" font-family="sans-serif" font-size="14" lengthAdjust="spacing" textLength="145" x="273.5" y="141.9639">Self-describing Thing</text></g><!--MD5=[9bd2b2bc45261200a440e1ecb7c43192]
class Directory--><g id="elem_Directory"><rect codeLine="9" fill="#F1F1F1" height="40.2656" id="Directory" rx="2.5" ry="2.5" style="stroke:#181818;stroke-width:0.5;" width="220" x="457" y="110"/><ellipse cx="472" cy="130.1328" fill="#EB937F" rx="11" ry="11" style="stroke:#A80036;stroke-width:1.0;"/><path d="M471.4844,130.6953 Q469.625,129.9922 468.9688,129.2266 Q468.3281,128.4453 468.3281,127.1328 Q468.3281,125.4453 469.4063,124.4766 Q470.4844,123.5078 472.3594,123.5078 Q473.2188,123.5078 474.0625,123.7109 Q474.9219,123.8984 475.7656,124.2891 L475.7656,126.6797 Q474.9844,126.1172 474.1563,125.8359 Q473.3438,125.5391 472.5469,125.5391 Q471.6719,125.5391 471.1875,125.8984 Q470.7188,126.2578 470.7188,126.9141 Q470.7188,127.4297 471.0625,127.7734 Q471.4063,128.1016 472.5,128.5078 L473.5625,128.9141 Q475.0469,129.4609 475.75,130.3672 Q476.4688,131.2734 476.4688,132.6484 Q476.4688,134.5234 475.3594,135.4453 Q474.25,136.3672 472,136.3672 Q471.0781,136.3672 470.1563,136.1484 Q469.2344,135.9297 468.375,135.5078 L468.375,132.9766 Q469.3438,133.6641 470.2656,134.0078 Q471.1875,134.3516 472.0781,134.3516 Q472.9844,134.3516 473.4844,133.9453 Q473.9844,133.5234 473.9844,132.7891 Q473.9844,132.2266 473.6406,131.8203 Q473.3125,131.3984 472.6875,131.1484 L471.4844,130.6953 Z " fill="#000000"/><text fill="#000000" font-family="sans-serif" font-size="12" font-style="italic" lengthAdjust="spacing" textLength="57" x="551.5" y="126.1387">«service»</text><text fill="#000000" font-family="sans-serif" font-size="14" lengthAdjust="spacing" textLength="188" x="486" y="141.9639">Thing Description Directory</text></g><!--MD5=[1053da7555f32ea3c982e01119b403ff]
class Thing--><g id="elem_Thing"><rect codeLine="5" fill="#F1F1F1" height="40.2656" id="Thing" rx="2.5" ry="2.5" style="stroke:#181818;stroke-width:0.5;" width="85" x="406.5" y="7"/><ellipse cx="421.5" cy="27.1328" fill="#EB937F" rx="11" ry="11" style="stroke:#A80036;stroke-width:1.0;"/><path d="M420.9844,27.6953 Q419.125,26.9922 418.4688,26.2266 Q417.8281,25.4453 417.8281,24.1328 Q417.8281,22.4453 418.9063,21.4766 Q419.9844,20.5078 421.8594,20.5078 Q422.7188,20.5078 423.5625,20.7109 Q424.4219,20.8984 425.2656,21.2891 L425.2656,23.6797 Q424.4844,23.1172 423.6563,22.8359 Q422.8438,22.5391 422.0469,22.5391 Q421.1719,22.5391 420.6875,22.8984 Q420.2188,23.2578 420.2188,23.9141 Q420.2188,24.4297 420.5625,24.7734 Q420.9063,25.1016 422,25.5078 L423.0625,25.9141 Q424.5469,26.4609 425.25,27.3672 Q425.9688,28.2734 425.9688,29.6484 Q425.9688,31.5234 424.8594,32.4453 Q423.75,33.3672 421.5,33.3672 Q420.5781,33.3672 419.6563,33.1484 Q418.7344,32.9297 417.875,32.5078 L417.875,29.9766 Q418.8438,30.6641 419.7656,31.0078 Q420.6875,31.3516 421.5781,31.3516 Q422.4844,31.3516 422.9844,30.9453 Q423.4844,30.5234 423.4844,29.7891 Q423.4844,29.2266 423.1406,28.8203 Q422.8125,28.3984 422.1875,28.1484 L420.9844,27.6953 Z " fill="#000000"/><text fill="#000000" font-family="sans-serif" font-size="12" font-style="italic" lengthAdjust="spacing" textLength="57" x="433.5" y="23.1387">«service»</text><text fill="#000000" font-family="sans-serif" font-size="14" lengthAdjust="spacing" textLength="39" x="442.5" y="38.9639">Thing</text></g><!--MD5=[f66eb5cd0a27e450a5267fbcb4094f6d]
class TD--><g id="elem_TD"><rect codeLine="12" fill="#F0FFFF" height="32" id="TD" rx="2.5" ry="2.5" style="stroke:#181818;stroke-width:0.5;" width="90" x="288" y="229"/><ellipse cx="303" cy="245" fill="#ADD1B2" rx="11" ry="11" style="stroke:#181818;stroke-width:1.0;"/><path d="M305.9688,250.6406 Q305.3906,250.9375 304.75,251.0781 Q304.1094,251.2344 303.4063,251.2344 Q300.9063,251.2344 299.5781,249.5938 Q298.2656,247.9375 298.2656,244.8125 Q298.2656,241.6875 299.5781,240.0313 Q300.9063,238.375 303.4063,238.375 Q304.1094,238.375 304.75,238.5313 Q305.4063,238.6875 305.9688,238.9844 L305.9688,241.7031 Q305.3438,241.125 304.75,240.8594 Q304.1563,240.5781 303.5313,240.5781 Q302.1875,240.5781 301.5,241.6563 Q300.8125,242.7188 300.8125,244.8125 Q300.8125,246.9063 301.5,247.9844 Q302.1875,249.0469 303.5313,249.0469 Q304.1563,249.0469 304.75,248.7813 Q305.3438,248.5 305.9688,247.9219 L305.9688,250.6406 Z " fill="#000000"/><text fill="#000000" font-family="sans-serif" font-size="14" lengthAdjust="spacing" textLength="58" x="317" y="249.8467">td:Thing</text></g><g id="elem_GMN9"><path d="M91,232.5 L91,257.6328 A0,0 0 0 0 91,257.6328 L253,257.6328 A0,0 0 0 0 253,257.6328 L253,250.5 L287.76,245 L253,242.5 L253,242.5 L243,232.5 L91,232.5 A0,0 0 0 0 91,232.5 " fill="#FEFFDD" style="stroke:#181818;stroke-width:0.5;"/><path d="M243,232.5 L243,242.5 L253,242.5 L243,232.5 " fill="#FEFFDD" style="stroke:#181818;stroke-width:0.5;"/><text fill="#000000" font-family="sans-serif" font-size="13" lengthAdjust="spacing" textLength="141" x="97" y="249.5669">Thing Description (TD)</text></g><!--MD5=[88221bcd57db51459cd4199f69591b42]
reverse link Thing to SelfDesc--><g id="link_Thing_SelfDesc"><path codeLine="16" d="M411.57,60.59 C392.9,76.85 370.95,95.95 355.01,109.84 " fill="none" id="Thing-backto-SelfDesc" style="stroke:#181818;stroke-width:1.0;"/><polygon fill="none" points="407.23,55.09,426.91,47.24,416.42,65.65,407.23,55.09" style="stroke:#181818;stroke-width:1.0;"/></g><!--MD5=[6811a1fa3166692e42720dcd61a45561]
reverse link Thing to Directory--><g id="link_Thing_Directory"><path codeLine="17" d="M486.79,60.34 C505.84,76.66 528.31,95.88 544.61,109.84 " fill="none" id="Thing-backto-Directory" style="stroke:#181818;stroke-width:1.0;"/><polygon fill="none" points="482.12,65.56,471.47,47.24,491.22,54.92,482.12,65.56" style="stroke:#181818;stroke-width:1.0;"/></g><!--MD5=[962830750a9a6ad5a90804d94990eddc]
link SelfDesc to TD--><g id="link_SelfDesc_TD"><path codeLine="18" d="M333,150.17 C333,170.6 333,202.83 333,223.69 " fill="none" id="SelfDesc-to-TD" style="stroke:#181818;stroke-width:1.0;"/><polygon fill="#181818" points="333,228.73,337,219.73,333,223.73,329,219.73,333,228.73" style="stroke:#181818;stroke-width:1.0;"/><text fill="#000000" font-family="sans-serif" font-size="13" lengthAdjust="spacing" textLength="54" x="334" y="195.0669">provides</text><text fill="#000000" font-family="sans-serif" font-size="13" lengthAdjust="spacing" textLength="8" x="323.825" y="170.3455">1</text><text fill="#000000" font-family="sans-serif" font-size="13" lengthAdjust="spacing" textLength="8" x="314.35" y="217.9451">1</text></g><!--MD5=[77d4e125ce3d710d6fa63a04956134c6]
link Server to TD--><g id="link_Server_TD"><path codeLine="19" d="M145.91,150.04 C188.48,171.42 256.98,205.82 298.23,226.54 " fill="none" id="Server-to-TD" style="stroke:#181818;stroke-width:1.0;"/><polygon fill="#181818" points="302.87,228.87,296.6187,221.2594,298.4007,226.6282,293.0319,228.4102,302.87,228.87" style="stroke:#181818;stroke-width:1.0;"/><text fill="#000000" font-family="sans-serif" font-size="13" lengthAdjust="spacing" textLength="54" x="242" y="195.0669">provides</text><text fill="#000000" font-family="sans-serif" font-size="13" lengthAdjust="spacing" textLength="8" x="147.8711" y="170.1773">1</text><text fill="#000000" font-family="sans-serif" font-size="13" lengthAdjust="spacing" textLength="8" x="273.7628" y="217.8369">1</text></g><!--MD5=[22095c50f58adeae0dd4a30b6d5b7e14]
link Directory to TD--><g id="link_Directory_TD"><path codeLine="20" d="M527.57,150.04 C483.21,171.46 411.77,205.96 368.9,226.66 " fill="none" id="Directory-to-TD" style="stroke:#181818;stroke-width:1.0;"/><polygon fill="#181818" points="364.34,228.87,374.184,228.5612,368.8431,226.6971,370.7073,221.3562,364.34,228.87" style="stroke:#181818;stroke-width:1.0;"/><text fill="#000000" font-family="sans-serif" font-size="13" lengthAdjust="spacing" textLength="54" x="458" y="195.0669">contains</text><text fill="#000000" font-family="sans-serif" font-size="13" lengthAdjust="spacing" textLength="8" x="493.0499" y="170.1773">1</text><text fill="#000000" font-family="sans-serif" font-size="13" lengthAdjust="spacing" textLength="23" x="393.1287" y="217.8369">0..*</text></g><!--MD5=[c80e5c0ff38103d01c2e69e8533166fa]
@startuml exploration-class-diagram
/' global configurations '/
hide methods
hide members

class Thing <<(S,#eb937f) service>>
together {
    class Server as "Thing Description Server" <<(S,#eb937f) service>>
    class SelfDesc as "Self-describing Thing" <<(S,#eb937f) service>>
    class Directory as "Thing Description Directory" <<(S,#eb937f) service>>
}

class TD as "td:Thing" #Azure
note left: Thing Description (TD)

/' relations '/
Thing <|- - SelfDesc
Thing <|- - Directory
SelfDesc "1" - -> "1  " TD: provides
Server "1" - -> "1  " TD: provides
Directory "1   " - -> "   0..*" TD: contains


@enduml

@startuml exploration-class-diagram
hide methods
hide members

class Thing <<(S,#eb937f) service>>
together {
    class Server as "Thing Description Server" <<(S,#eb937f) service>>
    class SelfDesc as "Self-describing Thing" <<(S,#eb937f) service>>
    class Directory as "Thing Description Directory" <<(S,#eb937f) service>>
}

class TD as "td:Thing" #Azure
note left: Thing Description (TD)

Thing <|- - SelfDesc
Thing <|- - Directory
SelfDesc "1" - -> "1  " TD: provides
Server "1" - -> "1  " TD: provides
Directory "1   " - -> "   0..*" TD: contains


@enduml

PlantUML version 1.2022.5(Sat Apr 30 07:55:52 ADT 2022)
(GPL source distribution)
Java Runtime: OpenJDK Runtime Environment
JVM: OpenJDK 64-Bit Server VM
Default Encoding: UTF-8
Language: en
Country: CA
--></g></svg>