<?xml version="1.0" encoding="UTF-8" standalone="no"?><svg xmlns="http://www.w3.org/2000/svg" xmlns:xlink="http://www.w3.org/1999/xlink" contentStyleType="text/css" height="273px" preserveAspectRatio="none" style="width:815px;height:273px;background:#FFFFFF;" version="1.1" viewBox="0 0 815 273" width="815px" zoomAndPan="magnify"><defs/><g><!--MD5=[0c8f81674d0e9026104f104b6fbe6eff]
class SelfDesc--><g id="elem_SelfDesc"><rect codeLine="9" fill="#F1F1F1" height="40.2656" id="SelfDesc" rx="2.5" ry="2.5" style="stroke:#181818;stroke-width:0.5;" width="179" x="629.5" y="110"/><ellipse cx="644.5" cy="130.1328" fill="#EB937F" rx="11" ry="11" style="stroke:#A80036;stroke-width:1.0;"/><path d="M643.9844,130.6953 Q642.125,129.9922 641.4688,129.2266 Q640.8281,128.4453 640.8281,127.1328 Q640.8281,125.4453 641.9063,124.4766 Q642.9844,123.5078 644.8594,123.5078 Q645.7188,123.5078 646.5625,123.7109 Q647.4219,123.8984 648.2656,124.2891 L648.2656,126.6797 Q647.4844,126.1172 646.6563,125.8359 Q645.8438,125.5391 645.0469,125.5391 Q644.1719,125.5391 643.6875,125.8984 Q643.2188,126.2578 643.2188,126.9141 Q643.2188,127.4297 643.5625,127.7734 Q643.9063,128.1016 645,128.5078 L646.0625,128.9141 Q647.5469,129.4609 648.25,130.3672 Q648.9688,131.2734 648.9688,132.6484 Q648.9688,134.5234 647.8594,135.4453 Q646.75,136.3672 644.5,136.3672 Q643.5781,136.3672 642.6563,136.1484 Q641.7344,135.9297 640.875,135.5078 L640.875,132.9766 Q641.8438,133.6641 642.7656,134.0078 Q643.6875,134.3516 644.5781,134.3516 Q645.4844,134.3516 645.9844,133.9453 Q646.4844,133.5234 646.4844,132.7891 Q646.4844,132.2266 646.1406,131.8203 Q645.8125,131.3984 645.1875,131.1484 L643.9844,130.6953 Z " fill="#000000"/><text fill="#000000" font-family="sans-serif" font-size="12" font-style="italic" lengthAdjust="spacing" textLength="57" x="703.5" y="126.1387">«service»</text><text fill="#000000" font-family="sans-serif" font-size="14" lengthAdjust="spacing" textLength="147" x="658.5" y="141.9639">Self-Describing Thing</text></g><!--MD5=[9bd2b2bc45261200a440e1ecb7c43192]
class Directory--><g id="elem_Directory"><rect codeLine="10" fill="#F1F1F1" height="40.2656" id="Directory" rx="2.5" ry="2.5" style="stroke:#181818;stroke-width:0.5;" width="220" x="374" y="110"/><ellipse cx="389" cy="130.1328" fill="#EB937F" rx="11" ry="11" style="stroke:#A80036;stroke-width:1.0;"/><path d="M388.4844,130.6953 Q386.625,129.9922 385.9688,129.2266 Q385.3281,128.4453 385.3281,127.1328 Q385.3281,125.4453 386.4063,124.4766 Q387.4844,123.5078 389.3594,123.5078 Q390.2188,123.5078 391.0625,123.7109 Q391.9219,123.8984 392.7656,124.2891 L392.7656,126.6797 Q391.9844,126.1172 391.1563,125.8359 Q390.3438,125.5391 389.5469,125.5391 Q388.6719,125.5391 388.1875,125.8984 Q387.7188,126.2578 387.7188,126.9141 Q387.7188,127.4297 388.0625,127.7734 Q388.4063,128.1016 389.5,128.5078 L390.5625,128.9141 Q392.0469,129.4609 392.75,130.3672 Q393.4688,131.2734 393.4688,132.6484 Q393.4688,134.5234 392.3594,135.4453 Q391.25,136.3672 389,136.3672 Q388.0781,136.3672 387.1563,136.1484 Q386.2344,135.9297 385.375,135.5078 L385.375,132.9766 Q386.3438,133.6641 387.2656,134.0078 Q388.1875,134.3516 389.0781,134.3516 Q389.9844,134.3516 390.4844,133.9453 Q390.9844,133.5234 390.9844,132.7891 Q390.9844,132.2266 390.6406,131.8203 Q390.3125,131.3984 389.6875,131.1484 L388.4844,130.6953 Z " fill="#000000"/><text fill="#000000" font-family="sans-serif" font-size="12" font-style="italic" lengthAdjust="spacing" textLength="57" x="468.5" y="126.1387">«service»</text><text fill="#000000" font-family="sans-serif" font-size="14" lengthAdjust="spacing" textLength="188" x="403" y="141.9639">Thing Description Directory</text></g><!--MD5=[69791c4cfce35b296fe4b79975128918]
class SelfDirectory--><g id="elem_SelfDirectory"><rect codeLine="11" fill="#F1F1F1" height="40.2656" id="SelfDirectory" rx="2.5" ry="2.5" style="stroke:#181818;stroke-width:0.5;" width="328" x="375" y="227"/><ellipse cx="390" cy="247.1328" fill="#EB937F" rx="11" ry="11" style="stroke:#A80036;stroke-width:1.0;"/><path d="M389.4844,247.6953 Q387.625,246.9922 386.9688,246.2266 Q386.3281,245.4453 386.3281,244.1328 Q386.3281,242.4453 387.4063,241.4766 Q388.4844,240.5078 390.3594,240.5078 Q391.2188,240.5078 392.0625,240.7109 Q392.9219,240.8984 393.7656,241.2891 L393.7656,243.6797 Q392.9844,243.1172 392.1563,242.8359 Q391.3438,242.5391 390.5469,242.5391 Q389.6719,242.5391 389.1875,242.8984 Q388.7188,243.2578 388.7188,243.9141 Q388.7188,244.4297 389.0625,244.7734 Q389.4063,245.1016 390.5,245.5078 L391.5625,245.9141 Q393.0469,246.4609 393.75,247.3672 Q394.4688,248.2734 394.4688,249.6484 Q394.4688,251.5234 393.3594,252.4453 Q392.25,253.3672 390,253.3672 Q389.0781,253.3672 388.1563,253.1484 Q387.2344,252.9297 386.375,252.5078 L386.375,249.9766 Q387.3438,250.6641 388.2656,251.0078 Q389.1875,251.3516 390.0781,251.3516 Q390.9844,251.3516 391.4844,250.9453 Q391.9844,250.5234 391.9844,249.7891 Q391.9844,249.2266 391.6406,248.8203 Q391.3125,248.3984 390.6875,248.1484 L389.4844,247.6953 Z " fill="#000000"/><text fill="#000000" font-family="sans-serif" font-size="12" font-style="italic" lengthAdjust="spacing" textLength="57" x="523.5" y="243.1387">«service»</text><text fill="#000000" font-family="sans-serif" font-size="14" lengthAdjust="spacing" textLength="296" x="404" y="258.9639">Self-Describing Thing Description Directory</text></g><!--MD5=[c60af77fe5573b84a4aa4bce89659574]
class Server--><g id="elem_Server"><rect codeLine="5" fill="#F1F1F1" height="40.2656" id="Server" rx="2.5" ry="2.5" style="stroke:#181818;stroke-width:0.5;" width="202" x="100" y="110"/><ellipse cx="115" cy="130.1328" fill="#EB937F" rx="11" ry="11" style="stroke:#A80036;stroke-width:1.0;"/><path d="M114.4844,130.6953 Q112.625,129.9922 111.9688,129.2266 Q111.3281,128.4453 111.3281,127.1328 Q111.3281,125.4453 112.4063,124.4766 Q113.4844,123.5078 115.3594,123.5078 Q116.2188,123.5078 117.0625,123.7109 Q117.9219,123.8984 118.7656,124.2891 L118.7656,126.6797 Q117.9844,126.1172 117.1563,125.8359 Q116.3438,125.5391 115.5469,125.5391 Q114.6719,125.5391 114.1875,125.8984 Q113.7188,126.2578 113.7188,126.9141 Q113.7188,127.4297 114.0625,127.7734 Q114.4063,128.1016 115.5,128.5078 L116.5625,128.9141 Q118.0469,129.4609 118.75,130.3672 Q119.4688,131.2734 119.4688,132.6484 Q119.4688,134.5234 118.3594,135.4453 Q117.25,136.3672 115,136.3672 Q114.0781,136.3672 113.1563,136.1484 Q112.2344,135.9297 111.375,135.5078 L111.375,132.9766 Q112.3438,133.6641 113.2656,134.0078 Q114.1875,134.3516 115.0781,134.3516 Q115.9844,134.3516 116.4844,133.9453 Q116.9844,133.5234 116.9844,132.7891 Q116.9844,132.2266 116.6406,131.8203 Q116.3125,131.3984 115.6875,131.1484 L114.4844,130.6953 Z " fill="#000000"/><text fill="#000000" font-family="sans-serif" font-size="12" font-style="italic" lengthAdjust="spacing" textLength="57" x="185.5" y="126.1387">«service»</text><text fill="#000000" font-family="sans-serif" font-size="14" lengthAdjust="spacing" textLength="170" x="129" y="141.9639">Thing Description Server</text></g><!--MD5=[1053da7555f32ea3c982e01119b403ff]
class Thing--><g id="elem_Thing"><rect codeLine="7" fill="#F1F1F1" height="40.2656" id="Thing" rx="2.5" ry="2.5" style="stroke:#181818;stroke-width:0.5;" width="85" x="558.5" y="7"/><ellipse cx="573.5" cy="27.1328" fill="#EB937F" rx="11" ry="11" style="stroke:#A80036;stroke-width:1.0;"/><path d="M572.9844,27.6953 Q571.125,26.9922 570.4688,26.2266 Q569.8281,25.4453 569.8281,24.1328 Q569.8281,22.4453 570.9063,21.4766 Q571.9844,20.5078 573.8594,20.5078 Q574.7188,20.5078 575.5625,20.7109 Q576.4219,20.8984 577.2656,21.2891 L577.2656,23.6797 Q576.4844,23.1172 575.6563,22.8359 Q574.8438,22.5391 574.0469,22.5391 Q573.1719,22.5391 572.6875,22.8984 Q572.2188,23.2578 572.2188,23.9141 Q572.2188,24.4297 572.5625,24.7734 Q572.9063,25.1016 574,25.5078 L575.0625,25.9141 Q576.5469,26.4609 577.25,27.3672 Q577.9688,28.2734 577.9688,29.6484 Q577.9688,31.5234 576.8594,32.4453 Q575.75,33.3672 573.5,33.3672 Q572.5781,33.3672 571.6563,33.1484 Q570.7344,32.9297 569.875,32.5078 L569.875,29.9766 Q570.8438,30.6641 571.7656,31.0078 Q572.6875,31.3516 573.5781,31.3516 Q574.4844,31.3516 574.9844,30.9453 Q575.4844,30.5234 575.4844,29.7891 Q575.4844,29.2266 575.1406,28.8203 Q574.8125,28.3984 574.1875,28.1484 L572.9844,27.6953 Z " fill="#000000"/><text fill="#000000" font-family="sans-serif" font-size="12" font-style="italic" lengthAdjust="spacing" textLength="57" x="585.5" y="23.1387">«service»</text><text fill="#000000" font-family="sans-serif" font-size="14" lengthAdjust="spacing" textLength="39" x="594.5" y="38.9639">Thing</text></g><!--MD5=[f66eb5cd0a27e450a5267fbcb4094f6d]
class TD--><g id="elem_TD"><rect codeLine="14" fill="#F0FFFF" height="32" id="TD" rx="2.5" ry="2.5" style="stroke:#181818;stroke-width:0.5;" width="90" x="203" y="231"/><ellipse cx="218" cy="247" fill="#ADD1B2" rx="11" ry="11" style="stroke:#181818;stroke-width:1.0;"/><path d="M220.9688,252.6406 Q220.3906,252.9375 219.75,253.0781 Q219.1094,253.2344 218.4063,253.2344 Q215.9063,253.2344 214.5781,251.5938 Q213.2656,249.9375 213.2656,246.8125 Q213.2656,243.6875 214.5781,242.0313 Q215.9063,240.375 218.4063,240.375 Q219.1094,240.375 219.75,240.5313 Q220.4063,240.6875 220.9688,240.9844 L220.9688,243.7031 Q220.3438,243.125 219.75,242.8594 Q219.1563,242.5781 218.5313,242.5781 Q217.1875,242.5781 216.5,243.6563 Q215.8125,244.7188 215.8125,246.8125 Q215.8125,248.9063 216.5,249.9844 Q217.1875,251.0469 218.5313,251.0469 Q219.1563,251.0469 219.75,250.7813 Q220.3438,250.5 220.9688,249.9219 L220.9688,252.6406 Z " fill="#000000"/><text fill="#000000" font-family="sans-serif" font-size="14" lengthAdjust="spacing" textLength="58" x="232" y="251.8467">td:Thing</text></g><g id="elem_GMN10"><path d="M6,234.5 L6,259.6328 A0,0 0 0 0 6,259.6328 L168,259.6328 A0,0 0 0 0 168,259.6328 L168,252.5 L202.76,247 L168,244.5 L168,244.5 L158,234.5 L6,234.5 A0,0 0 0 0 6,234.5 " fill="#FEFFDD" style="stroke:#181818;stroke-width:0.5;"/><path d="M158,234.5 L158,244.5 L168,244.5 L158,234.5 " fill="#FEFFDD" style="stroke:#181818;stroke-width:0.5;"/><text fill="#000000" font-family="sans-serif" font-size="13" lengthAdjust="spacing" textLength="141" x="12" y="251.5669">Thing Description (TD)</text></g><!--MD5=[88221bcd57db51459cd4199f69591b42]
reverse link Thing to SelfDesc--><g id="link_Thing_SelfDesc"><path codeLine="18" d="M638.79,60.34 C657.84,76.66 680.31,95.88 696.61,109.84 " fill="none" id="Thing-backto-SelfDesc" style="stroke:#181818;stroke-width:1.0;"/><polygon fill="none" points="634.12,65.56,623.47,47.24,643.22,54.92,634.12,65.56" style="stroke:#181818;stroke-width:1.0;"/></g><!--MD5=[34b9967e59f351fa19cf43a744ba6d63]
reverse link Server to SelfDesc--><g id="link_Server_SelfDesc"><path codeLine="19" d="M261.96,101.87 C294.83,88.25 336.54,73.37 375.5,66.5 C471.36,49.6 499.86,43.76 594.5,66.5 C629.18,74.83 665.08,94.53 689.37,109.8 " fill="none" id="Server-backto-SelfDesc" style="stroke:#181818;stroke-width:1.0;"/><polygon fill="none" points="264.37,108.46,243.23,109.9,258.86,95.59,264.37,108.46" style="stroke:#181818;stroke-width:1.0;"/></g><!--MD5=[6811a1fa3166692e42720dcd61a45561]
reverse link Thing to Directory--><g id="link_Thing_Directory"><path codeLine="20" d="M563.53,60.34 C544.64,76.66 522.36,95.88 506.2,109.84 " fill="none" id="Thing-backto-Directory" style="stroke:#181818;stroke-width:1.0;"/><polygon fill="none" points="559,55.01,578.72,47.24,568.15,65.6,559,55.01" style="stroke:#181818;stroke-width:1.0;"/></g><!--MD5=[5501c5b9660a1443839fe5a919c91bb7]
reverse link Directory to SelfDirectory--><g id="link_Directory_SelfDirectory"><path codeLine="21" d="M501.92,168.46 C511.21,187.9 522.18,210.83 529.76,226.69 " fill="none" id="Directory-backto-SelfDirectory" style="stroke:#181818;stroke-width:1.0;"/><polygon fill="none" points="495.52,171.31,493.21,150.25,508.15,165.27,495.52,171.31" style="stroke:#181818;stroke-width:1.0;"/></g><!--MD5=[7393881edb02e5e3ba6680dca7accd7a]
reverse link SelfDesc to SelfDirectory--><g id="link_SelfDesc_SelfDirectory"><path codeLine="22" d="M671.94,161.07 C639.36,181.88 596.98,208.96 568.93,226.88 " fill="none" id="SelfDesc-backto-SelfDirectory" style="stroke:#181818;stroke-width:1.0;"/><polygon fill="none" points="668.25,155.12,688.87,150.25,675.79,166.92,668.25,155.12" style="stroke:#181818;stroke-width:1.0;"/></g><!--MD5=[77d4e125ce3d710d6fa63a04956134c6]
link Server to TD--><g id="link_Server_TD"><path codeLine="23" d="M208.87,150.25 C217.43,171.2 231.06,204.56 239.77,225.86 " fill="none" id="Server-to-TD" style="stroke:#181818;stroke-width:1.0;"/><polygon fill="#181818" points="241.76,230.74,242.0687,220.896,239.8735,226.1095,234.66,223.9144,241.76,230.74" style="stroke:#181818;stroke-width:1.0;"/><text fill="#000000" font-family="sans-serif" font-size="13" lengthAdjust="spacing" textLength="54" x="229" y="193.0669">provides</text><text fill="#000000" font-family="sans-serif" font-size="13" lengthAdjust="spacing" textLength="8" x="202.0068" y="170.449">1</text><text fill="#000000" font-family="sans-serif" font-size="13" lengthAdjust="spacing" textLength="8" x="221.043" y="219.9584">1</text></g><!--MD5=[22095c50f58adeae0dd4a30b6d5b7e14]
link Directory to TD--><g id="link_Directory_TD"><path codeLine="24" d="M444.76,150.12 C399.87,172 326.98,207.51 283.65,228.63 " fill="none" id="Directory-to-TD" style="stroke:#181818;stroke-width:1.0;"/><polygon fill="#181818" points="279.03,230.88,288.8732,230.5459,283.5275,228.6955,285.378,223.3498,279.03,230.88" style="stroke:#181818;stroke-width:1.0;"/><text fill="#000000" font-family="sans-serif" font-size="13" lengthAdjust="spacing" textLength="54" x="381" y="193.0669">contains</text><text fill="#000000" font-family="sans-serif" font-size="13" lengthAdjust="spacing" textLength="8" x="410.2958" y="170.2808">1</text><text fill="#000000" font-family="sans-serif" font-size="13" lengthAdjust="spacing" textLength="23" x="260.6809" y="219.8503">0..*</text></g><!--MD5=[3266c81f8fe18bd43b58ae82ec4eed3c]
link Directory to Server--><g id="link_Directory_Server"><path codeLine="25" d="M373.75,130 C351.99,130 329.19,130 307.55,130 " fill="none" id="Directory-to-Server" style="stroke:#181818;stroke-width:1.0;"/><polygon fill="#181818" points="302.37,130,311.37,134,307.37,130,311.37,126,302.37,130" style="stroke:#181818;stroke-width:1.0;"/><text fill="#000000" font-family="sans-serif" font-size="13" lengthAdjust="spacing" textLength="35" x="320.5" y="123.0669">hosts</text><text fill="#000000" font-family="sans-serif" font-size="13" lengthAdjust="spacing" textLength="8" x="358.0465" y="142.5431">1</text><text fill="#000000" font-family="sans-serif" font-size="13" lengthAdjust="spacing" textLength="23" x="309.9851" y="142.5431">0..*</text></g><!--MD5=[e0e50d5a71e9fde5acda890ac7ad63cb]
@startuml exploration-class-diagram
/' global configurations '/
hide methods
hide members

class Server as "Thing Description Server" <<(S,#eb937f) service>>

class Thing <<(S,#eb937f) service>>
together {
    class SelfDesc as "Self-Describing Thing" <<(S,#eb937f) service>>
    class Directory as "Thing Description Directory" <<(S,#eb937f) service>>
    class SelfDirectory as "Self-Describing Thing Description Directory" <<(S,#eb937f) service>>
}

class TD as "td:Thing" #Azure
note left: Thing Description (TD)

/' relations '/
Thing <|- - SelfDesc
Server <|- - SelfDesc
Thing <|- - Directory
Directory <|- - SelfDirectory
SelfDesc <|- - SelfDirectory
Server "1" - -> "1  " TD: provides
Directory "1   " - -> "   0..*" TD: contains
Directory "   1" - -> "0..*   " Server: hosts


@enduml

@startuml exploration-class-diagram
hide methods
hide members

class Server as "Thing Description Server" <<(S,#eb937f) service>>

class Thing <<(S,#eb937f) service>>
together {
    class SelfDesc as "Self-Describing Thing" <<(S,#eb937f) service>>
    class Directory as "Thing Description Directory" <<(S,#eb937f) service>>
    class SelfDirectory as "Self-Describing Thing Description Directory" <<(S,#eb937f) service>>
}

class TD as "td:Thing" #Azure
note left: Thing Description (TD)

Thing <|- - SelfDesc
Server <|- - SelfDesc
Thing <|- - Directory
Directory <|- - SelfDirectory
SelfDesc <|- - SelfDirectory
Server "1" - -> "1  " TD: provides
Directory "1   " - -> "   0..*" TD: contains
Directory "   1" - -> "0..*   " Server: hosts


@enduml

PlantUML version 1.2022.5(Sat Apr 30 07:55:52 ADT 2022)
(GPL source distribution)
Java Runtime: OpenJDK Runtime Environment
JVM: OpenJDK 64-Bit Server VM
Default Encoding: UTF-8
Language: en
Country: CA
--></g></svg>