<?xml version="1.0" encoding="UTF-8" standalone="no"?><svg xmlns="http://www.w3.org/2000/svg" xmlns:xlink="http://www.w3.org/1999/xlink" contentStyleType="text/css" height="268px" preserveAspectRatio="none" style="width:662px;height:268px;background:#FFFFFF;" version="1.1" viewBox="0 0 662 268" width="662px" zoomAndPan="magnify"><defs/><g><!--MD5=[0c8f81674d0e9026104f104b6fbe6eff]
class SelfDesc--><g id="elem_SelfDesc"><rect codeLine="9" fill="#F1F1F1" height="40.2656" id="SelfDesc" rx="2.5" ry="2.5" style="stroke:#181818;stroke-width:0.5;" width="179" x="220.5" y="110"/><ellipse cx="235.5" cy="130.1328" fill="#EB937F" rx="11" ry="11" style="stroke:#A80036;stroke-width:1.0;"/><path d="M234.9844,130.6953 Q233.125,129.9922 232.4688,129.2266 Q231.8281,128.4453 231.8281,127.1328 Q231.8281,125.4453 232.9063,124.4766 Q233.9844,123.5078 235.8594,123.5078 Q236.7188,123.5078 237.5625,123.7109 Q238.4219,123.8984 239.2656,124.2891 L239.2656,126.6797 Q238.4844,126.1172 237.6563,125.8359 Q236.8438,125.5391 236.0469,125.5391 Q235.1719,125.5391 234.6875,125.8984 Q234.2188,126.2578 234.2188,126.9141 Q234.2188,127.4297 234.5625,127.7734 Q234.9063,128.1016 236,128.5078 L237.0625,128.9141 Q238.5469,129.4609 239.25,130.3672 Q239.9688,131.2734 239.9688,132.6484 Q239.9688,134.5234 238.8594,135.4453 Q237.75,136.3672 235.5,136.3672 Q234.5781,136.3672 233.6563,136.1484 Q232.7344,135.9297 231.875,135.5078 L231.875,132.9766 Q232.8438,133.6641 233.7656,134.0078 Q234.6875,134.3516 235.5781,134.3516 Q236.4844,134.3516 236.9844,133.9453 Q237.4844,133.5234 237.4844,132.7891 Q237.4844,132.2266 237.1406,131.8203 Q236.8125,131.3984 236.1875,131.1484 L234.9844,130.6953 Z " fill="#000000"/><text fill="#000000" font-family="sans-serif" font-size="12" font-style="italic" lengthAdjust="spacing" textLength="57" x="294.5" y="126.1387">«service»</text><text fill="#000000" font-family="sans-serif" font-size="14" lengthAdjust="spacing" textLength="147" x="249.5" y="141.9639">Self-Describing Thing</text></g><!--MD5=[9bd2b2bc45261200a440e1ecb7c43192]
class Directory--><g id="elem_Directory"><rect codeLine="10" fill="#F1F1F1" height="40.2656" id="Directory" rx="2.5" ry="2.5" style="stroke:#181818;stroke-width:0.5;" width="220" x="435" y="110"/><ellipse cx="450" cy="130.1328" fill="#EB937F" rx="11" ry="11" style="stroke:#A80036;stroke-width:1.0;"/><path d="M449.4844,130.6953 Q447.625,129.9922 446.9688,129.2266 Q446.3281,128.4453 446.3281,127.1328 Q446.3281,125.4453 447.4063,124.4766 Q448.4844,123.5078 450.3594,123.5078 Q451.2188,123.5078 452.0625,123.7109 Q452.9219,123.8984 453.7656,124.2891 L453.7656,126.6797 Q452.9844,126.1172 452.1563,125.8359 Q451.3438,125.5391 450.5469,125.5391 Q449.6719,125.5391 449.1875,125.8984 Q448.7188,126.2578 448.7188,126.9141 Q448.7188,127.4297 449.0625,127.7734 Q449.4063,128.1016 450.5,128.5078 L451.5625,128.9141 Q453.0469,129.4609 453.75,130.3672 Q454.4688,131.2734 454.4688,132.6484 Q454.4688,134.5234 453.3594,135.4453 Q452.25,136.3672 450,136.3672 Q449.0781,136.3672 448.1563,136.1484 Q447.2344,135.9297 446.375,135.5078 L446.375,132.9766 Q447.3438,133.6641 448.2656,134.0078 Q449.1875,134.3516 450.0781,134.3516 Q450.9844,134.3516 451.4844,133.9453 Q451.9844,133.5234 451.9844,132.7891 Q451.9844,132.2266 451.6406,131.8203 Q451.3125,131.3984 450.6875,131.1484 L449.4844,130.6953 Z " fill="#000000"/><text fill="#000000" font-family="sans-serif" font-size="12" font-style="italic" lengthAdjust="spacing" textLength="57" x="529.5" y="126.1387">«service»</text><text fill="#000000" font-family="sans-serif" font-size="14" lengthAdjust="spacing" textLength="188" x="464" y="141.9639">Thing Description Directory</text></g><!--MD5=[c60af77fe5573b84a4aa4bce89659574]
class Server--><g id="elem_Server"><rect codeLine="5" fill="#F1F1F1" height="40.2656" id="Server" rx="2.5" ry="2.5" style="stroke:#181818;stroke-width:0.5;" width="202" x="92" y="7"/><ellipse cx="107" cy="27.1328" fill="#EB937F" rx="11" ry="11" style="stroke:#A80036;stroke-width:1.0;"/><path d="M106.4844,27.6953 Q104.625,26.9922 103.9688,26.2266 Q103.3281,25.4453 103.3281,24.1328 Q103.3281,22.4453 104.4063,21.4766 Q105.4844,20.5078 107.3594,20.5078 Q108.2188,20.5078 109.0625,20.7109 Q109.9219,20.8984 110.7656,21.2891 L110.7656,23.6797 Q109.9844,23.1172 109.1563,22.8359 Q108.3438,22.5391 107.5469,22.5391 Q106.6719,22.5391 106.1875,22.8984 Q105.7188,23.2578 105.7188,23.9141 Q105.7188,24.4297 106.0625,24.7734 Q106.4063,25.1016 107.5,25.5078 L108.5625,25.9141 Q110.0469,26.4609 110.75,27.3672 Q111.4688,28.2734 111.4688,29.6484 Q111.4688,31.5234 110.3594,32.4453 Q109.25,33.3672 107,33.3672 Q106.0781,33.3672 105.1563,33.1484 Q104.2344,32.9297 103.375,32.5078 L103.375,29.9766 Q104.3438,30.6641 105.2656,31.0078 Q106.1875,31.3516 107.0781,31.3516 Q107.9844,31.3516 108.4844,30.9453 Q108.9844,30.5234 108.9844,29.7891 Q108.9844,29.2266 108.6406,28.8203 Q108.3125,28.3984 107.6875,28.1484 L106.4844,27.6953 Z " fill="#000000"/><text fill="#000000" font-family="sans-serif" font-size="12" font-style="italic" lengthAdjust="spacing" textLength="57" x="177.5" y="23.1387">«service»</text><text fill="#000000" font-family="sans-serif" font-size="14" lengthAdjust="spacing" textLength="170" x="121" y="38.9639">Thing Description Server</text></g><!--MD5=[1053da7555f32ea3c982e01119b403ff]
class Thing--><g id="elem_Thing"><rect codeLine="7" fill="#F1F1F1" height="40.2656" id="Thing" rx="2.5" ry="2.5" style="stroke:#181818;stroke-width:0.5;" width="85" x="350.5" y="7"/><ellipse cx="365.5" cy="27.1328" fill="#EB937F" rx="11" ry="11" style="stroke:#A80036;stroke-width:1.0;"/><path d="M364.9844,27.6953 Q363.125,26.9922 362.4688,26.2266 Q361.8281,25.4453 361.8281,24.1328 Q361.8281,22.4453 362.9063,21.4766 Q363.9844,20.5078 365.8594,20.5078 Q366.7188,20.5078 367.5625,20.7109 Q368.4219,20.8984 369.2656,21.2891 L369.2656,23.6797 Q368.4844,23.1172 367.6563,22.8359 Q366.8438,22.5391 366.0469,22.5391 Q365.1719,22.5391 364.6875,22.8984 Q364.2188,23.2578 364.2188,23.9141 Q364.2188,24.4297 364.5625,24.7734 Q364.9063,25.1016 366,25.5078 L367.0625,25.9141 Q368.5469,26.4609 369.25,27.3672 Q369.9688,28.2734 369.9688,29.6484 Q369.9688,31.5234 368.8594,32.4453 Q367.75,33.3672 365.5,33.3672 Q364.5781,33.3672 363.6563,33.1484 Q362.7344,32.9297 361.875,32.5078 L361.875,29.9766 Q362.8438,30.6641 363.7656,31.0078 Q364.6875,31.3516 365.5781,31.3516 Q366.4844,31.3516 366.9844,30.9453 Q367.4844,30.5234 367.4844,29.7891 Q367.4844,29.2266 367.1406,28.8203 Q366.8125,28.3984 366.1875,28.1484 L364.9844,27.6953 Z " fill="#000000"/><text fill="#000000" font-family="sans-serif" font-size="12" font-style="italic" lengthAdjust="spacing" textLength="57" x="377.5" y="23.1387">«service»</text><text fill="#000000" font-family="sans-serif" font-size="14" lengthAdjust="spacing" textLength="39" x="386.5" y="38.9639">Thing</text></g><!--MD5=[f66eb5cd0a27e450a5267fbcb4094f6d]
class TD--><g id="elem_TD"><rect codeLine="13" fill="#F0FFFF" height="32" id="TD" rx="2.5" ry="2.5" style="stroke:#181818;stroke-width:0.5;" width="90" x="203" y="229"/><ellipse cx="218" cy="245" fill="#ADD1B2" rx="11" ry="11" style="stroke:#181818;stroke-width:1.0;"/><path d="M220.9688,250.6406 Q220.3906,250.9375 219.75,251.0781 Q219.1094,251.2344 218.4063,251.2344 Q215.9063,251.2344 214.5781,249.5938 Q213.2656,247.9375 213.2656,244.8125 Q213.2656,241.6875 214.5781,240.0313 Q215.9063,238.375 218.4063,238.375 Q219.1094,238.375 219.75,238.5313 Q220.4063,238.6875 220.9688,238.9844 L220.9688,241.7031 Q220.3438,241.125 219.75,240.8594 Q219.1563,240.5781 218.5313,240.5781 Q217.1875,240.5781 216.5,241.6563 Q215.8125,242.7188 215.8125,244.8125 Q215.8125,246.9063 216.5,247.9844 Q217.1875,249.0469 218.5313,249.0469 Q219.1563,249.0469 219.75,248.7813 Q220.3438,248.5 220.9688,247.9219 L220.9688,250.6406 Z " fill="#000000"/><text fill="#000000" font-family="sans-serif" font-size="14" lengthAdjust="spacing" textLength="58" x="232" y="249.8467">td:Thing</text></g><g id="elem_GMN9"><path d="M6,232.5 L6,257.6328 A0,0 0 0 0 6,257.6328 L168,257.6328 A0,0 0 0 0 168,257.6328 L168,250.5 L202.76,245 L168,242.5 L168,242.5 L158,232.5 L6,232.5 A0,0 0 0 0 6,232.5 " fill="#FEFFDD" style="stroke:#181818;stroke-width:0.5;"/><path d="M158,232.5 L158,242.5 L168,242.5 L158,232.5 " fill="#FEFFDD" style="stroke:#181818;stroke-width:0.5;"/><text fill="#000000" font-family="sans-serif" font-size="13" lengthAdjust="spacing" textLength="141" x="12" y="249.5669">Thing Description (TD)</text></g><!--MD5=[88221bcd57db51459cd4199f69591b42]
reverse link Thing to SelfDesc--><g id="link_Thing_SelfDesc"><path codeLine="17" d="M363.98,63.31 C351.1,78.98 336.46,96.81 325.67,109.93 " fill="none" id="Thing-backto-SelfDesc" style="stroke:#181818;stroke-width:1.0;"/><polygon fill="none" points="358.89,58.48,377,47.47,369.71,67.37,358.89,58.48" style="stroke:#181818;stroke-width:1.0;"/></g><!--MD5=[34b9967e59f351fa19cf43a744ba6d63]
reverse link Server to SelfDesc--><g id="link_Server_SelfDesc"><path codeLine="18" d="M230.47,60.34 C249.36,76.66 271.64,95.88 287.8,109.84 " fill="none" id="Server-backto-SelfDesc" style="stroke:#181818;stroke-width:1.0;"/><polygon fill="none" points="225.85,65.6,215.28,47.24,235,55.01,225.85,65.6" style="stroke:#181818;stroke-width:1.0;"/></g><!--MD5=[6811a1fa3166692e42720dcd61a45561]
reverse link Thing to Directory--><g id="link_Thing_Directory"><path codeLine="19" d="M438.74,58.39 C463.88,75.1 494.32,95.32 516.16,109.84 " fill="none" id="Thing-backto-Directory" style="stroke:#181818;stroke-width:1.0;"/><polygon fill="none" points="434.73,64.13,421.95,47.24,442.48,52.47,434.73,64.13" style="stroke:#181818;stroke-width:1.0;"/></g><!--MD5=[77d4e125ce3d710d6fa63a04956134c6]
link Server to TD--><g id="link_Server_TD"><path codeLine="20" d="M172.82,47.2 C163.32,57.66 153,71.41 148,86 C135.33,123 129.94,139.31 148,174 C160.33,197.69 184.76,215.02 206.39,226.51 " fill="none" id="Server-to-TD" style="stroke:#181818;stroke-width:1.0;"/><polygon fill="#181818" points="210.95,228.88,204.7964,221.1902,206.5097,226.5813,201.1186,228.2946,210.95,228.88" style="stroke:#181818;stroke-width:1.0;"/><text fill="#000000" font-family="sans-serif" font-size="13" lengthAdjust="spacing" textLength="54" x="149" y="134.5669">provides</text><text fill="#000000" font-family="sans-serif" font-size="13" lengthAdjust="spacing" textLength="8" x="157.7171" y="67.3843">1</text><text fill="#000000" font-family="sans-serif" font-size="13" lengthAdjust="spacing" textLength="8" x="179.4641" y="217.8503">1</text></g><!--MD5=[22095c50f58adeae0dd4a30b6d5b7e14]
link Directory to TD--><g id="link_Directory_TD"><path codeLine="21" d="M494.95,150.04 C438.31,171.59 346.87,206.38 292.58,227.04 " fill="none" id="Directory-to-TD" style="stroke:#181818;stroke-width:1.0;"/><polygon fill="#181818" points="287.77,228.87,297.6044,229.4027,292.4422,227.0894,294.7555,221.9272,287.77,228.87" style="stroke:#181818;stroke-width:1.0;"/><text fill="#000000" font-family="sans-serif" font-size="13" lengthAdjust="spacing" textLength="54" x="406" y="195.0669">contains</text><text fill="#000000" font-family="sans-serif" font-size="13" lengthAdjust="spacing" textLength="8" x="457.3103" y="170.1773">1</text><text fill="#000000" font-family="sans-serif" font-size="13" lengthAdjust="spacing" textLength="23" x="272.4253" y="217.8369">0..*</text></g><!--MD5=[1c1dd9688a9d160bd6e9ab3c217f42cd]
@startuml exploration-class-diagram
/' global configurations '/
hide methods
hide members

class Server as "Thing Description Server" <<(S,#eb937f) service>>

class Thing <<(S,#eb937f) service>>
together {
    class SelfDesc as "Self-Describing Thing" <<(S,#eb937f) service>>
    class Directory as "Thing Description Directory" <<(S,#eb937f) service>>
}

class TD as "td:Thing" #Azure
note left: Thing Description (TD)

/' relations '/
Thing <|- - SelfDesc
Server <|- - SelfDesc
Thing <|- - Directory
Server "1" - -> "1  " TD: provides
Directory "1   " - -> "   0..*" TD: contains


@enduml

@startuml exploration-class-diagram
hide methods
hide members

class Server as "Thing Description Server" <<(S,#eb937f) service>>

class Thing <<(S,#eb937f) service>>
together {
    class SelfDesc as "Self-Describing Thing" <<(S,#eb937f) service>>
    class Directory as "Thing Description Directory" <<(S,#eb937f) service>>
}

class TD as "td:Thing" #Azure
note left: Thing Description (TD)

Thing <|- - SelfDesc
Server <|- - SelfDesc
Thing <|- - Directory
Server "1" - -> "1  " TD: provides
Directory "1   " - -> "   0..*" TD: contains


@enduml

PlantUML version 1.2022.5(Sat Apr 30 07:55:52 ADT 2022)
(GPL source distribution)
Java Runtime: OpenJDK Runtime Environment
JVM: OpenJDK 64-Bit Server VM
Default Encoding: UTF-8
Language: en
Country: CA
--></g></svg>