<?xml version="1.0" encoding="UTF-8" standalone="no"?><svg xmlns="http://www.w3.org/2000/svg" xmlns:xlink="http://www.w3.org/1999/xlink" contentScriptType="application/ecmascript" contentStyleType="text/css" height="195px" preserveAspectRatio="none" style="width:984px;height:195px;" version="1.1" viewBox="0 0 984 195" width="984px" zoomAndPan="magnify"><defs><filter height="300%" id="f1ukmituuevv1i" width="300%" x="-1" y="-1"><feGaussianBlur result="blurOut" stdDeviation="2.0"/><feColorMatrix in="blurOut" result="blurOut2" type="matrix" values="0 0 0 0 0 0 0 0 0 0 0 0 0 0 0 0 0 0 .4 0"/><feOffset dx="4.0" dy="4.0" in="blurOut2" result="blurOut3"/><feBlend in="SourceGraphic" in2="blurOut3" mode="normal"/></filter></defs><g><!--MD5=[720243bd32a03d3d8b9d48ea222fefd0]
class td:Thing--><rect codeLine="2" fill="#FEFECE" filter="url(#f1ukmituuevv1i)" height="32" id="td:Thing" style="stroke:#A80036;stroke-width:1.5;" width="80" x="405.5" y="7"/><ellipse cx="420.5" cy="23" fill="#ADD1B2" rx="11" ry="11" style="stroke:#A80036;stroke-width:1.0;"/><path d="M422.8438,18.6719 C421.9063,18.2344 421.3125,18.0938 420.4375,18.0938 C417.8125,18.0938 415.8125,20.1719 415.8125,22.8906 L415.8125,24.0156 C415.8125,26.5938 417.9219,28.4844 420.8125,28.4844 C422.0313,28.4844 423.1875,28.1875 423.9375,27.6406 C424.5156,27.2344 424.8438,26.7813 424.8438,26.3906 C424.8438,25.9375 424.4531,25.5469 423.9844,25.5469 C423.7656,25.5469 423.5625,25.625 423.375,25.8125 C422.9219,26.2969 422.9219,26.2969 422.7344,26.3906 C422.3125,26.6563 421.625,26.7813 420.8594,26.7813 C418.8125,26.7813 417.5156,25.6875 417.5156,23.9844 L417.5156,22.8906 C417.5156,21.1094 418.7656,19.7969 420.5,19.7969 C421.0781,19.7969 421.6875,19.9531 422.1563,20.2031 C422.6406,20.4844 422.8125,20.7031 422.9063,21.1094 C422.9688,21.5156 423,21.6406 423.1406,21.7656 C423.2813,21.9063 423.5156,22.0156 423.7344,22.0156 C424,22.0156 424.2656,21.875 424.4375,21.6563 C424.5469,21.5 424.5781,21.3125 424.5781,20.8906 L424.5781,19.4688 C424.5781,19.0313 424.5625,18.9063 424.4688,18.75 C424.3125,18.4844 424.0313,18.3438 423.7344,18.3438 C423.4375,18.3438 423.2344,18.4375 423.0156,18.75 L422.8438,18.6719 Z " fill="#000000"/><text fill="#000000" font-family="sans-serif" font-size="12" lengthAdjust="spacing" textLength="48" x="434.5" y="27.1543">td:Thing</text><!--MD5=[3face5a6601d320b32ae00e1c4bdf539]
class dsv:ThingPage--><rect codeLine="3" fill="#FEFECE" filter="url(#f1ukmituuevv1i)" height="65.6094" id="dsv:ThingPage" style="stroke:#A80036;stroke-width:1.5;" width="185" x="7" y="116"/><ellipse cx="51.75" cy="132" fill="#ADD1B2" rx="11" ry="11" style="stroke:#A80036;stroke-width:1.0;"/><path d="M54.0938,127.6719 C53.1563,127.2344 52.5625,127.0938 51.6875,127.0938 C49.0625,127.0938 47.0625,129.1719 47.0625,131.8906 L47.0625,133.0156 C47.0625,135.5938 49.1719,137.4844 52.0625,137.4844 C53.2813,137.4844 54.4375,137.1875 55.1875,136.6406 C55.7656,136.2344 56.0938,135.7813 56.0938,135.3906 C56.0938,134.9375 55.7031,134.5469 55.2344,134.5469 C55.0156,134.5469 54.8125,134.625 54.625,134.8125 C54.1719,135.2969 54.1719,135.2969 53.9844,135.3906 C53.5625,135.6563 52.875,135.7813 52.1094,135.7813 C50.0625,135.7813 48.7656,134.6875 48.7656,132.9844 L48.7656,131.8906 C48.7656,130.1094 50.0156,128.7969 51.75,128.7969 C52.3281,128.7969 52.9375,128.9531 53.4063,129.2031 C53.8906,129.4844 54.0625,129.7031 54.1563,130.1094 C54.2188,130.5156 54.25,130.6406 54.3906,130.7656 C54.5313,130.9063 54.7656,131.0156 54.9844,131.0156 C55.25,131.0156 55.5156,130.875 55.6875,130.6563 C55.7969,130.5 55.8281,130.3125 55.8281,129.8906 L55.8281,128.4688 C55.8281,128.0313 55.8125,127.9063 55.7188,127.75 C55.5625,127.4844 55.2813,127.3438 54.9844,127.3438 C54.6875,127.3438 54.4844,127.4375 54.2656,127.75 L54.0938,127.6719 Z " fill="#000000"/><text fill="#000000" font-family="sans-serif" font-size="12" lengthAdjust="spacing" textLength="87" x="72.25" y="136.1543">dsv:ThingPage</text><line style="stroke:#A80036;stroke-width:1.5;" x1="8" x2="191" y1="148" y2="148"/><text fill="#000000" font-family="sans-serif" font-size="11" lengthAdjust="spacing" textLength="173" x="13" y="162.2104">dsv:hasCollectionSize : xsd:int</text><text fill="#000000" font-family="sans-serif" font-size="11" lengthAdjust="spacing" textLength="145" x="13" y="175.0151">dsv:hasPageSize : xsd:int</text><!--MD5=[4bb40751e41bd19fc7f55aa8dbf3a67f]
class dsv:LinkDescription--><rect codeLine="7" fill="#FEFECE" filter="url(#f1ukmituuevv1i)" height="32" id="dsv:LinkDescription" style="stroke:#A80036;stroke-width:1.5;" width="150" x="370.5" y="133"/><ellipse cx="385.5" cy="149" fill="#ADD1B2" rx="11" ry="11" style="stroke:#A80036;stroke-width:1.0;"/><path d="M387.8438,144.6719 C386.9063,144.2344 386.3125,144.0938 385.4375,144.0938 C382.8125,144.0938 380.8125,146.1719 380.8125,148.8906 L380.8125,150.0156 C380.8125,152.5938 382.9219,154.4844 385.8125,154.4844 C387.0313,154.4844 388.1875,154.1875 388.9375,153.6406 C389.5156,153.2344 389.8438,152.7813 389.8438,152.3906 C389.8438,151.9375 389.4531,151.5469 388.9844,151.5469 C388.7656,151.5469 388.5625,151.625 388.375,151.8125 C387.9219,152.2969 387.9219,152.2969 387.7344,152.3906 C387.3125,152.6563 386.625,152.7813 385.8594,152.7813 C383.8125,152.7813 382.5156,151.6875 382.5156,149.9844 L382.5156,148.8906 C382.5156,147.1094 383.7656,145.7969 385.5,145.7969 C386.0781,145.7969 386.6875,145.9531 387.1563,146.2031 C387.6406,146.4844 387.8125,146.7031 387.9063,147.1094 C387.9688,147.5156 388,147.6406 388.1406,147.7656 C388.2813,147.9063 388.5156,148.0156 388.7344,148.0156 C389,148.0156 389.2656,147.875 389.4375,147.6563 C389.5469,147.5 389.5781,147.3125 389.5781,146.8906 L389.5781,145.4688 C389.5781,145.0313 389.5625,144.9063 389.4688,144.75 C389.3125,144.4844 389.0313,144.3438 388.7344,144.3438 C388.4375,144.3438 388.2344,144.4375 388.0156,144.75 L387.8438,144.6719 Z " fill="#000000"/><text fill="#000000" font-family="sans-serif" font-size="12" lengthAdjust="spacing" textLength="118" x="399.5" y="153.1543">dsv:LinkDescription</text><!--MD5=[dd5373307640846907e9a48d90b90e45]
class dsv:DirectoryDescription--><rect codeLine="8" fill="#FEFECE" filter="url(#f1ukmituuevv1i)" height="32" id="dsv:DirectoryDescription" style="stroke:#A80036;stroke-width:1.5;" width="183" x="556" y="133"/><ellipse cx="571" cy="149" fill="#ADD1B2" rx="11" ry="11" style="stroke:#A80036;stroke-width:1.0;"/><path d="M573.3438,144.6719 C572.4063,144.2344 571.8125,144.0938 570.9375,144.0938 C568.3125,144.0938 566.3125,146.1719 566.3125,148.8906 L566.3125,150.0156 C566.3125,152.5938 568.4219,154.4844 571.3125,154.4844 C572.5313,154.4844 573.6875,154.1875 574.4375,153.6406 C575.0156,153.2344 575.3438,152.7813 575.3438,152.3906 C575.3438,151.9375 574.9531,151.5469 574.4844,151.5469 C574.2656,151.5469 574.0625,151.625 573.875,151.8125 C573.4219,152.2969 573.4219,152.2969 573.2344,152.3906 C572.8125,152.6563 572.125,152.7813 571.3594,152.7813 C569.3125,152.7813 568.0156,151.6875 568.0156,149.9844 L568.0156,148.8906 C568.0156,147.1094 569.2656,145.7969 571,145.7969 C571.5781,145.7969 572.1875,145.9531 572.6563,146.2031 C573.1406,146.4844 573.3125,146.7031 573.4063,147.1094 C573.4688,147.5156 573.5,147.6406 573.6406,147.7656 C573.7813,147.9063 574.0156,148.0156 574.2344,148.0156 C574.5,148.0156 574.7656,147.875 574.9375,147.6563 C575.0469,147.5 575.0781,147.3125 575.0781,146.8906 L575.0781,145.4688 C575.0781,145.0313 575.0625,144.9063 574.9688,144.75 C574.8125,144.4844 574.5313,144.3438 574.2344,144.3438 C573.9375,144.3438 573.7344,144.4375 573.5156,144.75 L573.3438,144.6719 Z " fill="#000000"/><text fill="#000000" font-family="sans-serif" font-size="12" lengthAdjust="spacing" textLength="151" x="585" y="153.1543">dsv:DirectoryDescription</text><!--MD5=[a1e6a1459d304c54644b041575a686ed]
class dsv:RegistrationInformation--><rect codeLine="9" fill="#FEFECE" filter="url(#f1ukmituuevv1i)" height="65.6094" id="dsv:RegistrationInformation" style="stroke:#A80036;stroke-width:1.5;" width="196" x="774.5" y="116"/><ellipse cx="789.5" cy="132" fill="#ADD1B2" rx="11" ry="11" style="stroke:#A80036;stroke-width:1.0;"/><path d="M791.8438,127.6719 C790.9063,127.2344 790.3125,127.0938 789.4375,127.0938 C786.8125,127.0938 784.8125,129.1719 784.8125,131.8906 L784.8125,133.0156 C784.8125,135.5938 786.9219,137.4844 789.8125,137.4844 C791.0313,137.4844 792.1875,137.1875 792.9375,136.6406 C793.5156,136.2344 793.8438,135.7813 793.8438,135.3906 C793.8438,134.9375 793.4531,134.5469 792.9844,134.5469 C792.7656,134.5469 792.5625,134.625 792.375,134.8125 C791.9219,135.2969 791.9219,135.2969 791.7344,135.3906 C791.3125,135.6563 790.625,135.7813 789.8594,135.7813 C787.8125,135.7813 786.5156,134.6875 786.5156,132.9844 L786.5156,131.8906 C786.5156,130.1094 787.7656,128.7969 789.5,128.7969 C790.0781,128.7969 790.6875,128.9531 791.1563,129.2031 C791.6406,129.4844 791.8125,129.7031 791.9063,130.1094 C791.9688,130.5156 792,130.6406 792.1406,130.7656 C792.2813,130.9063 792.5156,131.0156 792.7344,131.0156 C793,131.0156 793.2656,130.875 793.4375,130.6563 C793.5469,130.5 793.5781,130.3125 793.5781,129.8906 L793.5781,128.4688 C793.5781,128.0313 793.5625,127.9063 793.4688,127.75 C793.3125,127.4844 793.0313,127.3438 792.7344,127.3438 C792.4375,127.3438 792.2344,127.4375 792.0156,127.75 L791.8438,127.6719 Z " fill="#000000"/><text fill="#000000" font-family="sans-serif" font-size="12" lengthAdjust="spacing" textLength="164" x="803.5" y="136.1543">dsv:RegistrationInformation</text><line style="stroke:#A80036;stroke-width:1.5;" x1="775.5" x2="969.5" y1="148" y2="148"/><text fill="#000000" font-family="sans-serif" font-size="11" lengthAdjust="spacing" textLength="146" x="780.5" y="162.2104">dc:created : xsd:datetime</text><text fill="#000000" font-family="sans-serif" font-size="11" lengthAdjust="spacing" textLength="152" x="780.5" y="175.0151">dc:modified : xsd:datetime</text><!--MD5=[86860f57edf44928446c2dbaa23794d1]
reverse link dsv:ThingPage to dsv:ThingPage--><path codeLine="14" d="M197.138,136.6277 C214.709,138.2213 227,142.3454 227,149 C227,156.2803 212.289,160.5318 192.047,161.7547 " fill="none" id="dsv:ThingPage-backto-dsv:ThingPage" style="stroke:#A80036;stroke-width:1.0;"/><polygon fill="#A80036" points="192.047,136.2453,200.7223,140.9078,197.033,136.6196,201.3212,132.9302,192.047,136.2453" style="stroke:#A80036;stroke-width:1.0;"/><text fill="#000000" font-family="sans-serif" font-size="13" lengthAdjust="spacing" textLength="113" x="233" y="153.5669">dsv:hasNextPage</text><!--MD5=[df5672b9cc5b95645a5c8ba7ffdeaee5]
reverse link td:Thing to dsv:ThingPage--><path codeLine="15" d="M400.264,24.134 C320.393,25.33 158.978,32.353 118.5,69 C105.6375,80.645 100.7489,99.3371 99.1411,115.6162 " fill="none" id="td:Thing-backto-dsv:ThingPage" style="stroke:#A80036;stroke-width:1.0;"/><polygon fill="#A80036" points="405.405,24.064,396.351,20.1878,400.4055,24.1326,396.4607,28.1871,405.405,24.064" style="stroke:#A80036;stroke-width:1.0;"/><text fill="#000000" font-family="sans-serif" font-size="13" lengthAdjust="spacing" textLength="111" x="119.5" y="82.0669">dsv:hasElements</text><!--MD5=[9838511371a3dd27124006600be7fc16]
link td:Thing to dsv:ThingPage--><path codeLine="16" d="M405.217,37.147 C378.549,45.943 342.845,57.9 311.5,69 C271.017,83.3362 226.441,99.8376 188.654,114.0394 " fill="none" id="td:Thing-to-dsv:ThingPage" style="stroke:#A80036;stroke-width:1.0;"/><polygon fill="#A80036" points="183.606,115.938,193.438,116.5139,188.286,114.178,190.6219,109.0259,183.606,115.938" style="stroke:#A80036;stroke-width:1.0;"/><text fill="#000000" font-family="sans-serif" font-size="13" lengthAdjust="spacing" textLength="124" x="312.5" y="82.0669">dsv:areElementsOf</text><!--MD5=[bc50b866278bfeeb6ec49a801e1cabf4]
reverse link td:Thing to dsv:LinkDescription--><path codeLine="18" d="M445.5,59.369 C445.5,83.582 445.5,114.4845 445.5,132.6708 " fill="none" id="td:Thing-backto-dsv:LinkDescription" style="stroke:#A80036;stroke-width:1.0;"/><polygon fill="none" points="438.5,59.205,445.5,39.205,452.5,59.205,438.5,59.205" style="stroke:#A80036;stroke-width:1.0;"/><!--MD5=[68a4d749919855d3ddefbc228a2c99c9]
reverse link td:Thing to dsv:DirectoryDescription--><path codeLine="19" d="M487.496,49.779 C528.402,74.89 589.194,112.2082 622.845,132.8649 " fill="none" id="td:Thing-backto-dsv:DirectoryDescription" style="stroke:#A80036;stroke-width:1.0;"/><polygon fill="none" points="483.652,55.634,470.269,39.205,490.976,43.702,483.652,55.634" style="stroke:#A80036;stroke-width:1.0;"/><!--MD5=[326f7dd9de3127c8748aa8acf6712f63]
link td:Thing to dsv:RegistrationInformation--><path codeLine="20" d="M485.671,35.666 C550.02,54.353 678.225,91.5828 769.388,118.0565 " fill="none" id="td:Thing-to-dsv:RegistrationInformation" style="stroke:#A80036;stroke-width:1.0;"/><polygon fill="#A80036" points="774.246,119.4671,766.7185,113.116,769.4443,118.0728,764.4876,120.7987,774.246,119.4671" style="stroke:#A80036;stroke-width:1.0;"/><text fill="#000000" font-family="sans-serif" font-size="13" lengthAdjust="spacing" textLength="152" x="660.5" y="82.0669">dsv:hasRegistrationInfo</text><!--MD5=[5d618dab6f0a1d2d588409a37da01351]
@startuml
hide members
class "td:Thing"
class "dsv:ThingPage" {
  dsv:hasCollectionSize : xsd:int
  dsv:hasPageSize : xsd:int
}
class "dsv:LinkDescription"
class "dsv:DirectoryDescription"
class "dsv:RegistrationInformation" {
  dc:created : xsd:datetime
  dc:modified : xsd:datetime
}

"dsv:ThingPage" <- - "dsv:ThingPage" : "dsv:hasNextPage"
"td:Thing" <- - "dsv:ThingPage" : "dsv:hasElements"
"td:Thing" - -> "dsv:ThingPage" : "dsv:areElementsOf"

"td:Thing" <|- - "dsv:LinkDescription"
"td:Thing" <|- - "dsv:DirectoryDescription"
"td:Thing" - -> "dsv:RegistrationInformation" : "dsv:hasRegistrationInfo"

show "dsv:ThingPage" attributes
show "dsv:RegistrationInformation" attributes
@enduml

PlantUML version 1.2021.2beta9(Unknown compile time)
(GPL source distribution)
Java Runtime: Java(TM) SE Runtime Environment
JVM: Java HotSpot(TM) 64-Bit Server VM
Default Encoding: UTF-8
Language: en
Country: US
--></g></svg>