<?xml version="1.0" encoding="UTF-8" standalone="no"?><svg xmlns="http://www.w3.org/2000/svg" xmlns:xlink="http://www.w3.org/1999/xlink" contentScriptType="application/ecmascript" contentStyleType="text/css" height="195px" preserveAspectRatio="none" style="width:404px;height:195px;" version="1.1" viewBox="0 0 404 195" width="404px" zoomAndPan="magnify"><defs><filter height="300%" id="f1xgb7pd5uptw6" width="300%" x="-1" y="-1"><feGaussianBlur result="blurOut" stdDeviation="2.0"/><feColorMatrix in="blurOut" result="blurOut2" type="matrix" values="0 0 0 0 0 0 0 0 0 0 0 0 0 0 0 0 0 0 .4 0"/><feOffset dx="4.0" dy="4.0" in="blurOut2" result="blurOut3"/><feBlend in="SourceGraphic" in2="blurOut3" mode="normal"/></filter></defs><g><!--MD5=[720243bd32a03d3d8b9d48ea222fefd0]
class td:Thing--><rect codeLine="2" fill="#FEFECE" filter="url(#f1xgb7pd5uptw6)" height="32" id="td:Thing" style="stroke:#A80036;stroke-width:1.5;" width="80" x="205" y="7"/><ellipse cx="220" cy="23" fill="#ADD1B2" rx="11" ry="11" style="stroke:#A80036;stroke-width:1.0;"/><path d="M222.3438,18.6719 C221.4063,18.2344 220.8125,18.0938 219.9375,18.0938 C217.3125,18.0938 215.3125,20.1719 215.3125,22.8906 L215.3125,24.0156 C215.3125,26.5938 217.4219,28.4844 220.3125,28.4844 C221.5313,28.4844 222.6875,28.1875 223.4375,27.6406 C224.0156,27.2344 224.3438,26.7813 224.3438,26.3906 C224.3438,25.9375 223.9531,25.5469 223.4844,25.5469 C223.2656,25.5469 223.0625,25.625 222.875,25.8125 C222.4219,26.2969 222.4219,26.2969 222.2344,26.3906 C221.8125,26.6563 221.125,26.7813 220.3594,26.7813 C218.3125,26.7813 217.0156,25.6875 217.0156,23.9844 L217.0156,22.8906 C217.0156,21.1094 218.2656,19.7969 220,19.7969 C220.5781,19.7969 221.1875,19.9531 221.6563,20.2031 C222.1406,20.4844 222.3125,20.7031 222.4063,21.1094 C222.4688,21.5156 222.5,21.6406 222.6406,21.7656 C222.7813,21.9063 223.0156,22.0156 223.2344,22.0156 C223.5,22.0156 223.7656,21.875 223.9375,21.6563 C224.0469,21.5 224.0781,21.3125 224.0781,20.8906 L224.0781,19.4688 C224.0781,19.0313 224.0625,18.9063 223.9688,18.75 C223.8125,18.4844 223.5313,18.3438 223.2344,18.3438 C222.9375,18.3438 222.7344,18.4375 222.5156,18.75 L222.3438,18.6719 Z " fill="#000000"/><text fill="#000000" font-family="sans-serif" font-size="12" lengthAdjust="spacing" textLength="48" x="234" y="27.1543">td:Thing</text><!--MD5=[9aa602dccbd2a95bba68dd7011c5ff0c]
class tdd:RegistrationInformation--><rect codeLine="4" fill="#FEFECE" filter="url(#f1xgb7pd5uptw6)" height="65.6094" id="tdd:RegistrationInformation" style="stroke:#A80036;stroke-width:1.5;" width="194" x="148" y="116"/><ellipse cx="163" cy="132" fill="#ADD1B2" rx="11" ry="11" style="stroke:#A80036;stroke-width:1.0;"/><path d="M165.3438,127.6719 C164.4063,127.2344 163.8125,127.0938 162.9375,127.0938 C160.3125,127.0938 158.3125,129.1719 158.3125,131.8906 L158.3125,133.0156 C158.3125,135.5938 160.4219,137.4844 163.3125,137.4844 C164.5313,137.4844 165.6875,137.1875 166.4375,136.6406 C167.0156,136.2344 167.3438,135.7813 167.3438,135.3906 C167.3438,134.9375 166.9531,134.5469 166.4844,134.5469 C166.2656,134.5469 166.0625,134.625 165.875,134.8125 C165.4219,135.2969 165.4219,135.2969 165.2344,135.3906 C164.8125,135.6563 164.125,135.7813 163.3594,135.7813 C161.3125,135.7813 160.0156,134.6875 160.0156,132.9844 L160.0156,131.8906 C160.0156,130.1094 161.2656,128.7969 163,128.7969 C163.5781,128.7969 164.1875,128.9531 164.6563,129.2031 C165.1406,129.4844 165.3125,129.7031 165.4063,130.1094 C165.4688,130.5156 165.5,130.6406 165.6406,130.7656 C165.7813,130.9063 166.0156,131.0156 166.2344,131.0156 C166.5,131.0156 166.7656,130.875 166.9375,130.6563 C167.0469,130.5 167.0781,130.3125 167.0781,129.8906 L167.0781,128.4688 C167.0781,128.0313 167.0625,127.9063 166.9688,127.75 C166.8125,127.4844 166.5313,127.3438 166.2344,127.3438 C165.9375,127.3438 165.7344,127.4375 165.5156,127.75 L165.3438,127.6719 Z " fill="#000000"/><text fill="#000000" font-family="sans-serif" font-size="12" lengthAdjust="spacing" textLength="162" x="177" y="136.1543">tdd:RegistrationInformation</text><line style="stroke:#A80036;stroke-width:1.5;" x1="149" x2="341" y1="148" y2="148"/><text fill="#000000" font-family="sans-serif" font-size="11" lengthAdjust="spacing" textLength="146" x="154" y="162.2104">dc:created : xsd:datetime</text><text fill="#000000" font-family="sans-serif" font-size="11" lengthAdjust="spacing" textLength="152" x="154" y="175.0151">dc:modified : xsd:datetime</text><path d="M6,10.5 L6,35.6328 A0,0 0 0 0 6,35.6328 L170,35.6328 A0,0 0 0 0 170,35.6328 L170,28.5 L204.959,23 L170,20.5 L170,20.5 L160,10.5 L6,10.5 A0,0 0 0 0 6,10.5 " fill="#FBFB77" filter="url(#f1xgb7pd5uptw6)" style="stroke:#A80036;stroke-width:1.0;"/><path d="M160,10.5 L160,20.5 L170,20.5 L160,10.5 " fill="#FBFB77" style="stroke:#A80036;stroke-width:1.0;"/><text fill="#000000" font-family="sans-serif" font-size="13" lengthAdjust="spacing" textLength="143" x="12" y="27.5669">Thing Description (TD)</text><!--MD5=[821198670108d129ab16eb16115fe7ba]
link td:Thing to tdd:RegistrationInformation--><path codeLine="14" d="M245,39.205 C245,56.956 245,86.9409 245,110.942 " fill="none" id="td:Thing-to-tdd:RegistrationInformation" style="stroke:#A80036;stroke-width:1.0;"/><polygon fill="#A80036" points="245,115.9662,249,106.9662,245,110.9662,241,106.9662,245,115.9662" style="stroke:#A80036;stroke-width:1.0;"/><text fill="#000000" font-family="sans-serif" font-size="13" lengthAdjust="spacing" textLength="150" x="246" y="82.0669">tdd:hasRegistrationInfo</text><!--MD5=[e579838718ff89458b494d214dd2973b]
@startuml
hide members
class "td:Thing"

class "tdd:RegistrationInformation" {
  dc:created : xsd:datetime
  dc:modified : xsd:datetime
}


note left of "td:Thing" 
  Thing Description (TD)
end note

"td:Thing" - -> "tdd:RegistrationInformation" : "tdd:hasRegistrationInfo"

show "tdd:RegistrationInformation" attributes
@enduml

PlantUML version 1.2021.2(Sun Mar 07 11:10:27 UTC 2021)
(GPL source distribution)
Java Runtime: Java(TM) SE Runtime Environment
JVM: Java HotSpot(TM) 64-Bit Server VM
Default Encoding: UTF-8
Language: en
Country: US
--></g></svg>
